<?xml version="1.0" encoding="UTF-8"?>
<svg version="1.1" xmlns="http://www.w3.org/2000/svg" width="1978" height="2386">
<path d="M0 0 C1.78095498 0.00252486 3.56190998 0.00503733 5.34286499 0.00753784 C35.87843659 0.06471021 66.23377516 0.93820897 96.6875 3.3125 C97.40478523 3.36828972 98.12207047 3.42407944 98.86109161 3.48155975 C132.79082511 6.12682885 166.69207171 9.10851002 200.58203125 12.21875 C201.85658298 12.33553226 201.85658298 12.33553226 203.15688324 12.45467377 C211.25298152 13.19652083 219.34883338 13.94035835 227.44273853 14.70580482 C264.17771376 18.17438695 300.96209829 20.50847752 337.82509995 22.07321167 C340.57534929 22.19071939 343.32548137 22.31068865 346.07559204 22.43139648 C371.47182253 23.54596708 396.87153698 24.56312766 422.2734375 25.5390625 C423.64043883 25.59161016 425.00744005 25.64416079 426.37444115 25.6967144 C429.12169626 25.80232248 431.86895201 25.90791415 434.61620808 26.01349735 C627.17111157 33.41450257 627.17111157 33.41450257 798.6875 73.3125 C799.58033691 73.74933105 800.47317383 74.18616211 801.39306641 74.63623047 C820.26892046 83.97002148 837.45951871 94.90780096 853.6875 108.3125 C854.25388184 108.77591797 854.82026367 109.23933594 855.40380859 109.71679688 C867.77226752 119.87921621 879.42222431 131.01287583 889.6875 143.3125 C890.49058594 144.23804688 891.29367187 145.16359375 892.12109375 146.1171875 C923.97208056 182.92994374 947.63587277 225.84165639 971.62710571 267.9462738 C974.00119709 272.11182584 976.38170399 276.27366035 978.765625 280.43359375 C982.74998587 287.38732098 986.72356161 294.3471066 990.6875 301.3125 C991.60426514 302.92318359 991.60426514 302.92318359 992.53955078 304.56640625 C1000.77852377 319.07305055 1008.69210803 333.71867549 1016.28466797 348.57421875 C1017.53440604 351.0136657 1018.79763722 353.44541907 1020.06640625 355.875 C1027.59646131 370.42480316 1036.16740741 387.16227408 1032.0390625 403.94921875 C1026.77637556 416.83605472 1015.86353896 422.68188295 1003.66706848 427.93444824 C995.77791387 431.22488239 987.58743399 433.4845644 979.375 435.8125 C977.57997091 436.32763104 975.78513567 436.84343797 973.99047852 437.35986328 C970.18179544 438.45445109 966.37159337 439.54355489 962.56054688 440.62988281 C957.70035844 442.01813296 952.84794231 443.43154288 947.99781799 444.85450745 C866.79341186 468.67409878 783.97173492 485.17101649 700.9375 501.125 C700.12529999 501.28221527 699.31309998 501.43943054 698.47628784 501.60140991 C689.83778301 503.26924505 681.2169599 504.67079031 672.48535156 505.77807617 C666.20749704 506.66147959 660.00275182 507.90576202 653.78039551 509.11187744 C599.98817946 519.45804352 545.34733319 524.47577647 490.6875 527.3125 C489.8508783 527.35656982 489.01425659 527.40063965 488.15228271 527.44604492 C455.93019323 529.10352302 423.63540071 529.54447512 391.375 529.5625 C390.50874371 529.563531 389.64248741 529.564562 388.74998093 529.56562424 C361.03286112 529.59586811 333.32780223 529.23003415 305.6171875 528.67578125 C304.84267762 528.66029818 304.06816773 528.64481511 303.27018785 528.62886286 C288.60732485 528.33493496 273.94471644 528.02868686 259.28224361 527.71593726 C221.26149254 526.90507026 183.24815398 526.20691938 145.21875 525.99609375 C143.56762629 525.98665945 141.91650261 525.97722 140.26537895 525.96777534 C125.33315191 525.88362125 110.40094962 525.81421683 95.46849334 525.79158384 C89.69414482 525.78245599 83.91986859 525.76396744 78.14556515 525.7394802 C74.86045035 525.72616128 71.57568824 525.71934327 68.29052734 525.72358513 C53.23635541 525.74300716 38.3487696 525.14761539 23.34416103 524.02488697 C1.09693906 522.36048104 -21.01232083 521.86436743 -43.3161056 521.87225223 C-48.32344993 521.87025105 -53.3307228 521.84971328 -58.33802795 521.83106995 C-69.9102047 521.79078942 -81.48236536 521.77166268 -93.05459595 521.75489807 C-107.80695413 521.73228494 -122.55926848 521.6981724 -137.31155783 521.64769894 C-142.24562562 521.63137268 -147.17962566 521.6191173 -152.11372185 521.61746025 C-171.29082948 521.61085748 -190.41678679 521.43783194 -209.56860352 520.37915039 C-210.31843124 520.33772065 -211.06825897 520.29629091 -211.84080875 520.25360572 C-244.39953809 518.40839414 -277.24049881 515.87347575 -301.02734375 490.91015625 C-309.55241983 481.2192578 -312.30279067 469.61721649 -315.3125 457.3125 C-315.55810889 456.41893138 -315.55810889 456.41893138 -315.80867958 455.50731087 C-317.47724224 448.94347264 -317.5825875 442.65405508 -317.53955078 435.90795898 C-317.53984283 434.697202 -317.54013489 433.48644501 -317.54043579 432.23899841 C-317.53928792 428.94617856 -317.5293141 425.65353261 -317.51528788 422.3607471 C-317.50271586 418.90945627 -317.50160495 415.45816139 -317.49923706 412.0068512 C-317.49304119 405.48349728 -317.47665623 398.96021106 -317.45653808 392.43688685 C-317.43411987 385.00514832 -317.42317081 377.57340642 -317.41314721 370.14164245 C-317.39228814 354.86522255 -317.35714932 339.58887003 -317.3125 324.3125 C-315.74049218 324.61032596 -314.16937431 324.9128512 -312.59863281 325.21728516 C-311.28611542 325.46921127 -311.28611542 325.46921127 -309.94708252 325.72622681 C-305.81924625 326.6447935 -301.97367151 328.09959006 -298.0625 329.6875 C-297.21042969 330.03200195 -296.35835937 330.37650391 -295.48046875 330.73144531 C-280.48569887 336.99017932 -266.58695371 345.47746367 -252.71533203 353.87084961 C-221.30951708 372.83314449 -190.52551857 386.06258815 -153.3125 377.3125 C-138.83962218 373.19865573 -126.56718225 366.25973094 -115.3125 356.3125 C-114.68730469 355.78269531 -114.06210937 355.25289063 -113.41796875 354.70703125 C-97.03397563 339.78109841 -87.89772644 315.31456667 -86.40234375 293.61328125 C-86.37269531 292.85402344 -86.34304688 292.09476562 -86.3125 291.3125 C-86.27253906 290.48105469 -86.23257813 289.64960938 -86.19140625 288.79296875 C-85.58394155 264.38718096 -93.53364471 239.10119473 -109.3125 220.3125 C-110.03308594 219.45398438 -110.75367188 218.59546875 -111.49609375 217.7109375 C-129.48421627 197.07291825 -153.0284186 184.1703188 -180.3125 181.3125 C-212.31595744 179.39744846 -246.14151549 191.12792395 -271.62695312 210.08007812 C-280.89571508 216.85712192 -290.48947422 223.42584788 -302.25 223.5 C-303.26964844 223.51417969 -304.28929687 223.52835938 -305.33984375 223.54296875 C-308.43089655 223.30332077 -310.57530518 222.75699458 -313.3125 221.3125 C-314.90534788 217.13127432 -314.33015784 213.70816673 -312.64453125 209.60522461 C-310.97454527 206.73080409 -308.90771456 204.47812475 -306.6875 202.00390625 C-300.86558659 195.24386899 -297.04030497 187.84034739 -293.125 179.875 C-292.39455859 178.42108276 -291.66234596 176.96805417 -290.9284668 175.51586914 C-289.43474011 172.55609434 -287.94833105 169.59284769 -286.46875 166.62597656 C-254.24221329 102.06115564 -254.24221329 102.06115564 -232.3125 77.3125 C-231.59964844 76.49136719 -230.88679687 75.67023438 -230.15234375 74.82421875 C-227.9106428 72.28204289 -225.62510247 69.79028836 -223.3125 67.3125 C-222.51585937 66.45011719 -221.71921875 65.58773437 -220.8984375 64.69921875 C-209.58944398 52.89481615 -196.36157549 43.29258958 -182.12011719 35.32568359 C-180.35303857 34.33522219 -178.60264255 33.3191856 -176.8515625 32.30078125 C-123.9731278 2.1940578 -59.33232559 -0.13604279 0 0 Z M5.6875 46.3125 C9.41827442 50.7894293 13.27340115 54.97828561 17.46484375 59.02734375 C19.3245957 60.93939101 21.05175755 62.88606654 22.78515625 64.91015625 C27.32518242 70.13812023 32.25916567 74.95387337 37.1875 79.8125 C42.64296907 85.19080543 47.99204105 90.56230823 52.97558594 96.38232422 C56.15903751 99.97165225 59.6338972 103.27231434 63.0625 106.625 C69.40436542 112.90358965 75.26194141 119.21753876 80.6875 126.3125 C81.4815625 127.3128125 82.275625 128.313125 83.09375 129.34375 C117.4541921 172.8096092 135.50528464 225.19000165 153.91015625 276.71484375 C159.67803795 292.88373819 159.67803795 292.88373819 165.6640625 308.97265625 C165.93205658 309.69279404 166.20005066 310.41293182 166.47616577 311.15489197 C168.26419958 315.81728866 168.26419958 315.81728866 171.6875 319.3125 C172.3475 319.3125 173.0075 319.3125 173.6875 319.3125 C172.13788872 278.94512619 157.65798934 238.54324253 140.6875 202.3125 C140.25211914 201.37986328 139.81673828 200.44722656 139.36816406 199.48632812 C122.46679361 163.64880974 99.62453965 131.06166364 72.9765625 101.82421875 C71.37544881 100.06736533 69.7879635 98.29803849 68.2109375 96.51953125 C57.66229206 84.74176635 46.09987103 74.10448159 33.6875 64.3125 C32.54103436 63.38619872 31.39523747 62.45906932 30.25 61.53125 C19.02072876 51.94245798 19.02072876 51.94245798 5.6875 46.3125 Z M-132.3125 432.3125 C-133.04279419 432.55055359 -133.77308838 432.78860718 -134.5255127 433.03387451 C-165.91916997 443.29543963 -196.34482894 455.38756151 -226.3125 469.3125 C-226.94961914 469.608078 -227.58673828 469.90365601 -228.24316406 470.20819092 C-232.1692855 472.03227065 -236.08723999 473.87264173 -239.99655151 475.73248291 C-241.80277023 476.59068109 -243.61237951 477.44173219 -245.42211914 478.29248047 C-259.67452712 484.99906175 -259.67452712 484.99906175 -271.3125 495.3125 C-270.96169478 497.41716606 -270.96169478 497.41716606 -270.3125 499.3125 C-261.91508494 496.62993482 -253.51943815 493.94186571 -245.125 491.25 C-244.4899995 491.04639862 -243.85499901 490.84279724 -243.20075607 490.63302612 C-226.94296907 485.41914827 -210.70698593 480.14895811 -194.52484131 474.70385742 C-120.46100342 449.79015735 -45.38075518 425.99863329 31.6875 412.3125 C32.35078308 412.19299988 33.01406616 412.07349976 33.69744873 411.95037842 C88.48620937 402.09910828 144.91285295 398.96559633 200.42578125 395.40625 C201.36471725 395.34562378 202.30365326 395.28499756 203.27104187 395.22253418 C253.4822735 392.08612833 303.64848662 390.95439886 353.94314224 390.99882013 C359.13467572 391.00223927 364.32607239 390.99286981 369.51757812 390.97631836 C452.01452183 390.7206428 534.33143408 394.91324187 616.70828247 398.96092987 C631.74269411 399.69951101 646.77729909 400.43389396 661.8125 401.15625 C662.79212708 401.2033247 663.77175415 401.2503994 664.78106689 401.2989006 C694.70180631 402.73384793 724.62577518 403.9811407 754.5625 405.03125 C755.84953701 405.07668096 755.84953701 405.07668096 757.16257477 405.12302971 C790.17549779 406.28723763 823.19994545 407.21883754 856.23046875 407.69921875 C857.52455375 407.71813643 857.52455375 407.71813643 858.84478188 407.73743629 C863.37931419 407.80287475 867.91387713 407.86519125 872.44848633 407.92504883 C876.08599044 407.97374125 879.72328775 408.02945901 883.3605957 408.09106445 C905.59952739 408.46482626 927.517256 408.28206757 949.6875 406.3125 C951.89410267 406.12287582 954.10072655 405.93349826 956.30737305 405.74438477 C958.20493136 405.5797741 960.10247433 405.41498645 962 405.25 C974.21400023 404.18844806 986.4353016 403.69694398 998.6875 403.3125 C998.85956354 400.40642353 998.85956354 400.40642353 998.6875 397.3125 C992.7901657 390.8790444 983.88243919 390.73275329 975.6875 390.3125 C968.69119065 390.09722894 961.74612121 390.28958128 954.76163197 390.66729259 C944.35630488 391.21440769 933.96670607 391.42701453 923.5480957 391.4284668 C922.79155217 391.42879327 922.03500863 391.42911975 921.25553954 391.42945611 C905.10931958 391.42076926 889.01260691 390.82185263 872.88677907 390.06319928 C868.91222114 389.87823059 864.9372259 389.70314226 860.96226501 389.52708435 C854.14321848 389.22413517 847.32438762 388.91672059 840.50567627 388.60632324 C823.17899995 387.8185021 805.85081049 387.06476922 788.522542 386.31290674 C786.65325292 386.23178931 784.7839667 386.15060569 782.91468334 386.06935644 C744.55305295 384.40209812 706.18689658 382.90333879 667.8125 381.5625 C666.72633392 381.52450342 666.72633392 381.52450342 665.6182251 381.48573923 C622.37595938 379.97419179 579.12957938 378.66779534 535.875 377.5625 C534.11635494 377.51746086 534.11635494 377.51746086 532.3221817 377.47151184 C516.86604271 377.07717146 501.40937357 376.71542724 485.9517746 376.38333511 C482.69308844 376.31262127 479.43446443 376.2394623 476.17584229 376.16586304 C434.70492104 375.23937126 393.24141157 375.12443617 351.76214772 375.1273886 C345.48301494 375.12708448 339.20392487 375.11886981 332.92480469 375.10668945 C232.63202656 374.91661266 132.44646276 378.57840688 -132.3125 432.3125 Z " fill="#FFFFFF" transform="translate(915.3125,111.6875)"/>
<path d="M0 0 C1.12462646 0.01732178 2.24925293 0.03464355 3.40795898 0.05249023 C19.87282379 0.52298335 31.17183612 6.22115346 42.59765625 18.12890625 C63.74748625 42.75758679 71.34929838 79.94789019 69.43359375 111.609375 C68.18348774 127.36663392 64.90036225 144.78279721 52.87890625 156.078125 C49.16501246 158.59377498 45.02769674 159.88258036 40.7734375 161.2265625 C37.02797033 162.84801791 35.12685715 164.27583414 32.6875 167.5625 C32.18517082 170.60455561 32.02238477 172.96871559 32.125 176 C32.14232178 176.86560547 32.15964355 177.73121094 32.17749023 178.62304688 C32.81339764 197.25044136 36.18886222 215.80243697 39.57028198 234.10205078 C39.85111497 235.62833352 40.12636238 237.1556574 40.39529419 238.68408203 C43.05934546 253.67262674 48.39184138 266.79174 56.625 279.625 C57.17075684 280.49294189 57.71651367 281.36088379 58.27880859 282.25512695 C63.23765957 290.05227678 68.54174233 297.60169085 73.8581543 305.15722656 C95.20835881 335.61674789 95.20835881 335.61674789 94.8125 346.125 C93.5317334 353.37413894 88.59573344 359.59706871 82.9140625 364.08984375 C71.60799683 371.56771525 59.90361824 375.76609835 46.28125 375.62890625 C45.04052734 375.61931885 43.79980469 375.60973145 42.52148438 375.59985352 C41.58626953 375.58752686 40.65105469 375.5752002 39.6875 375.5625 C41.41705442 485.21956126 41.41705442 485.21956126 84.78466797 583.82910156 C97.84603274 602.59161631 110.62318435 621.48284066 119.6875 642.5625 C120.93402344 642.51609375 122.18054688 642.4696875 123.46484375 642.421875 C159.60130548 641.47495892 185.11851699 660.66362668 212.30859375 682.22265625 C220.80220331 688.93909461 229.17567267 695.3265143 238.6875 700.5625 C239.49058594 701.01753906 240.29367187 701.47257812 241.12109375 701.94140625 C275.16392208 719.31686583 320.39794096 718.30338845 357.8482666 720.6965332 C500.39689597 729.83111198 500.39689597 729.83111198 536.6875 768.5625 C537.55538583 769.634874 538.41262141 770.71613834 539.25 771.8125 C548.12869122 781.82948497 562.94125524 786.64017739 575.05102539 791.61694336 C596.88668662 800.60502483 613.98965508 812.97117996 623.30554199 835.29107666 C630.57124279 853.76812286 630.13433475 873.25090556 630.19873047 892.78100586 C629.32483288 915.49276104 629.32483288 915.49276104 639.375 934.8125 C639.90738281 935.39330322 640.43976563 935.97410645 640.98828125 936.57250977 C642.53515198 938.25552567 644.10831687 939.90986649 645.6875 941.5625 C658.28286774 955.25311711 658.28286774 955.25311711 658.82421875 964.36328125 C658.57973661 968.29595111 657.42834773 970.8542039 654.6875 973.5625 C621.43328115 997.70517896 547.90246462 992.19674689 508.72265625 994.49609375 C507.9995021 994.53878387 507.27634795 994.581474 506.53128004 994.62545776 C482.9383521 996.01747045 459.34114678 997.17166484 435.7265625 998.125 C434.60758328 998.17023682 434.60758328 998.17023682 433.46599841 998.21638751 C420.5558542 998.7373891 407.64500538 999.24025809 394.73400879 999.73962402 C308.03542586 1003.09451205 221.62744943 1009.76851078 135.11666203 1016.26760006 C-52.06370357 1030.32811338 -52.06370357 1030.32811338 -135.63146973 1034.30267334 C-140.58930773 1034.54089199 -145.5465539 1034.79097994 -150.50390625 1035.0390625 C-160.37387643 1035.53090204 -170.24465141 1036.00324517 -180.11628723 1036.46037292 C-182.15615535 1036.55522975 -184.19594036 1036.65186951 -186.23571777 1036.74865723 C-187.40284302 1036.80356323 -188.56996826 1036.85846924 -189.77246094 1036.91503906 C-190.74229919 1036.96098206 -191.71213745 1037.00692505 -192.71136475 1037.05426025 C-196.61523629 1037.2159392 -200.51948459 1037.34560952 -204.42479706 1037.46713066 C-206.22290672 1037.52651507 -208.02080405 1037.59340561 -209.8181839 1037.67183113 C-227.5324415 1038.41377677 -244.54942635 1035.81660671 -261.96073604 1032.98728609 C-266.2309916 1032.29769465 -270.50461377 1031.62955209 -274.77784729 1030.95870972 C-282.26152407 1029.78114336 -289.74314984 1028.59122642 -297.22354126 1027.39297485 C-309.24276761 1025.46799992 -321.26592169 1023.56830946 -333.28979492 1021.67260742 C-337.52148574 1021.00518657 -341.75315489 1020.33762836 -345.9848175 1019.67002869 C-347.05338885 1019.50146939 -348.1219602 1019.33291009 -349.22291249 1019.15924293 C-357.01530348 1017.9297482 -364.80714031 1016.69677735 -372.59880066 1015.46266174 C-409.72373718 1009.58419731 -446.86149605 1003.79022828 -484.00390625 998.0234375 C-485.44543093 997.79961094 -486.88695559 997.57578429 -488.32848024 997.35195756 C-503.37397003 995.01590514 -518.41968453 992.68130221 -533.46551953 990.34747434 C-550.4049524 987.7199122 -567.34392435 985.08938982 -584.28269954 982.45759147 C-587.66617018 981.93190093 -591.0496452 981.40623855 -594.43311977 980.88057327 C-598.3731327 980.26844032 -602.31314522 979.65630473 -606.2531566 979.0441618 C-618.34636741 977.16530348 -630.43961311 975.28666997 -642.53294992 973.40862286 C-644.63736765 973.08180141 -646.74178024 972.75494694 -648.84618711 972.42805564 C-650.80059619 972.12446746 -652.75505245 971.82118293 -654.70956147 971.51823884 C-656.51387554 971.23750901 -658.31785207 970.95459867 -660.12143695 970.66922158 C-663.87543928 970.07763089 -667.62378615 969.50926539 -671.39760399 969.05917931 C-672.56195787 968.91261202 -673.72631176 968.76604473 -674.9259491 968.61503601 C-675.89441363 968.50819331 -676.86287817 968.40135061 -677.86069012 968.29127026 C-680.99458732 967.35975795 -682.13667504 965.96943146 -684.0625 963.375 C-687.10200359 957.60820769 -687.8678042 953.03588003 -686.3125 946.6875 C-684.42348944 941.02046831 -681.10153694 937.0868352 -677.3125 932.5625 C-675.8777631 930.70129085 -674.46135515 928.82582564 -673.0625 926.9375 C-672.09570312 925.64972656 -672.09570312 925.64972656 -671.109375 924.3359375 C-667.20243502 918.30566057 -665.77936183 912.90462831 -665.15625 905.85546875 C-665.03703186 904.61823311 -665.03703186 904.61823311 -664.91540527 903.35600281 C-664.16920063 895.04740309 -663.96392579 886.74184168 -663.84945679 878.40435791 C-662.85957226 810.65571246 -662.85957226 810.65571246 -645.4375 793.0625 C-640.46817453 789.11319397 -634.56007615 786.76046445 -628.69580078 784.4375 C-618.74657297 780.42106275 -613.58759909 772.26301119 -608.08862305 763.4074707 C-600.97284835 752.00261187 -594.04668445 744.31490202 -580.6328125 741.08203125 C-572.44264786 739.24698288 -564.21389819 738.36135278 -555.875 737.5625 C-555.02249664 737.47912384 -554.16999329 737.39574768 -553.29165649 737.30984497 C-516.88366687 733.78745577 -480.29972394 732.56451107 -443.76244354 731.1568985 C-416.08437459 730.09043794 -388.42426563 729.00403446 -360.81060791 726.76245117 C-358.23809005 726.55654415 -355.6648507 726.36257108 -353.09130859 726.16992188 C-348.86380591 725.84856741 -344.64178652 725.4856481 -340.42062378 725.08981323 C-338.8844406 724.94987466 -337.34722825 724.8206855 -335.80911255 724.70388794 C-325.79662569 723.9251468 -319.58081054 721.70209717 -312.3125 714.5625 C-310.88164063 713.41007812 -310.88164063 713.41007812 -309.421875 712.234375 C-305.00236606 708.63437765 -300.62911674 704.99015966 -296.31567383 701.26416016 C-269.53832646 678.13742177 -240.54089415 655.37435976 -203.3125 656.5625 C-203.16554688 655.72589844 -203.01859375 654.88929688 -202.8671875 654.02734375 C-201.07081714 644.704801 -198.27041475 636.18502186 -194.3125 627.5625 C-194.0326123 626.95196777 -193.75272461 626.34143555 -193.46435547 625.71240234 C-186.92817766 611.83351668 -178.02647515 599.27549956 -169.58076477 586.51867676 C-128.34605974 524.16161715 -128.97415021 447.75052615 -128.3125 375.5625 C-129.52413818 375.44495361 -130.73577637 375.32740723 -131.98413086 375.20629883 C-133.60274249 375.04027234 -135.22131126 374.87382749 -136.83984375 374.70703125 C-137.6349939 374.63101685 -138.43014404 374.55500244 -139.24938965 374.47668457 C-154.0629751 372.91995135 -168.11337745 366.53675586 -178.3125 355.5625 C-182.23121811 350.23220064 -183.26107842 345.06032653 -182.3125 338.5625 C-180.04988968 331.14189843 -176.24404918 324.90859822 -171.875 318.5625 C-171.26172852 317.65677246 -170.64845703 316.75104492 -170.01660156 315.81787109 C-165.44869378 309.11131998 -160.72113328 302.52603042 -155.94555664 295.96655273 C-144.67158468 280.6059423 -144.67158468 280.6059423 -136.3125 263.5625 C-135.90644531 262.54027344 -135.50039063 261.51804687 -135.08203125 260.46484375 C-127.82275477 240.65260302 -125.83540483 219.44845791 -123.50402832 198.61898804 C-119.63204764 164.20159527 -119.63204764 164.20159527 -115.3125 155.5625 C-116.0034375 155.32144531 -116.694375 155.08039063 -117.40625 154.83203125 C-136.96099503 146.28997193 -152.93019935 126.62461396 -161.16015625 107.54296875 C-165.55953784 96.16422926 -166.00721027 83.91386719 -161.625 72.42578125 C-152.38057962 52.25863798 -135.98477973 40.49449346 -116.3125 31.5625 C-115.53841797 31.20881348 -114.76433594 30.85512695 -113.96679688 30.49072266 C-99.45556745 24.00113898 -84.35953862 19.13911318 -69.23135376 14.31933594 C-67.03447178 13.61940827 -64.8389148 12.91530469 -62.64486694 12.20654297 C-42.52255293 5.73210987 -21.34062706 -0.5656389 0 0 Z M249.66064453 723.02783203 C248.86424561 723.18400497 248.06784668 723.34017792 247.24731445 723.50108337 C245.51569489 723.84117506 243.78448883 724.18337738 242.05365372 724.52743912 C239.27107918 725.08009081 236.48729193 725.6262106 233.70309448 726.17062378 C225.78446892 727.72016369 217.86799627 729.280547 209.95263672 730.84667969 C175.15724599 737.72503283 140.34757508 743.85243875 105.0625 747.625 C103.96005951 747.74501373 102.85761902 747.86502747 101.72177124 747.98867798 C6.23296902 758.34513477 -90.41594244 763.14648004 -186.375 757.1875 C-187.3178183 757.13032806 -188.2606366 757.07315613 -189.23202515 757.01425171 C-195.93172496 756.60191852 -202.62278938 756.11348516 -209.3125 755.5625 C-210.36882629 755.47649536 -211.42515259 755.39049072 -212.51348877 755.30187988 C-231.31138097 753.70452162 -249.55063977 750.41519825 -267.97045898 746.50506592 C-271.48624602 745.76131018 -275.00489098 745.03135091 -278.5234375 744.30078125 C-279.90710786 744.01329549 -281.29076985 743.72576944 -282.67442322 743.4382019 C-283.34842604 743.29812588 -284.02242886 743.15804985 -284.716856 743.0137291 C-286.70685832 742.59947804 -288.69650401 742.18355503 -290.68605042 741.76712036 C-313.35758242 735.27340449 -313.35758242 735.27340449 -335.3125 738.5625 C-335.3125 740.5425 -335.3125 742.5225 -335.3125 744.5625 C-329.1751296 746.99631582 -323.02989669 748.80007031 -316.6328125 750.41796875 C-315.60409531 750.68076126 -314.57537811 750.94355377 -313.51548767 751.21430969 C-310.15807861 752.06737921 -306.79831614 752.91045743 -303.4375 753.75 C-302.28168427 754.03907227 -301.12586853 754.32814453 -299.93502808 754.62597656 C-244.83215369 768.34200556 -189.61022045 775.87954696 -132.84106445 777.06518555 C-130.01177766 777.12475204 -127.18266235 777.19000833 -124.35351562 777.25585938 C-27.06157085 779.43099392 73.94370862 776.04799991 260.97265625 725.484375 C262.90942488 723.74306771 262.90942488 723.74306771 262.6875 721.5625 C258.20897038 721.35724859 254.02751491 722.14968532 249.66064453 723.02783203 Z M-627.3125 801.5625 C-627.33323266 803.61802424 -627.33323266 803.61802424 -626.3125 805.5625 C-620.39539772 809.21536425 -613.09582017 810.47307386 -606.32421875 811.6015625 C-604.89984749 811.84829208 -604.89984749 811.84829208 -603.44670105 812.1000061 C-591.72066453 814.0769904 -579.93070898 815.53151399 -568.125 816.9375 C-566.75552477 817.10191411 -565.3860589 817.26640616 -564.01660156 817.43096924 C-474.15761481 828.19992725 -384.04273297 836.97569134 -275.9609375 847.87255859 C-275.07850309 847.96141429 -274.19606869 848.05026999 -273.28689384 848.14181828 C-255.29586626 849.95307057 -237.3041059 851.75699353 -219.3125 853.5625 C-218.9825 895.1425 -218.6525 936.7225 -218.3125 979.5625 C-220.9525 978.9025 -223.5925 978.2425 -226.3125 977.5625 C-227.81836621 977.27701598 -229.32901283 977.01424172 -230.84520626 976.78998375 C-231.6536158 976.66843036 -232.46202533 976.54687698 -233.29493213 976.42164016 C-234.58933967 976.23315548 -234.58933967 976.23315548 -235.90989685 976.04086304 C-236.84834198 975.90094004 -237.78678711 975.76101704 -238.75366998 975.61685395 C-241.89048949 975.150135 -245.02811667 974.68909468 -248.16577148 974.22802734 C-250.43087938 973.89219625 -252.69593492 973.55601194 -254.96094227 973.2195034 C-261.14964824 972.30106828 -267.33907133 971.38754947 -273.52862072 970.47481823 C-279.45160865 969.60057503 -285.37403224 968.72252837 -291.29646029 967.84450227 C-303.25125726 966.07226383 -315.20656947 964.30352579 -327.16220093 962.53692627 C-344.71908118 959.94263919 -362.27527236 957.34371012 -379.83129883 954.74365234 C-381.29522263 954.52684921 -382.75914652 954.3100467 -384.2230705 954.09324479 C-396.02474194 952.34545383 -396.02474194 952.34545383 -401.77796835 951.49336207 C-409.8220098 950.30200543 -417.86610295 949.11099884 -425.91025483 947.92038808 C-461.27098022 942.68664292 -496.62922121 937.43679571 -531.98171115 932.14764547 C-535.88494558 931.56372559 -539.78822383 930.98009892 -543.69150084 930.39646375 C-559.54247057 928.02626607 -575.39323334 925.65471468 -591.24269378 923.27444315 C-597.53793973 922.32919007 -603.83354783 921.38637644 -610.12945378 920.44552946 C-614.34426813 919.81553343 -618.55861443 919.18253332 -622.77258438 918.54691494 C-625.85731358 918.08256548 -628.94274356 917.62291805 -632.02807617 917.16259766 C-633.65692828 916.91538751 -633.65692828 916.91538751 -635.31868649 916.66318321 C-636.30968129 916.51624834 -637.3006761 916.36931347 -638.32170105 916.21792603 C-639.17186389 916.09029688 -640.02202673 915.96266773 -640.89795208 915.83117104 C-643.42237898 915.55027357 -645.77639115 915.38205674 -648.3125 915.5625 C-650.62627147 917.45834109 -650.62627147 917.45834109 -652.3125 919.5625 C-651.21194266 923.37212155 -650.42634837 926.0402447 -647.3125 928.5625 C-645.43462959 929.21315631 -645.43462959 929.21315631 -643.32532597 929.45806408 C-642.10429367 929.64338073 -642.10429367 929.64338073 -640.85859406 929.83244115 C-639.96368347 929.95518476 -639.06877287 930.07792837 -638.14674377 930.20439148 C-636.71803745 930.41555761 -636.71803745 930.41555761 -635.26046836 930.63098973 C-632.04709181 931.10278996 -628.8314185 931.55652539 -625.61547852 932.01049805 C-623.30655753 932.34573956 -620.99779737 932.68209027 -618.68918705 933.01946449 C-613.02059211 933.84497067 -607.35041094 934.65883711 -601.6794443 935.46787585 C-594.96364637 936.42666021 -588.24998881 937.40005091 -581.53641108 938.37423979 C-569.31683087 940.14701918 -557.09565989 941.9085822 -544.87350464 943.66351318 C-527.67451932 946.13313734 -510.47770341 948.61762492 -493.28139068 951.10578245 C-486.55444057 952.07906343 -479.82742999 953.05192643 -473.10041809 954.02478027 C-472.36152833 954.13164381 -471.62263857 954.23850735 -470.86135822 954.34860918 C-460.403378 955.86106529 -449.94508585 957.37134773 -439.4865367 958.87986454 C-403.85747146 964.0189261 -368.23305987 969.18808494 -332.6171875 974.41796875 C-330.62755127 974.7100342 -328.6379139 975.00209196 -326.64827538 975.29414177 C-310.37038386 977.6837298 -294.09303793 980.07702069 -277.81619263 982.47372437 C-270.54508977 983.5443631 -263.27371653 984.61314294 -256.00199485 985.67957085 C-251.70377939 986.310043 -247.40593614 986.94296794 -243.10840207 987.57806736 C-239.96574827 988.0417789 -236.8225575 988.50182302 -233.67944336 988.96240234 C-232.56973962 989.12720942 -231.46003588 989.29201651 -230.31670475 989.46181774 C-229.30907802 989.6087523 -228.30145128 989.75568686 -227.26329041 989.90707397 C-226.39657683 990.03470312 -225.52986326 990.16233227 -224.63688564 990.29382896 C-222.04021967 990.63904898 -222.04021967 990.63904898 -218.3125 990.5625 C-218.33570313 991.19414062 -218.35890625 991.82578125 -218.3828125 992.4765625 C-218.53937373 1000.23752625 -218.04355038 1007.97579774 -216.3125 1015.5625 C-215.6525 1015.8925 -214.9925 1016.2225 -214.3125 1016.5625 C-211.40058768 1008.16535749 -209.7160716 1000.43654076 -209.3125 991.5625 C-208.6811854 991.57152689 -208.0498708 991.58055378 -207.39942546 991.58985421 C-199.66688719 991.65055654 -191.99992249 991.26882441 -184.28439808 990.78442478 C-182.88750302 990.69917059 -181.49058993 990.61421159 -180.09366074 990.52951846 C-176.26612013 990.29660814 -172.43884786 990.05952524 -168.61160737 989.821741 C-164.44360303 989.56353383 -160.27535923 989.30924636 -156.10714501 989.05445379 C-148.80552448 988.6075818 -141.50406123 988.15820848 -134.20269585 987.70718765 C-123.34543809 987.03651989 -112.48794575 986.36971062 -101.63040355 985.70366572 C-82.23945204 984.51402028 -62.8487377 983.32054463 -43.45811991 982.1254735 C-26.49095648 981.07977754 -9.52371229 980.03540369 7.44361305 978.99233818 C9.13138725 978.88857986 9.13138725 978.88857986 10.85325789 978.78272541 C15.4206312 978.50194173 19.98800491 978.22116458 24.5553792 977.94039703 C67.40348042 975.30640371 110.25134729 972.66861573 153.09910444 970.02903188 C191.17827943 967.68323156 229.25763726 965.34042179 267.3371582 963.00024414 C277.08953007 962.40090873 286.84190177 961.80157045 296.59427166 961.2022028 C297.79485352 961.12841674 298.99543537 961.05463069 300.2323985 960.97860869 C332.04116891 959.02364134 363.84979382 957.06630953 395.65837318 955.10823625 C399.08021 954.89759717 402.50204687 954.68695888 405.92388381 954.47632183 C408.19388806 954.33658752 410.46389219 954.19685146 412.73389622 954.05711364 C429.6937354 953.01311618 446.65364693 951.97029963 463.61359215 950.9280262 C482.89257853 949.74322366 502.17145047 948.55657734 521.45017441 947.36751182 C532.24410456 946.70181734 543.03811812 946.0375127 553.83225641 945.37520151 C561.03717969 944.93297755 568.24198844 944.48892028 575.44670581 944.04335429 C579.55493643 943.7893374 583.66321227 943.53612372 587.77162846 943.28512443 C591.50878965 943.05678932 595.24579978 942.8261289 598.98270292 942.59360996 C600.96044221 942.47115182 602.93833454 942.35117319 604.91623184 942.23129436 C608.17507394 942.02724365 611.43136875 941.80575352 614.6875 941.5625 C615.52211354 941.50038066 616.35672707 941.43826133 617.21663193 941.37425958 C621.07856683 941.00352933 622.38448013 940.87309537 625.1875 938 C625.6825 937.195625 626.1775 936.39125 626.6875 935.5625 C622.10165123 930.05948148 616.35995477 929.49364425 609.52075195 928.77856445 C527.20336831 922.50102162 440.73779248 938.20538089 358.69921899 945.34386635 C172.62639102 961.53461487 172.62639102 961.53461487 -96.3125 977.5625 C-97.09965393 977.5893689 -97.88680786 977.61623779 -98.69781494 977.6439209 C-117.26326572 978.27676061 -135.83244159 978.58177253 -154.40625 978.84375 C-155.56096046 978.86004204 -155.56096046 978.86004204 -156.73899841 978.87666321 C-174.59655859 979.1266076 -192.45458069 979.33967391 -210.3125 979.5625 C-210.3125 937.9825 -210.3125 896.4025 -210.3125 853.5625 C-190.1825 853.5625 -170.0525 853.5625 -149.3125 853.5625 C-138.53289845 853.38208826 -127.77195907 853.17783048 -117 852.8125 C-115.63326956 852.76853403 -114.26652925 852.72487408 -112.89978027 852.68148804 C-102.3692532 852.34565746 -91.84069548 851.96442049 -81.3125 851.5625 C-80.51768471 851.53230019 -79.72286942 851.50210037 -78.90396881 851.47098541 C-1.20405594 848.5112461 76.36727524 843.429497 153.94110274 838.19266987 C156.39547491 838.02701641 158.84985576 837.86149201 161.30423927 837.69600677 C176.5984641 836.66473704 191.89263974 835.6329327 207.18549329 834.58149624 C267.48850248 830.43601937 327.8056871 826.97292763 388.20175362 824.49505329 C442.2683081 822.27633138 496.12467965 819.66163282 549.921875 813.61328125 C551.15309837 813.47603386 551.15309837 813.47603386 552.40919495 813.33601379 C556.21228831 812.89883575 559.94564329 812.39501164 563.6875 811.5625 C561.41828275 804.88833161 558.06426671 800.73398464 551.6640625 797.55859375 C543.1388132 794.17789144 534.49679661 794.37511614 525.45703125 794.39453125 C524.74269236 794.39507822 524.02835346 794.39562519 523.29236794 794.39618874 C504.55336388 794.42910972 485.84963266 795.2662692 467.13366699 796.12530518 C463.57617662 796.28610771 460.0182984 796.43697987 456.46037865 796.58792686 C379.28322088 799.88136727 302.22845991 805.53055887 225.1875 811.0625 C206.96918185 812.37066988 188.75064071 813.67559256 170.53125 814.96875 C168.87305469 815.08649658 168.87305469 815.08649658 167.18136048 815.20662189 C123.03638613 818.33851167 78.87350506 821.08090577 34.6875 823.5625 C33.91594818 823.60583859 33.14439636 823.64917718 32.34946418 823.69382906 C24.20456808 824.15107549 16.0595445 824.60599523 7.91439819 825.0587616 C-25.28856293 826.90648938 -58.46604777 829.06061679 -91.64144611 831.34948921 C-95.33804401 831.60444899 -99.0347179 831.85829923 -102.73138618 832.11223602 C-105.24241726 832.2854402 -107.75328492 832.46087158 -110.2641449 832.63653564 C-126.72054909 833.77689169 -143.1865144 834.60828583 -159.67626953 835.06518555 C-161.81425294 835.12504908 -163.95202868 835.19028671 -166.08984375 835.25585938 C-240.53009804 837.44392786 -314.33733092 827.40671371 -387.79296875 816.51171875 C-389.02447159 816.32915905 -390.25597443 816.14659935 -391.52479553 815.95850754 C-404.02464744 814.10471336 -416.52337329 812.24389175 -429.01827621 810.35700607 C-454.42057828 806.5237235 -479.83248103 802.87520097 -505.32421875 799.68359375 C-506.46076212 799.54048704 -507.59730549 799.39738033 -508.76828957 799.24993706 C-571.02410283 787.02190629 -571.02410283 787.02190629 -627.3125 801.5625 Z " fill="#FFFFFF" transform="translate(771.3125,1295.4375)"/>
<path d="M0 0 C1.010625 0.721875 2.02125 1.44375 3.0625 2.1875 C16.43556641 13.85578457 23.38059871 32.33449961 24.875 49.67578125 C26.19634228 74.24448922 19.91320191 95.20232769 4 114 C3.54238281 114.60328125 3.08476563 115.2065625 2.61328125 115.828125 C-8.25765849 129.80038389 -26.17748686 138.80533542 -43.390625 141.6015625 C-70.45054954 144.58869703 -95.27170002 134.75820969 -116.22290039 118.07861328 C-121.65945069 113.61023708 -125.98371074 108.61216855 -130.2734375 103.0546875 C-132.94042422 99.87269645 -136.05002858 97.61479292 -139.5625 95.4375 C-140.17891357 95.05110352 -140.79532715 94.66470703 -141.43041992 94.26660156 C-147.05276101 90.82650711 -152.76572191 88.16213321 -159 86 C-160.134375 85.60425781 -161.26875 85.20851563 -162.4375 84.80078125 C-194.96928391 74.13150545 -245.28452466 60.69437857 -277.4375 76.75 C-283.45961051 79.89862715 -288.95884424 83.41074067 -294 88 C-294.72960937 88.66128906 -295.45921875 89.32257813 -296.2109375 90.00390625 C-300.97373555 94.53458237 -304.57932111 98.42422941 -305.375 105.1875 C-305.21894832 107.95807373 -305.21894832 107.95807373 -303.8125 109.75 C-282.34550147 124.55482657 -237.22380267 111.06793466 -213.3112793 106.98193359 C-212.15293579 106.7862252 -212.15293579 106.7862252 -210.97119141 106.58656311 C-209.52391592 106.34142471 -208.07731904 106.09222957 -206.6315918 105.83811951 C-202.70917265 105.17539612 -198.97631994 104.88081454 -195 105 C-194.75036969 121.91725402 -195.03689107 138.73180887 -195.9375 155.625 C-196.00284943 156.8829538 -196.00284943 156.8829538 -196.06951904 158.1663208 C-196.19577955 160.56174529 -196.32867984 162.95668235 -196.46484375 165.3515625 C-196.50344009 166.06699219 -196.54203644 166.78242188 -196.58180237 167.51953125 C-196.77796951 170.78280318 -197.03906135 173.86525823 -198 177 C-199.29357422 177.25910156 -199.29357422 177.25910156 -200.61328125 177.5234375 C-212.15731009 180.18088025 -221.74353391 185.18218072 -232 191 C-233.20970459 191.6811084 -233.20970459 191.6811084 -234.44384766 192.37597656 C-239.65575297 195.31474764 -244.84264122 198.2956077 -250.02441406 201.28710938 C-253.8302236 203.4779167 -257.64566874 205.65163134 -261.46131897 207.82524109 C-276.0283949 216.12455906 -290.54868022 224.50034777 -305 233 C-305.91839661 233.53944244 -305.91839661 233.53944244 -306.85534668 234.08978271 C-342.15435726 254.82399029 -377.24184724 276.38196968 -410 301 C-410.56944336 301.42603516 -411.13888672 301.85207031 -411.72558594 302.29101562 C-418.2391944 307.18097505 -424.60487429 312.25389954 -430.9375 317.375 C-431.83106201 318.09623047 -431.83106201 318.09623047 -432.74267578 318.83203125 C-434.84080144 320.54025938 -436.92221553 322.26706371 -439 324 C-439.74172958 324.61625748 -439.74172958 324.61625748 -440.4984436 325.2449646 C-449.08701704 332.4048568 -457.22071565 339.9014525 -465.09741211 347.83666992 C-466.82248477 349.57254731 -468.55811991 351.2973509 -470.29492188 353.02148438 C-476.97389579 359.69168623 -483.19206282 366.54259385 -489 374 C-489.55147705 374.69746338 -490.1029541 375.39492676 -490.67114258 376.11352539 C-497.89052353 385.31820705 -504.26790328 394.80840753 -510 405 C-510.34514648 405.60134766 -510.69029297 406.20269531 -511.04589844 406.82226562 C-533.97999322 446.91924636 -537.93565506 492.69293377 -526 537 C-522.15466157 550.49689905 -517.03627595 563.34556755 -511 576 C-510.68450195 576.66805664 -510.36900391 577.33611328 -510.04394531 578.02441406 C-495.1876046 609.29200783 -475.05385034 638.04940586 -452.42578125 664.17578125 C-450.13560616 666.84212037 -447.93903268 669.56300997 -445.75 672.3125 C-440.13340036 679.21519043 -433.96051387 685.59769819 -427.84277344 692.05273438 C-416.70875417 703.81809443 -405.97072304 715.88060917 -395.9140625 728.5859375 C-389.25771506 736.98108591 -382.35308171 745.16678352 -375.41601562 753.32958984 C-373.99681397 755.00375841 -372.58349229 756.68271475 -371.171875 758.36328125 C-366.22214775 764.2504438 -361.20857728 770.0564996 -356.03515625 775.75 C-354.22622457 777.74989375 -352.45108199 779.77269432 -350.6875 781.8125 C-346.10597777 787.06653926 -341.35035986 792.16021236 -336.60498047 797.265625 C-335.09386075 798.89857214 -333.59432591 800.54131542 -332.09765625 802.1875 C-323.85304083 811.20109843 -315.25262375 819.85553847 -306.625 828.5 C-306.01317871 829.11440948 -305.40135742 829.72881897 -304.77099609 830.36184692 C-295.99667075 839.17174453 -295.99667075 839.17174453 -286.7578125 847.48730469 C-283.63461496 850.17498968 -280.67740219 853.04105811 -277.6875 855.875 C-272.46533366 860.79040063 -267.15100768 865.44520096 -261.546875 869.921875 C-258.9299167 872.05718453 -256.43157221 874.28530363 -253.9375 876.5625 C-249.12509075 880.9367307 -244.11800125 884.99077664 -239 889 C-238.00871094 889.78632812 -237.01742188 890.57265625 -235.99609375 891.3828125 C-221.08679837 903.19594271 -206.08643541 914.9150014 -190.26318359 925.48632812 C-187.67609414 927.21663607 -185.0981209 928.96017711 -182.51953125 930.703125 C-150.80923147 953.78895656 -150.80923147 953.78895656 -116 971 C-120.54427101 965.55967555 -125.40003739 960.50918718 -130.47167969 955.56542969 C-133.22461423 952.86018088 -135.82712854 950.08428495 -138.34765625 947.16015625 C-142.18768163 942.72319202 -146.27844924 938.57408964 -150.4375 934.4375 C-151.50581055 933.36338867 -151.50581055 933.36338867 -152.59570312 932.26757812 C-156.65900514 928.21165722 -160.82801659 924.35359057 -165.17602539 920.60571289 C-167.7424033 918.34643468 -170.1109517 915.94661573 -172.5 913.5 C-176.13559136 909.81511037 -179.84612967 906.29264096 -183.78515625 902.93359375 C-186.1134504 900.900956 -188.37176733 898.80584597 -190.63012695 896.69628906 C-196.05812053 891.62669587 -201.59271244 886.79818321 -207.38671875 882.14453125 C-209.99847623 880.00125044 -212.50365302 877.7761967 -215 875.5 C-218.34133363 872.45812552 -221.7411601 869.53458501 -225.25 866.6875 C-234.53035357 859.15542834 -243.66424839 851.55692045 -252.015625 842.9921875 C-254.42656857 840.57175202 -256.97821466 838.36707297 -259.5703125 836.14453125 C-262.94544108 833.16551905 -266.21768898 830.08057563 -269.5 827 C-273.91339144 822.8611026 -278.34509462 818.76981027 -282.9296875 814.8203125 C-287.48122993 810.81839029 -291.89177947 806.65646789 -296.33740234 802.53759766 C-298.90513211 800.16291894 -301.4831814 797.7995771 -304.0625 795.4375 C-304.80197876 794.75989624 -304.80197876 794.75989624 -305.55639648 794.06860352 C-307.99950073 791.83039188 -310.44432882 789.59409962 -312.890625 787.359375 C-334.83619191 767.29150366 -334.83619191 767.29150366 -343.11451721 758.8530426 C-344.90371942 757.09462405 -346.74708151 755.4622544 -348.65600586 753.83569336 C-353.32557137 749.77381792 -357.69717742 745.44683288 -362.06640625 741.06640625 C-362.90413071 740.22963852 -363.74185516 739.39287079 -364.60496521 738.53074646 C-366.36506935 736.77131896 -368.12392677 735.01064347 -369.8815918 733.2487793 C-372.55470972 730.57030589 -375.23312251 727.89721127 -377.91210938 725.22460938 C-379.63052903 723.50552885 -381.34863842 721.78613811 -383.06640625 720.06640625 C-383.85825821 719.27657852 -384.65011017 718.48675079 -385.46595764 717.67298889 C-389.62122844 713.5003572 -393.62079454 709.25555026 -397.44102478 704.77305603 C-399.05750836 702.9345945 -400.75234621 701.21354869 -402.5 699.5 C-405.53594925 696.51127663 -408.34508659 693.38293521 -411.125 690.15625 C-413.17359094 687.80037042 -415.27203002 685.4949254 -417.375 683.1875 C-422.10615345 677.93862774 -426.55876785 672.49437924 -431 667 C-432.01082767 665.76879913 -433.02260049 664.53837382 -434.03515625 663.30859375 C-452.63583047 640.67491815 -469.83107906 616.68523988 -484 591 C-484.43328613 590.22624023 -484.86657227 589.45248047 -485.31298828 588.65527344 C-510.13721061 544.07191984 -524.87695722 490.81138246 -511.05053711 440.26171875 C-504.50699356 417.99245775 -493.44113081 398.10995863 -479 380 C-478.29488281 379.1028125 -477.58976562 378.205625 -476.86328125 377.28125 C-464.3982496 361.70555516 -450.26250486 346.84978207 -435 334 C-433.25231482 332.48681983 -431.50940913 330.9682216 -429.76635742 329.44970703 C-427.14374949 327.16823803 -424.51174557 324.89773318 -421.87988281 322.62695312 C-420.17172643 321.14862142 -418.47175674 319.66148002 -416.7734375 318.171875 C-382.78162315 288.58949019 -341.18325278 266.89043481 -302.0378418 245.05566406 C-295.54292043 241.43206841 -289.07429053 237.76661871 -282.625 234.0625 C-264.18536251 223.48807711 -245.55805023 213.25036739 -226.84765625 203.1640625 C-222.78186157 200.9703032 -218.7290357 198.7545034 -214.68359375 196.5234375 C-213.66628174 195.96358154 -212.64896973 195.40372559 -211.60083008 194.8269043 C-209.65738459 193.75624744 -207.7157295 192.68233241 -205.77612305 191.60473633 C-204.91414307 191.13060303 -204.05216309 190.65646973 -203.1640625 190.16796875 C-202.40561035 189.74797607 -201.6471582 189.3279834 -200.86572266 188.89526367 C-199 188 -199 188 -197 188 C-196.34956281 189.72744016 -195.70485156 191.4570369 -195.0625 193.1875 C-194.70285156 194.15042969 -194.34320312 195.11335937 -193.97265625 196.10546875 C-191.33798596 203.9459936 -190.33319196 213.33850314 -193.89379883 221.05053711 C-198.3966389 228.98591075 -207.15252929 233.77778911 -214.5625 238.625 C-215.1571405 239.01739868 -215.75178101 239.40979736 -216.36444092 239.81408691 C-227.67817523 247.27902908 -239.21507372 254.30176525 -251 261 C-251.96550781 261.55075195 -252.93101562 262.10150391 -253.92578125 262.66894531 C-272.21588969 273.07722686 -290.77014814 282.99474322 -309.36608887 292.84262085 C-324.23225636 300.71941393 -338.89905925 308.86176781 -353.36962891 317.44677734 C-355.78337525 318.87208403 -358.20660785 320.27861286 -360.63671875 321.67578125 C-382.71987477 334.40230381 -403.95588245 349.02497726 -423 366 C-423.54350098 366.48178711 -424.08700195 366.96357422 -424.64697266 367.45996094 C-458.98497097 398.04674936 -481.79241041 438.37773391 -484.87548828 484.75195312 C-487.51635849 532.4326058 -467.75849602 573.01062409 -439 610 C-438.140625 611.1171875 -437.28125 612.234375 -436.421875 613.3515625 C-427.19195138 625.28451139 -417.38063078 636.65134217 -407.08203125 647.671875 C-404.65638339 650.26947375 -402.29360335 652.91802662 -399.93261719 655.57446289 C-395.11546555 660.92966391 -390.09440282 666.05028524 -384.99609375 671.13671875 C-383.61201073 672.52223686 -383.61201073 672.52223686 -382.19996643 673.93574524 C-380.26456483 675.87260576 -378.3274062 677.8076859 -376.38891602 679.74145508 C-373.92590071 682.19875809 -371.4674263 684.66054759 -369.01025295 687.12369061 C-366.63297682 689.5054811 -364.25186337 691.8834202 -361.87109375 694.26171875 C-360.56452065 695.5713282 -360.56452065 695.5713282 -359.23155212 696.90739441 C-354.85064606 701.27168753 -350.41427491 705.49896417 -345.70814514 709.51203918 C-342.48900384 712.31622485 -339.5537031 715.40361275 -336.578125 718.4609375 C-333.85634055 721.2266217 -331.06583151 723.84197911 -328.125 726.375 C-323.1546647 730.67443452 -318.59896216 735.35027686 -314 740.0390625 C-310.05417823 744.03112437 -306.00286017 747.80954817 -301.75 751.47265625 C-299.73749029 753.22911004 -297.85508105 755.07866605 -296 757 C-292.93882747 760.10246002 -289.76857732 762.98106424 -286.46484375 765.8203125 C-283.08015076 768.81343245 -279.79448292 771.90824829 -276.5 775 C-272.06935739 779.15473981 -267.62404527 783.26797847 -263.01953125 787.23046875 C-260.30513764 789.60884459 -257.65429243 792.05510629 -255 794.5 C-251.0672247 798.12097893 -247.09785777 801.68959108 -243.05859375 805.19140625 C-240.5104335 807.4301125 -238.00589407 809.71410212 -235.5 812 C-231.71337002 815.45328153 -227.8952368 818.86099051 -224.02734375 822.22265625 C-221.66510827 824.29359487 -219.33204147 826.39512848 -217 828.5 C-214.01937279 831.18983431 -211.02754767 833.86310364 -208 836.5 C-204.10209515 839.89494939 -200.26652943 843.35665884 -196.4296875 846.8203125 C-194.3439382 848.69145094 -192.24182372 850.53924831 -190.125 852.375 C-186.15669451 855.82919304 -182.28987441 859.39130558 -178.42016602 862.95483398 C-175.66561908 865.487107 -172.89274925 867.99020203 -170.0625 870.4375 C-165.39555478 874.48605082 -160.8828967 878.69972597 -156.3515625 882.8984375 C-152.80054784 886.18867771 -149.23187129 889.45925029 -145.65014648 892.71606445 C-142.89546732 895.22953611 -140.18507105 897.77893721 -137.51171875 900.37890625 C-129.20275622 908.40617144 -120.50820641 915.12296627 -110.9765625 921.63134766 C-70.6421649 949.56052663 -70.6421649 949.56052663 -67.59375 965.06640625 C-67.4375 967.1875 -67.4375 967.1875 -68 971 C-71.96317115 974.97098805 -76.78564469 976.92102659 -81.875 979.0625 C-82.77557129 979.44752686 -83.67614258 979.83255371 -84.60400391 980.22924805 C-90.16101866 982.55262711 -95.77062996 984.65990786 -101.46875 986.609375 C-102.11269211 986.82971405 -102.75663422 987.0500531 -103.42008972 987.27706909 C-104.73962072 987.72797448 -106.05917556 988.1788101 -107.37875366 988.62957764 C-122.72023622 993.8779487 -138.12566207 999.81731813 -151.3671875 1009.390625 C-154 1011 -154 1011 -156.09765625 1011.05078125 C-167.75709913 1006.66979774 -177.61364994 997.97074563 -187 990 C-187.54269531 989.54222168 -188.08539062 989.08444336 -188.64453125 988.61279297 C-196.03016443 982.37960199 -203.25398553 976.00039221 -210.34765625 969.4375 C-212.47490534 967.48256122 -214.62272252 965.57117955 -216.8125 963.6875 C-221.49806455 959.63060658 -225.98398401 955.35910976 -230.50439453 951.12060547 C-234.26988828 947.59616359 -238.07079166 944.13406818 -241.98046875 940.76953125 C-244.69486193 938.3911558 -247.34572387 935.94491095 -250 933.5 C-253.30022784 930.46105508 -256.60949474 927.43843789 -260 924.5 C-263.93167214 921.09255081 -267.75361244 917.56870327 -271.58032227 914.04467773 C-274.33473428 911.51259884 -277.10742499 909.00964732 -279.9375 906.5625 C-284.07144485 902.97860187 -288.0741839 899.25774393 -292.08618164 895.53881836 C-295.32462268 892.53919077 -298.5829184 889.56592623 -301.875 886.625 C-306.75893679 882.24848521 -311.54659138 877.7729094 -316.33374023 873.29125977 C-320.18088102 869.69154218 -324.04646259 866.11472599 -327.9375 862.5625 C-348.27885177 843.95291196 -348.27885177 843.95291196 -356.8125 835.125 C-358.56611403 833.42148923 -360.33581438 831.86853101 -362.20092773 830.29467773 C-369.11238621 824.25891872 -375.49300998 817.65045838 -381.97265625 811.16015625 C-383.42404351 809.70944381 -384.87557908 808.25887975 -386.32725525 806.80845642 C-389.35887609 803.77830417 -392.38869567 800.74636547 -395.41723633 797.71313477 C-399.2825809 793.84209345 -403.15239825 789.9755596 -407.02358341 786.11036015 C-410.01867737 783.11889448 -413.01136729 780.12503289 -416.00335503 777.13046074 C-417.42865221 775.70450056 -418.85468128 774.2792715 -420.28148079 772.85481453 C-433.74074428 759.4128069 -433.74074428 759.4128069 -438.77684021 753.44334412 C-440.41088387 751.5151518 -442.18268994 749.75464419 -444 748 C-447.17089998 744.87154036 -450.1256996 741.63144648 -453.02734375 738.25390625 C-454.96477787 736.0402439 -456.95129188 733.87774978 -458.95214844 731.72143555 C-463.7611782 726.5369582 -468.31785187 721.22630525 -472.75390625 715.71484375 C-475.0883059 712.89326505 -477.51990598 710.19409288 -480 707.5 C-484.8933621 702.16999944 -489.47297448 696.64216558 -494 691 C-494.91225289 689.87979484 -495.82503803 688.76002295 -496.73828125 687.640625 C-504.83360554 677.67442966 -512.46939487 667.39723376 -520 657 C-520.78141357 655.92878906 -520.78141357 655.92878906 -521.57861328 654.8359375 C-553.40790788 611.12820799 -577.72591312 560.71965547 -578.23828125 505.59375 C-578.24802979 504.71932251 -578.25777832 503.84489502 -578.26782227 502.94396973 C-578.43621805 483.93124357 -578.32411958 465.61558168 -574 447 C-573.81276367 446.15727539 -573.62552734 445.31455078 -573.43261719 444.44628906 C-563.28861566 399.57791616 -537.69010095 357.60488158 -504.7265625 325.7265625 C-503.03658041 324.03658041 -501.51892287 322.28132616 -500 320.4375 C-497.27313735 317.17856659 -494.22647202 314.48827813 -490.9921875 311.7421875 C-489.12494265 310.10926357 -487.40737604 308.41070861 -485.6875 306.625 C-482.03278706 302.91253764 -478.04550476 299.69083874 -473.98828125 296.4296875 C-471.48918801 294.39774502 -469.04241787 292.32017139 -466.60913086 290.21044922 C-458.23163092 282.97683838 -449.38640622 276.3892722 -440.47851562 269.82714844 C-438.22476869 268.16569827 -435.97914229 266.49385725 -433.734375 264.8203125 C-413.32213226 249.72590775 -391.69564335 236.15847247 -370 223 C-369.34499512 222.60200195 -368.68999023 222.20400391 -368.01513672 221.79394531 C-363.69130493 219.17131182 -359.3486693 216.58118552 -355 214 C-354.22172852 213.5369043 -353.44345703 213.07380859 -352.64160156 212.59667969 C-332.30720202 200.50236362 -311.79029292 188.72751223 -291.24423218 176.99761963 C-264.4759505 161.74826306 -264.4759505 161.74826306 -238 146 C-238.72251953 146.06058594 -239.44503906 146.12117187 -240.18945312 146.18359375 C-275.82674626 149.11021921 -310.44562571 151.48738695 -339.703125 127.21484375 C-347.01559907 120.16352947 -351.31180621 112.26478766 -352.015625 102.140625 C-351.90084357 79.06955692 -335.5162093 58.55815917 -320 43 C-298.06118928 21.33585357 -268.78306911 5.86032692 -237.55125427 5.80067444 C-229.75868126 5.88438773 -222.22352654 7.10827682 -214.5625 8.4375 C-186.90769818 13.07839107 -160.62707923 13.32677654 -133 8 C-131.86449707 7.78569336 -130.72899414 7.57138672 -129.55908203 7.35058594 C-116.37213994 4.79467418 -104.44127075 1.71745019 -92.75732422 -4.99316406 C-64.18448748 -21.36359734 -26.48432811 -20.96675975 0 0 Z " fill="#FFFFFF" transform="translate(775,331)"/>
</svg>
