<?xml version="1.0" encoding="UTF-8"?>
<svg version="1.1" xmlns="http://www.w3.org/2000/svg" width="2612" height="1834">
<path d="M0 0 C1.55263046 -0.01058945 1.55263046 -0.01058945 3.1366272 -0.02139282 C25.54894795 -0.1393866 47.61272564 -0.07953744 69.82421875 3.203125 C70.81125793 3.34524414 70.81125793 3.34524414 71.8182373 3.49023438 C137.60065912 12.96234593 200.92708855 32.72395729 264.21455383 52.43844604 C330.19714759 73.0529937 330.19714759 73.0529937 397.82421875 87.015625 C399.08645264 87.2108374 400.34868652 87.4060498 401.64916992 87.60717773 C421.49427537 90.49501351 441.28099652 91.58863838 461.32421875 91.515625 C462.43469574 91.51313751 463.54517273 91.51065002 464.68930054 91.50808716 C485.54361684 91.43662313 506.08352449 90.28233457 526.82421875 88.203125 C528.05903992 88.07963684 529.29386108 87.95614868 530.56610107 87.82891846 C537.81732672 87.10296797 545.06803613 86.37189695 552.31860352 85.6394043 C553.07843001 85.56264623 553.83825651 85.48588816 554.62110806 85.40680408 C558.47955125 85.01677077 562.33787576 84.62560937 566.1960144 84.23257446 C590.06415249 81.80235681 613.92276091 79.66469473 637.87988281 78.31451416 C639.6481194 78.21321356 641.415891 78.10387683 643.18359375 77.99365234 C728.05555701 72.730813 826.32576737 77.33930527 893.3359375 136.03125 C904.40417236 145.97112284 914.73489207 156.4951552 923.5546875 168.48925781 C924.83929844 170.22348258 926.15596732 171.92891671 927.48046875 173.6328125 C979.60614029 241.523092 1003.70512332 334.93362286 1028.95507812 415.2734375 C1030.43713524 419.98493189 1031.93786543 424.69014264 1033.44734192 429.39291382 C1050.30631312 481.9558186 1065.2227543 535.15937358 1079.8519783 588.37898731 C1081.3648873 593.8725601 1082.90117846 599.35892398 1084.45764542 604.8403101 C1085.73186022 609.32988232 1086.99572533 613.82231606 1088.25390625 618.31640625 C1088.49976723 619.19399282 1088.7456282 620.0715794 1088.99893951 620.97575951 C1092.28853711 632.79120898 1095.03412303 644.61368478 1097.36247253 656.65350914 C1102.28852634 688.80876305 1102.28852634 688.80876305 1120.51631165 713.71961975 C1131.38731438 720.07996166 1143.32463647 723.35978077 1155.45068359 726.43798828 C1164.5650386 728.82543025 1172.99738937 732.68725177 1181.55319214 736.57324219 C1185.85368217 738.51117825 1190.19625167 740.34936179 1194.53515625 742.19921875 C1235.05988568 759.61484247 1275.16869885 777.91445887 1313.07519531 800.56542969 C1315.64717583 802.09765396 1318.22943921 803.61044701 1320.81640625 805.1171875 C1369.70720818 833.76795711 1414.71749828 869.11780486 1454.82421875 909.078125 C1455.70867676 909.95791016 1456.59313477 910.83769531 1457.50439453 911.74414062 C1462.48529601 916.7373453 1467.24315636 921.84264575 1471.82421875 927.203125 C1472.74960841 928.25149743 1473.67660984 929.29845009 1474.60546875 930.34375 C1522.61160643 984.96628673 1555.18709189 1051.39537018 1551.82421875 1125.203125 C1551.31644592 1132.30102478 1550.28903115 1139.2423826 1548.82421875 1146.203125 C1548.65792969 1146.99396484 1548.49164062 1147.78480469 1548.3203125 1148.59960938 C1537.68212771 1197.02305053 1504.50930512 1239.30507967 1465.82421875 1269.203125 C1464.63842069 1270.18458099 1463.45642295 1271.17063862 1462.27734375 1272.16015625 C1453.57960994 1279.42850013 1444.55991693 1285.96883629 1435.1484375 1292.28125 C1431.80468845 1294.52426179 1428.54539157 1296.84849687 1425.32421875 1299.265625 C1401.6930786 1316.60232142 1375.25145295 1330.97110106 1349.82275391 1345.48925781 C1346.97976479 1347.11421984 1344.14145681 1348.74702244 1341.3046875 1350.3828125 C1336.15797431 1353.34686571 1330.99675638 1356.2843859 1325.82421875 1359.203125 C1325.01259277 1359.66187012 1324.2009668 1360.12061523 1323.36474609 1360.59326172 C1248.92923176 1402.46047539 1168.20187738 1432.36254316 866.63671875 1480.765625 C865.89768311 1480.78846558 865.15864746 1480.81130615 864.3972168 1480.83483887 C855.9339126 1481.09209977 847.48993284 1481.24430728 839.0234375 1481.08984375 C817.72279444 1480.7344099 796.67478467 1481.83543646 775.44921875 1483.515625 C773.99299191 1483.63063525 772.53676428 1483.74563563 771.08053589 1483.86062622 C770.35700959 1483.91779721 769.6334833 1483.9749682 768.88803196 1484.03387165 C765.23269275 1484.32265231 761.57731665 1484.61095631 757.921875 1484.8984375 C757.19757483 1484.9554653 756.47327465 1485.0124931 755.72702599 1485.07124901 C731.45405393 1486.97554696 707.14932332 1488.19088032 682.82421875 1489.203125 C680.97721375 1489.28143555 680.97721375 1489.28143555 679.09289551 1489.36132812 C601.4356498 1492.62210215 523.47773436 1492.49553041 445.82421875 1489.203125 C444.60061646 1489.15220703 443.37701416 1489.10128906 442.11633301 1489.04882812 C358.71568381 1485.55363829 275.59766414 1477.89248472 192.82421875 1467.203125 C191.61840149 1467.04777283 190.41258423 1466.89242065 189.17022705 1466.73236084 C100.3267471 1455.24153473 10.92219726 1440.25055909 -76.17578125 1419.203125 C-77.21756531 1418.95300659 -78.25934937 1418.70288818 -79.33270264 1418.44519043 C-166.79640967 1397.44065952 -252.25619403 1370.11516425 -335.17578125 1335.203125 C-335.84766479 1334.92057861 -336.51954834 1334.63803223 -337.21179199 1334.34692383 C-346.57936573 1330.40299069 -355.89525772 1326.34715078 -365.17578125 1322.203125 C-365.85979004 1321.89818115 -366.54379883 1321.5932373 -367.24853516 1321.27905273 C-389.17196866 1311.49099955 -410.76010228 1301.05354212 -432.23828125 1290.328125 C-433.36951416 1289.76430115 -434.50074707 1289.20047729 -435.66625977 1288.61956787 C-449.89120458 1281.51925752 -463.95502422 1274.18286246 -477.86416626 1266.48193359 C-479.91249278 1265.34877882 -481.96405324 1264.22196476 -484.01831055 1263.09960938 C-499.19560009 1254.8022909 -514.13892515 1246.17819657 -528.91455078 1237.18603516 C-532.37107875 1235.08437921 -535.83350438 1232.99269193 -539.296875 1230.90234375 C-551.90192358 1223.28832469 -564.45256926 1215.59830799 -576.86523438 1207.67333984 C-579.26004361 1206.14950835 -581.66243338 1204.63823486 -584.06640625 1203.12890625 C-595.50765218 1195.92612188 -606.80251017 1188.51479049 -618.05078125 1181.015625 C-618.73448792 1180.56012268 -619.41819458 1180.10462036 -620.12261963 1179.63531494 C-630.20287576 1172.91463911 -640.20942068 1166.09142331 -650.17578125 1159.203125 C-651.0049707 1158.63134521 -651.83416016 1158.05956543 -652.68847656 1157.47045898 C-664.00025672 1149.64770193 -674.95152658 1141.38153887 -685.84765625 1132.9921875 C-687.82645172 1131.4715695 -689.81092321 1129.95921022 -691.80078125 1128.453125 C-703.60062025 1119.48524736 -715.14488195 1110.14051265 -726.07421875 1100.125 C-727.97614267 1098.38569411 -729.90897857 1096.69549369 -731.86328125 1095.015625 C-743.59619574 1084.7850959 -755.24506633 1074.10790457 -765.37890625 1062.27734375 C-767.35040555 1060.00154782 -769.3871252 1057.79389833 -771.42578125 1055.578125 C-785.02471792 1040.46052535 -797.08803964 1023.66460074 -807.15087891 1006.00195312 C-808.14045833 1004.26512101 -809.14804147 1002.53858482 -810.15625 1000.8125 C-826.88619188 971.02585697 -836.25074291 936.34910557 -837.17578125 902.203125 C-837.19624512 901.55069824 -837.21670898 900.89827148 -837.23779297 900.22607422 C-838.62909497 850.28868082 -822.2292786 804.08635032 -791.17578125 765.203125 C-790.71655273 764.62675293 -790.25732422 764.05038086 -789.78417969 763.45654297 C-777.85604623 748.65934811 -764.22171992 734.8175338 -749.17578125 723.203125 C-748.1703125 722.3575 -747.16484375 721.511875 -746.12890625 720.640625 C-729.01651696 706.29400011 -709.6542682 694.06468564 -690.17578125 683.203125 C-688.98251221 682.52854248 -688.98251221 682.52854248 -687.76513672 681.84033203 C-653.43874611 662.4691785 -617.33471111 647.20173374 -580.17578125 634.203125 C-579.50818787 633.96849548 -578.84059448 633.73386597 -578.152771 633.49212646 C-463.416924 593.203125 -463.416924 593.203125 -425.17578125 593.203125 C-427.38185036 609.28193845 -429.95326562 625.28671277 -432.63134766 641.29296875 C-433.07371812 643.94798426 -433.51589598 646.60303121 -433.95783997 649.25811768 C-435.0245826 655.66415012 -436.09387422 662.06975445 -437.16407014 668.47521079 C-438.41223437 675.94651171 -439.65773796 683.41825547 -440.90314047 690.89001715 C-443.12453776 704.21672067 -445.34821259 717.54304312 -447.57324219 730.86914062 C-449.73008101 743.7868486 -451.88542555 756.70480469 -454.0390625 769.62304688 C-454.17212373 770.42119147 -454.30518495 771.21933607 -454.44227834 772.04166687 C-454.71035444 773.64968086 -454.97843045 775.25769486 -455.24650636 776.86570889 C-455.37875905 777.65900551 -455.51101175 778.45230214 -455.64727211 779.26963806 C-455.84516596 780.45667718 -455.84516596 780.45667718 -456.04705767 781.66769689 C-458.10493487 794.01126117 -460.16405322 806.35461843 -462.22334529 818.69794673 C-462.96839987 823.1638439 -463.71329389 827.62976782 -464.45807625 832.0957104 C-465.63747551 839.16767498 -466.81741658 846.2395487 -467.99846007 853.31123888 C-468.5377229 856.54021308 -469.07665173 859.76924236 -469.61505699 862.99835968 C-470.19839972 866.49667243 -470.78273678 869.99481764 -471.36734009 873.49291992 C-471.53747356 874.51458724 -471.70760703 875.53625456 -471.88289607 876.58888149 C-472.03978982 877.52640286 -472.19668357 878.46392424 -472.35833168 879.42985535 C-472.49302506 880.23676913 -472.62771844 881.04368292 -472.76649344 881.87504864 C-473.19744602 884.32635672 -473.67855247 886.76447255 -474.17578125 889.203125 C-473.47839844 889.43902344 -472.78101563 889.67492188 -472.0625 889.91796875 C-468.65559578 891.4347096 -465.91951123 893.50481402 -462.98828125 895.765625 C-430.6841431 920.02470292 -394.80464858 940.31687434 -359.17578125 959.203125 C-358.1098877 959.7703125 -357.04399414 960.3375 -355.94580078 960.921875 C-296.96036152 992.22704519 -234.09973331 1016.7153604 -169.92578125 1035.078125 C-169.03028564 1035.33546417 -168.13479004 1035.59280334 -167.2121582 1035.85794067 C-164.67626563 1036.58295534 -162.13779157 1037.29782082 -159.59765625 1038.0078125 C-158.86001038 1038.21747147 -158.1223645 1038.42713043 -157.36236572 1038.6431427 C-152.64071792 1039.94073651 -148.04743983 1040.6943195 -143.17578125 1041.203125 C-140.92981181 1034.9197581 -138.47042419 1027.87870035 -140.17578125 1021.203125 C-144.28202365 1015.57246214 -150.20090512 1013.83501895 -156.55078125 1011.453125 C-157.73961914 1010.99558838 -158.92845703 1010.53805176 -160.15332031 1010.06665039 C-171.31303476 1005.79603193 -182.57463914 1001.79789731 -193.81893921 997.7571106 C-220.62670326 988.12337897 -246.54222151 977.34960759 -272.26068115 965.11315918 C-274.16690161 964.2073445 -276.07466997 963.30487138 -277.98291016 962.40332031 C-293.02574602 955.29100143 -307.86827907 947.91292021 -322.38330078 939.765625 C-325.38821336 938.08426108 -328.40428472 936.42411964 -331.421875 934.765625 C-344.29339202 927.66450266 -356.8763244 920.25481662 -369.17578125 912.203125 C-369.84786621 911.76516602 -370.51995117 911.32720703 -371.21240234 910.87597656 C-389.03832583 899.23293828 -406.31262518 886.70986614 -422.67578125 873.078125 C-423.22177979 872.62896729 -423.76777832 872.17980957 -424.33032227 871.71704102 C-426.86517695 869.57038876 -428.1029158 868.42172136 -429.17578125 865.203125 C-428.90457747 862.75779564 -428.55902005 860.38937252 -428.13502502 857.97000122 C-428.0108503 857.22739701 -427.88667558 856.4847928 -427.75873798 855.71968544 C-427.33905109 853.22090883 -426.9088759 850.72405171 -426.47875977 848.22705078 C-426.17599611 846.43768183 -425.87387247 844.64820448 -425.57234192 842.85862732 C-424.74783982 837.9766942 -423.91419646 833.09636083 -423.07889676 828.2162652 C-422.1993978 823.06917704 -421.32795723 817.92072461 -420.45555115 812.77243042 C-418.98148728 804.0805291 -417.50199889 795.38956551 -416.01879883 786.69921875 C-414.14001174 775.69095998 -412.26925123 764.68135508 -410.40149021 753.67122078 C-408.77478454 744.0821127 -407.14484418 734.49355481 -405.514117 724.90512991 C-405.16984626 722.88065506 -404.82567026 720.85616411 -404.48159528 718.83165598 C-399.51304749 689.59794326 -394.40505643 660.39134485 -389.17578125 631.203125 C-385.00237136 631.8434808 -381.66607659 632.69463198 -377.859375 634.5390625 C-376.35842285 635.26125977 -376.35842285 635.26125977 -374.82714844 635.99804688 C-373.76657227 636.51947266 -372.70599609 637.04089844 -371.61328125 637.578125 C-370.50500977 638.11759766 -369.39673828 638.65707031 -368.25488281 639.21289062 C-353.27142769 646.54804902 -338.58351902 654.31233736 -324.13110352 662.64355469 C-309.73638755 670.93503989 -295.178222 678.95403398 -280.22802734 686.20361328 C-278.07529661 687.25206434 -275.93250726 688.31942594 -273.7890625 689.38671875 C-247.44513325 702.36030223 -219.87811467 712.78560172 -192.52880859 723.40649414 C-177.77397557 729.14364339 -163.1105793 735.08326464 -148.49487305 741.16577148 C-141.45885989 744.0874502 -134.46222861 746.95155461 -127.17578125 749.203125 C-122.91148153 745.15750731 -121.2736775 743.25894626 -120.98828125 737.265625 C-120.91891239 733.9926761 -121.31598168 731.93226366 -123.17578125 729.203125 C-126.11419266 727.64922492 -126.11419266 727.64922492 -129.71875 726.42578125 C-130.38587006 726.17852798 -131.05299011 725.93127472 -131.74032593 725.67652893 C-133.18548953 725.14193285 -134.63292586 724.61344972 -136.08230591 724.09039307 C-139.98239906 722.68017515 -143.86310811 721.21823976 -147.74609375 719.76171875 C-148.54070511 719.46483154 -149.33531647 719.16794434 -150.15400696 718.86206055 C-157.75101661 716.01313956 -165.2612307 712.97725107 -172.73828125 709.828125 C-173.36316437 709.5650354 -173.98804749 709.3019458 -174.63186646 709.03088379 C-190.29191552 702.4151156 -205.75460763 695.35486626 -221.17578125 688.203125 C-222.22572266 687.71682617 -223.27566406 687.23052734 -224.35742188 686.72949219 C-235.91845302 681.3543533 -247.27845054 675.66580676 -258.51025391 669.63378906 C-261.47231989 668.04396431 -264.43932414 666.46354799 -267.40625 664.8828125 C-280.18856249 658.05515237 -292.85778539 651.06485945 -305.39892578 643.80419922 C-308.42068797 642.06191714 -311.45192038 640.33688134 -314.484375 638.61328125 C-373.90098118 604.75272515 -373.90098118 604.75272515 -380.17578125 592.203125 C-380.78534457 585.13256498 -379.67386183 578.63491138 -378.0078125 571.79296875 C-377.77709549 570.80896088 -377.54637848 569.824953 -377.30867004 568.81112671 C-376.54760806 565.58453364 -375.76899524 562.36251527 -374.98828125 559.140625 C-374.44244622 556.85899187 -373.89671226 554.57733455 -373.35107422 552.2956543 C-349.44051913 452.88843316 -318.46581789 354.65801554 -175.94921875 82.22265625 C-173.84606699 79.96076158 -171.82510034 77.6395769 -169.8125 75.296875 C-127.95952054 27.31144513 -63.13623605 0.28837166 0 0 Z M8.82421875 110.203125 C9.66464755 112.4388614 9.66464755 112.4388614 12.15209961 113.12889099 C13.18729736 113.44656937 14.22249512 113.76424774 15.2890625 114.09155273 C16.46496445 114.45671997 17.64086639 114.82188721 18.85240173 115.19812012 C20.15547855 115.59441456 21.45858508 115.99061132 22.76171875 116.38671875 C24.10578511 116.80146112 25.44961778 117.21696149 26.79322815 117.63317871 C29.65001806 118.51690386 32.50809029 119.39629885 35.36721802 120.27243042 C39.82468097 121.63912122 44.27798367 123.01899192 48.73022461 124.40258789 C49.46155704 124.6298503 50.19288946 124.85711271 50.94638348 125.09126186 C52.41435103 125.54752807 53.8822972 126.00386309 55.35022163 126.46026802 C57.53514881 127.13940851 59.72029692 127.81783379 61.90550232 128.49607849 C97.85087344 139.65545863 131.9991066 153.05364313 165.9296875 169.29656982 C167.77906183 170.18151689 169.62964429 171.06389137 171.48046875 171.94580078 C186.55419575 179.13778955 201.52385242 186.53544298 216.44747925 194.03320122 C218.58509082 195.10704255 220.72304762 196.1801938 222.86108398 197.25318909 C234.84656355 203.26939075 234.84656355 203.26939075 240.12609863 205.93838501 C317.45667255 245.03051091 404.46524386 287.55472743 502.83700562 258.90231323 C518.83647986 253.60614121 534.24300172 247.13526146 549.59851074 240.20489502 C590.42281772 221.83026248 631.4041277 205.53555645 673.82421875 191.203125 C674.60738464 190.93806152 675.39055054 190.67299805 676.19744873 190.39990234 C698.00796468 183.02802255 720.01192281 176.58833835 742.82421875 173.203125 C743.66855469 173.07164062 744.51289062 172.94015625 745.3828125 172.8046875 C770.19167276 169.62296192 795.41089633 172.84599656 815.88671875 187.8515625 C823.56698416 193.99986008 829.67175301 200.82758003 834.82421875 209.203125 C835.3342041 210.02852783 835.3342041 210.02852783 835.85449219 210.87060547 C876.42244772 277.95535134 872.25248621 377.73728926 854.61791992 451.37280273 C847.68764901 479.23630188 838.20003678 506.2908026 825.82421875 532.203125 C825.3770752 533.14124023 824.92993164 534.07935547 824.46923828 535.04589844 C810.34671106 564.45449786 793.09720671 591.64940684 772.82421875 617.203125 C772.39915039 617.74001953 771.97408203 618.27691406 771.53613281 618.83007812 C766.93990038 624.60798588 762.14125794 630.17241738 757.16015625 635.62109375 C755.88771621 637.02758683 754.62144845 638.44020762 753.38867188 639.8815918 C748.53260957 645.54772304 743.34843667 650.86507029 738.07373047 656.13891602 C736.58528638 657.62954115 735.10504598 659.12799517 733.625 660.62695312 C728.09752517 666.18663908 722.42418367 671.35014118 716.27807617 676.23657227 C714.24517886 677.86576218 712.31597885 679.54504464 710.390625 681.296875 C705.62574912 685.4080805 700.13972107 688.47181591 694.76171875 691.703125 C692.42383992 693.12181693 690.08890461 694.5453235 687.75390625 695.96875 C687.16829422 696.32499451 686.58268219 696.68123901 685.97932434 697.04827881 C680.402863 700.44579122 674.88764321 703.93504027 669.38671875 707.453125 C668.48671143 708.02812744 667.5867041 708.60312988 666.65942383 709.19555664 C664.8923699 710.32486957 663.125519 711.45450025 661.35888672 712.58447266 C649.2065845 720.34499699 636.97935028 727.98661901 624.74902344 735.62329102 C610.71418817 744.38999429 596.72406052 753.22378187 582.82421875 762.203125 C586.5608061 763.44865412 588.53943894 762.86172365 592.39453125 762.0859375 C593.38454636 761.88807648 593.38454636 761.88807648 594.39456177 761.68621826 C596.5817726 761.24410928 598.76564373 760.78784053 600.94921875 760.328125 C601.70618042 760.17007385 602.46314209 760.01202271 603.24304199 759.84918213 C643.03294447 751.49369865 681.84613554 739.15478459 718.82421875 722.203125 C719.82936523 721.74728027 720.83451172 721.29143555 721.87011719 720.82177734 C736.65525741 714.08384611 750.82010569 706.43279807 764.82421875 698.203125 C765.62698242 697.73406738 766.42974609 697.26500977 767.25683594 696.78173828 C788.37340062 684.38412726 808.03026531 669.86931672 826.82421875 654.203125 C827.3292392 653.78352005 827.83425964 653.3639151 828.35458374 652.93159485 C837.08761354 645.65073618 845.33852349 638.00667727 853.34887695 629.93920898 C855.1463768 628.13090892 856.95444191 626.33366523 858.76367188 624.53710938 C865.57698542 617.73152331 871.85446854 610.76855055 877.82421875 603.203125 C878.68714885 602.17519018 879.55555419 601.1517778 880.43359375 600.13671875 C887.78812109 591.56091041 894.29733926 582.41496887 900.82421875 573.203125 C903.01912457 582.40909318 904.94195967 591.6472416 906.71923828 600.94189453 C906.99370578 602.36753841 907.26839085 603.79314042 907.54327393 605.21870422 C908.12899612 608.25865075 908.71325371 611.29887355 909.2963295 614.33932877 C910.21839987 619.14719844 911.14409336 623.95436632 912.07028198 628.76144409 C913.86595978 638.08385426 915.6582129 647.40692104 917.44992065 656.73009491 C919.73760101 668.63373016 922.02625953 680.53717567 924.31921852 692.43979537 C925.23989789 697.21967441 926.15854965 701.99993734 927.07563424 706.78050733 C927.64474594 709.74505026 928.21552247 712.70927086 928.78675079 715.6734066 C929.05151107 717.04914338 929.31556803 718.42501573 929.5788765 719.80103111 C929.93777238 721.67607206 930.29939421 723.55059064 930.66116333 725.42507935 C930.86282671 726.47470919 931.06449009 727.52433903 931.27226448 728.60577583 C931.79382411 731.29881179 931.79382411 731.29881179 932.82421875 734.203125 C937.63498434 733.55246568 942.05580793 732.23594771 946.62109375 730.640625 C947.38778885 730.37714264 948.15448395 730.11366028 948.94441223 729.8421936 C951.48916112 728.96673602 954.0316345 728.08484739 956.57421875 727.203125 C959.29087757 726.26698856 962.00812152 725.3325628 964.72535706 724.39810181 C966.65608311 723.73393229 968.58661038 723.06918468 970.51695251 722.40390015 C981.66460139 718.56314725 992.82899391 714.77179164 1003.99353027 710.98046875 C1008.42887123 709.47420481 1012.86380449 707.96674245 1017.29875183 706.45932007 C1021.47380607 705.04028993 1025.64899673 703.62166139 1029.82421875 702.203125 C1028.57124558 694.86417172 1027.0382068 687.65345709 1025.2265625 680.43359375 C1024.67901067 678.21669972 1024.13209351 675.99964887 1023.58569336 673.7824707 C1023.14361038 671.99300522 1023.14361038 671.99300522 1022.69259644 670.16738892 C1015.11308399 639.41573428 1008.07231692 608.54564418 1001.08495331 577.65482712 C988.16663212 520.48386726 988.16663212 520.48386726 974.61743164 463.45996094 C973.78868827 460.05724115 972.96361842 456.65364211 972.13867188 453.25 C960.68883305 406.09810886 948.01872551 359.29614993 932.82421875 313.203125 C932.5653186 312.41417847 932.30641846 311.62523193 932.03967285 310.81237793 C912.76052612 252.08110509 889.08277577 186.00267296 831.01171875 155.453125 C811.01845882 145.91649709 788.85397533 141.15407601 766.74609375 140.96484375 C765.79435776 140.95500458 764.84262177 140.94516541 763.86204529 140.93502808 C739.54608464 140.73631737 715.88600788 141.71089104 691.82421875 145.203125 C690.9734375 145.32427673 690.12265625 145.44542847 689.24609375 145.57025146 C648.90855765 151.32207848 610.96997653 161.62669848 572.21066284 173.93710327 C502.08454396 196.1990805 502.08454396 196.1990805 472.82421875 200.203125 C471.6549585 200.37610107 470.48569824 200.54907715 469.28100586 200.72729492 C456.87202298 202.45600318 444.52345855 202.56038844 432.01171875 202.515625 C430.92818115 202.51346985 429.84464355 202.5113147 428.72827148 202.50909424 C411.90839519 202.45547445 395.46062894 201.87734865 378.82421875 199.203125 C377.55900391 199.00444824 376.29378906 198.80577148 374.99023438 198.60107422 C315.44717383 189.11262859 258.42155319 168.46341596 201.6875 148.67578125 C139.17867305 126.89664145 75.48446964 109.58270901 8.82421875 110.203125 Z M-34.17578125 757.203125 C-35.49578125 767.763125 -36.81578125 778.323125 -38.17578125 789.203125 C-11.22392934 794.84758528 15.74008965 800.43054463 42.71875 805.9453125 C43.42641557 806.08997735 44.13408114 806.2346422 44.86319113 806.38369083 C54.3094753 808.31465787 63.75609612 810.24397514 73.20281982 812.17279053 C84.29419788 814.43742481 95.38538981 816.70297006 106.47636336 818.96958458 C110.59120511 819.81047392 114.70616366 820.65078826 118.82122892 821.49058306 C121.98483184 822.13634769 125.1482821 822.78285955 128.31176758 823.42919922 C129.49512601 823.6704698 130.67848444 823.91174038 131.89770222 824.16032219 C137.16071069 825.23604636 142.41995003 826.32428003 147.67025757 827.46051025 C148.55146869 827.65043612 149.43267981 827.84036198 150.34059429 828.03604317 C151.93129476 828.38067149 153.52108131 828.72956318 155.10963917 829.08393669 C158.76287362 829.87570433 162.09532883 830.27139392 165.82421875 830.203125 C165.69022171 831.40687775 165.55622467 832.61063049 165.41816711 833.8508606 C162.23639697 862.43584481 159.05915602 891.02133002 155.88747972 919.60743588 C155.49695989 923.12712892 155.1064019 926.64681772 154.71582031 930.16650391 C154.59918634 931.21754789 154.59918634 931.21754789 154.48019612 932.28982508 C153.22166518 943.63021346 151.96004439 954.97025605 150.69727814 966.31017351 C149.40129855 977.94898055 148.10864763 989.58815382 146.81907558 1001.22767258 C146.09474045 1007.76411574 145.3688653 1014.30037961 144.63931274 1020.83624268 C143.95264106 1026.98838765 143.27007748 1033.14097456 142.59065628 1039.29392433 C142.34063408 1041.55154007 142.0891139 1043.80899049 141.83597946 1046.06625938 C141.49036061 1049.15026671 141.15015745 1052.23482586 140.8112793 1055.31958008 C140.71011464 1056.2106502 140.60894999 1057.10172031 140.50471973 1058.01979256 C139.95167227 1063.11575616 139.73071934 1068.0769386 139.82421875 1073.203125 C127.83878341 1071.08704856 115.85372269 1068.96885839 103.86889648 1066.84933472 C99.55451167 1066.08635406 95.24005335 1065.32379106 90.92553711 1064.56155396 C67.62968183 1060.44537989 44.33745587 1056.31131438 21.06159782 1052.08333969 C17.94584972 1051.5174916 14.82995156 1050.9524773 11.71400452 1050.38772583 C9.68685522 1050.02022421 7.65970979 1049.65270124 5.63256836 1049.28515625 C4.15243492 1049.01679364 4.15243492 1049.01679364 2.64239979 1048.74300957 C-3.19700311 1047.68347677 -9.0351646 1046.61738215 -14.87254238 1045.54675198 C-18.49872806 1044.88309307 -22.12592443 1044.22509276 -25.7534008 1043.56852913 C-27.42610267 1043.26446698 -29.09835853 1042.95793888 -30.77011299 1042.64871025 C-33.05265396 1042.22672409 -35.33661175 1041.81342785 -37.62109375 1041.40209961 C-38.89484863 1041.16913681 -40.16860352 1040.93617401 -41.48095703 1040.69615173 C-45.53663951 1040.15497311 -49.09200115 1039.90972784 -53.17578125 1040.203125 C-55.52815779 1043.73168981 -55.41705554 1045.22067323 -55.36328125 1049.390625 C-55.35683594 1050.47730469 -55.35039063 1051.56398438 -55.34375 1052.68359375 C-55.21830974 1055.31200487 -55.00220546 1057.82131651 -54.6652832 1060.4230957 C-54.50374756 1061.67050537 -54.34221191 1062.91791504 -54.17578125 1064.203125 C-52.76170959 1064.48720891 -52.76170959 1064.48720891 -51.31907082 1064.7770319 C-28.21578172 1069.41847125 -5.11268289 1074.06085678 17.99022484 1078.70419407 C29.16331793 1080.94979587 40.33646921 1083.19510732 51.50976562 1085.43969727 C61.26595977 1087.39960807 71.02203647 1089.3601023 80.7779814 1091.32125324 C85.92769467 1092.35643436 91.07746027 1093.39135324 96.2273674 1094.42556953 C101.08667054 1095.4014443 105.94583012 1096.37803062 110.8048718 1097.35520637 C112.66362622 1097.72893172 114.52242187 1098.10245211 116.38126063 1098.47575772 C125.92139317 1100.39209972 135.45712246 1102.32622336 144.98175049 1104.31832886 C145.78117132 1104.48504945 146.58059216 1104.65177004 147.40423787 1104.82354277 C151.12796185 1105.60026274 154.85060644 1106.38145309 158.57131004 1107.17251682 C159.85743502 1107.44167377 161.14355999 1107.71083071 162.46865845 1107.98814392 C164.13959029 1108.34214972 164.13959029 1108.34214972 165.84427834 1108.70330715 C168.57630651 1109.16154331 171.06208001 1109.30287243 173.82421875 1109.203125 C176.70595533 1075.1660046 179.42621936 1041.11782406 182.06644726 1007.06117773 C182.37569772 1003.07344513 182.68535099 999.08574402 182.99518585 995.09805679 C184.13457504 980.43316632 185.27241753 965.76815671 186.40898469 951.10304727 C187.30233666 939.57694584 188.19816198 928.0510381 189.09506354 916.52521239 C190.02355363 904.5931287 190.95033013 892.66091302 191.87527394 880.72855389 C192.39170055 874.06674379 192.90885277 867.40499148 193.42775726 860.74337387 C193.91247612 854.51975436 194.39498325 848.29596733 194.87576485 842.07204247 C195.05234046 839.7910781 195.22970709 837.51017481 195.40791893 835.22933769 C195.65068992 832.12065329 195.89061724 829.01176208 196.12982178 825.90280151 C196.20102132 824.99973798 196.27222085 824.09667444 196.34557796 823.16624534 C196.67598892 818.8322897 196.90310121 814.55398442 196.82421875 810.203125 C147.07190576 798.45824573 97.29958605 786.8022251 47.50268555 775.24780273 C46.5166311 775.01898816 45.53057665 774.79017359 44.51464176 774.55442524 C39.66234964 773.42858238 34.80987956 772.30351702 29.95704651 771.18000793 C21.15890337 769.14234741 12.36250721 767.09789957 3.571661 765.02895164 C-0.44409279 764.08395891 -4.46054588 763.14195688 -8.47701645 762.20001602 C-10.37934791 761.75287413 -12.28130563 761.30413888 -14.18286514 760.85372543 C-16.79662409 760.23466241 -19.41158198 759.62092855 -22.02685547 759.00830078 C-22.79779919 758.82412724 -23.5687429 758.63995369 -24.36304855 758.45019913 C-27.76075576 757.65930055 -30.66378003 757.203125 -34.17578125 757.203125 Z M1039.01953125 758.63671875 C940.43128739 797.60278617 829.45167672 811.83652147 625.82421875 828.328125 C624.55889313 828.38617813 624.55889313 828.38617813 623.26800537 828.44540405 C616.78805274 828.73757288 610.30694864 828.98147854 603.82421875 829.203125 C602.55531799 829.24656036 601.28641724 829.28999573 599.97906494 829.33474731 C574.89015553 830.17407849 549.81261798 830.40353752 524.71077728 830.39200592 C521.64916423 830.39060205 518.58755327 830.39071027 515.52593994 830.39080811 C479.96623415 830.3823799 444.46817078 829.77359187 408.93798828 828.32623291 C406.15158085 828.21606779 403.36518808 828.11670365 400.578125 828.02490234 C376.10624942 827.21582125 351.8235633 824.42066201 327.50732422 821.67895508 C303.22934891 818.9228052 303.22934891 818.9228052 278.82421875 818.078125 C278.05722656 818.07425781 277.29023437 818.07039062 276.5 818.06640625 C271.44495899 818.07498866 266.94567736 818.56294267 261.82421875 819.203125 C262.15421875 825.803125 262.48421875 832.403125 262.82421875 839.203125 C329.36651478 850.90027633 396.44820879 855.70882751 463.74804688 860.88037109 C464.71007837 860.95435057 465.67210987 861.02833004 466.66329384 861.10455132 C471.21272556 861.45430473 475.76222044 861.803187 480.31185913 862.15023804 C481.94732814 862.27559509 483.58279575 862.40097047 485.21826172 862.52636719 C485.93085899 862.58038382 486.64345627 862.63440044 487.3776474 862.69005394 C490.3897113 862.92160847 493.3985037 863.16161945 496.40531731 863.454772 C503.00836112 864.09851053 509.56880227 864.42812404 516.20068359 864.57055664 C517.84568753 864.60877863 517.84568753 864.60877863 519.52392387 864.64777279 C534.74746904 864.98092121 549.97269999 865.15033101 565.19921875 865.265625 C565.95982699 865.27175481 566.72043524 865.27788463 567.50409222 865.28420019 C628.95101354 865.77072576 689.76680949 861.71633136 750.94921875 856.265625 C752.01321616 856.1710509 753.07721357 856.07647679 754.17345333 855.97903681 C775.70915978 854.06361836 797.240309 852.09688915 818.76096082 850.0185889 C820.3505062 849.86512458 821.94011942 849.71236105 823.52980494 849.56035531 C825.69015786 849.3532202 827.85014162 849.14261419 830.01004028 848.93080139 C831.21345125 848.81373368 832.41686222 848.69666597 833.65674019 848.57605076 C836.4259473 848.25001583 839.10224726 847.79961641 841.82421875 847.203125 C841.49421875 849.843125 841.16421875 852.483125 840.82421875 855.203125 C840.22738281 855.326875 839.63054688 855.450625 839.015625 855.578125 C833.08614726 856.98780767 827.77526744 859.07236707 822.32421875 861.765625 C771.26708469 886.63782615 713.07093857 896.5236063 657.82421875 907.203125 C655.88307076 907.57882018 653.94192279 907.95451544 652.00077629 908.33021832 C641.17792771 910.42449251 630.35474937 912.51704221 619.52734375 914.58764648 C608.60021883 916.67973318 597.68323121 918.77713607 586.82421875 921.203125 C586.82421875 921.533125 586.82421875 921.863125 586.82421875 922.203125 C655.46421875 922.533125 724.10421875 922.863125 794.82421875 923.203125 C775.51921875 932.113125 775.51921875 932.113125 755.82421875 941.203125 C748.77046875 944.79380859 748.77046875 944.79380859 741.57421875 948.45703125 C719.74923893 958.81857493 695.24817009 962.7500638 671.7890625 967.8410393 C665.16863264 969.27902061 658.55686579 970.75501864 651.94555473 972.23426509 C641.28384019 974.61914578 630.61708198 976.98034988 619.9453125 979.31982422 C609.16729778 981.68275014 598.39752779 984.07948349 587.63671875 986.51953125 C586.38407227 986.80344223 585.13142578 987.08735321 583.84082031 987.37986755 C581.16835958 987.98648667 578.49611346 988.59401858 575.82421875 989.203125 C575.82421875 990.193125 575.82421875 991.183125 575.82421875 992.203125 C579.3027505 994.84136634 582.39401529 995.71177832 586.671875 996.30078125 C587.81906006 996.46151123 588.96624512 996.62224121 590.14819336 996.7878418 C591.38190674 996.94551025 592.61562012 997.10317871 593.88671875 997.265625 C595.1816626 997.43553955 596.47660645 997.6054541 597.81079102 997.78051758 C617.5270789 1000.30688255 637.28097443 1001.29201916 657.13671875 1001.828125 C657.90039764 1001.84886078 658.66407654 1001.86959656 659.45089722 1001.89096069 C686.07821733 1002.58484977 712.71347325 1002.07364267 739.3427124 1001.73956299 C744.2577592 1001.67820841 749.17282573 1001.61847765 754.08789062 1001.55859375 C763.66668619 1001.44165708 773.24545921 1001.3229745 782.82421875 1001.203125 C779.19449628 1004.92746565 775.60898102 1007.88018474 771.13671875 1010.515625 C770.48445313 1010.90024902 769.8321875 1011.28487305 769.16015625 1011.68115234 C735.60698439 1031.00276856 696.5464495 1035.76223442 658.85012817 1041.20397949 C646.42337952 1043.00144308 634.06179867 1044.92054406 621.76171875 1047.453125 C620.61002197 1047.68717041 619.4583252 1047.92121582 618.27172852 1048.16235352 C613.03379761 1049.28819604 608.45403919 1050.47498124 603.82421875 1053.203125 C603.82421875 1053.863125 603.82421875 1054.523125 603.82421875 1055.203125 C604.93051148 1055.20255946 604.93051148 1055.20255946 606.05915356 1055.2019825 C624.00323351 1055.19486602 641.94698777 1055.22075621 659.89096355 1055.2834034 C668.56856767 1055.3129029 677.24592672 1055.33122223 685.92358398 1055.32324219 C693.4868904 1055.31631525 701.0498176 1055.33034467 708.61303073 1055.36956108 C712.61799321 1055.38959497 716.6223601 1055.39911916 720.62735558 1055.38354874 C724.3976228 1055.36922197 728.16675187 1055.38292855 731.93687248 1055.41807747 C733.31993837 1055.42604178 734.70310693 1055.42379071 736.08613205 1055.41051674 C746.49808295 1055.31904148 746.49808295 1055.31904148 749.74674416 1057.48479843 C751.80755177 1059.84876802 752.83862714 1062.24635017 753.82421875 1065.203125 C752.90560059 1065.4309668 751.98698242 1065.65880859 751.04052734 1065.89355469 C744.22294239 1067.58917643 737.41132725 1069.30420896 730.6116333 1071.07035828 C667.90931881 1087.34334981 604.52377918 1096.18745099 539.88671875 1099.890625 C538.83292023 1099.95156342 537.7791217 1100.01250183 536.69338989 1100.07528687 C518.57957557 1101.10492166 500.45625694 1101.70660004 482.31981277 1102.14236069 C479.74300156 1102.20510253 477.16628999 1102.27121476 474.58956909 1102.33755493 C460.39802826 1102.6953638 446.20734423 1102.90967191 432.01171875 1103.015625 C430.89422367 1103.02450745 429.77672859 1103.03338989 428.62537003 1103.0425415 C373.64783194 1103.42909004 319.3997358 1098.11868225 264.8293457 1092.03251648 C263.71908177 1091.90933894 262.60881784 1091.7861614 261.46490955 1091.65925121 C259.414284 1091.43082078 257.36397544 1091.19951724 255.31407452 1090.96467304 C250.79048123 1090.4600408 246.38536888 1090.06929195 241.82421875 1090.203125 C240.61074121 1093.84355763 240.60172155 1097.22367686 240.57421875 1101.015625 C240.55359375 1101.71494141 240.53296875 1102.41425781 240.51171875 1103.13476562 C240.47584642 1107.92820572 241.0767141 1111.24925802 243.82421875 1115.203125 C249.17609826 1119.04951645 256.02088884 1119.55650102 262.38671875 1120.578125 C263.68609375 1120.78872559 264.98546875 1120.99932617 266.32421875 1121.21630859 C293.71138169 1125.54110599 321.35331945 1128.16596511 349.01171875 1129.953125 C349.9238916 1130.01220032 350.83606445 1130.07127563 351.77587891 1130.13214111 C358.12313046 1130.53539012 364.47226278 1130.88315914 370.82421875 1131.203125 C372.21411011 1131.2757103 372.21411011 1131.2757103 373.63208008 1131.34976196 C395.22734582 1132.44462523 416.83252513 1132.402674 438.44921875 1132.390625 C439.39977268 1132.39050541 440.35032661 1132.39038582 441.32968521 1132.3902626 C470.32724735 1132.38565025 499.26075206 1132.15660894 528.21282959 1130.36456299 C530.90676981 1130.19802163 533.60104385 1130.03790614 536.29541016 1129.87841797 C625.60713732 1124.52354978 714.13032911 1110.63131909 970.00976562 1019.58691406 C972.81364854 1018.20832208 975.62345859 1016.84235495 978.43359375 1015.4765625 C990.81779761 1009.41604478 1002.87354161 1002.86861352 1014.80078125 995.95410156 C1016.82616466 994.78113242 1018.85485735 993.61386001 1020.88671875 992.45214844 C1034.87194259 984.44997817 1048.5185443 975.98400647 1061.98257446 967.13467407 C1063.62083744 966.0593556 1065.26224644 964.98881423 1066.90682983 963.92318726 C1069.21537262 962.42376875 1071.50956102 960.90462388 1073.80078125 959.37890625 C1074.49735336 958.93052399 1075.19392548 958.48214172 1075.91160583 958.02017212 C1079.52335926 955.65128576 1079.52335926 955.65128576 1081.58297348 951.99706841 C1081.88908533 948.4518831 1081.35004613 945.47969269 1080.67388916 941.98318481 C1080.5380195 941.26670741 1080.40214984 940.55023 1080.26216292 939.81204116 C1079.80516121 937.41470742 1079.3347048 935.02021692 1078.86425781 932.62548828 C1078.53349114 930.90542403 1078.20355582 929.18519974 1077.87438965 927.46482849 C1076.97768374 922.79111072 1076.06930127 918.11973004 1075.15881824 913.44867945 C1074.20592011 908.54958886 1073.26366908 903.64845143 1072.32025146 898.74752808 C1070.52873807 889.44968079 1068.72750304 880.1537442 1066.92285514 870.85843837 C1064.88095033 860.33839103 1062.85032382 849.81617706 1060.82046175 839.29380059 C1057.81992905 823.74172746 1054.8150648 808.19049166 1051.79948425 792.64132881 C1051.47486517 790.96736829 1051.15038305 789.29338119 1050.82605743 787.61936378 C1048.86008639 777.4735227 1046.86348899 767.33451026 1044.82421875 757.203125 C1042.51620068 757.203125 1041.16014588 757.77603096 1039.01953125 758.63671875 Z M1144.82421875 823.203125 C1145.10456701 833.81544312 1148.07480218 843.82079504 1150.76171875 854.015625 C1151.25821483 855.92841969 1151.75388908 857.84142787 1152.2487793 859.75463867 C1154.64352316 868.98902477 1157.08744031 878.20977244 1159.56640625 887.421875 C1178.52027068 957.99137056 1178.52027068 957.99137056 1172.57421875 972.453125 C1160.55632747 991.63236246 1133.62579082 1004.08943119 1114.82421875 1015.203125 C1113.86 1015.77530762 1112.89578125 1016.34749023 1111.90234375 1016.93701172 C1089.44328088 1030.24205481 1066.63579999 1042.88055522 1043.43652344 1054.84619141 C1040.96545924 1056.12975915 1038.50597018 1057.43246012 1036.05078125 1058.74609375 C998.73171636 1078.7117737 959.56548079 1094.75572554 919.82421875 1109.203125 C918.69847443 1109.61307709 918.69847443 1109.61307709 917.54998779 1110.03131104 C820.78665041 1145.21821537 720.27509585 1168.70410584 487.12890625 1208.37890625 C486.00804626 1208.54343292 484.88718628 1208.70795959 483.73236084 1208.87747192 C478.58570537 1209.63092438 473.4379189 1210.37411714 468.28710938 1211.09863281 C466.51561232 1211.35342745 464.74412712 1211.6083046 462.97265625 1211.86328125 C461.78275589 1212.02501579 461.78275589 1212.02501579 460.56881714 1212.1900177 C457.00285162 1212.70917322 454.87208599 1213.17121351 451.82421875 1215.203125 C518.98026936 1223.33451455 587.68911652 1214.89249676 654.515625 1207.0625 C655.78354511 1206.91450455 657.05146523 1206.76650909 658.35780716 1206.61402893 C678.5731512 1204.24813309 698.76285022 1201.70751328 718.94140625 1199.046875 C719.61150089 1198.95853929 720.28159553 1198.87020357 720.97199607 1198.77919102 C732.58302448 1197.24780103 744.19240009 1195.70397313 755.80126953 1194.15631104 C765.34707641 1192.88378738 774.89349411 1191.61601508 784.44140625 1190.359375 C785.10905597 1190.27149216 785.77670568 1190.18360931 786.46458721 1190.09306335 C807.81399784 1187.28612069 829.18383162 1184.70330528 850.58203125 1182.296875 C852.50758661 1182.07998772 852.50758661 1182.07998772 854.47204208 1181.85871887 C866.52848183 1180.50612662 878.58832355 1179.19186252 890.66357422 1178.01757812 C891.4999045 1177.93504539 892.33623478 1177.85251266 893.1979084 1177.76747894 C899.07969432 1177.21071359 904.91506217 1176.95402706 910.82421875 1177.203125 C911.15421875 1178.853125 911.48421875 1180.503125 911.82421875 1182.203125 C911.26331543 1182.356604 910.70241211 1182.51008301 910.12451172 1182.66821289 C903.19583348 1184.64753729 896.56885971 1187.20006739 889.88128662 1189.87167358 C872.45118158 1196.80875077 854.74097109 1202.78385353 836.89013672 1208.5357666 C834.95402478 1209.16119345 833.0199054 1209.79277913 831.0859375 1210.42480469 C738.80146768 1240.52760866 641.57527979 1255.38576083 320.82421875 1277.203125 C328.32398606 1285.86338497 343.85219851 1285.12944188 354.69921875 1286.203125 C355.93754959 1286.32818924 355.93754959 1286.32818924 357.20089722 1286.45578003 C387.13950135 1289.44094647 417.23462001 1290.61307615 447.28659248 1291.85468864 C449.58373432 1291.94961196 451.8808499 1292.04515264 454.17796326 1292.14076233 C460.88264956 1292.41896647 467.58734541 1292.69363798 474.29305363 1292.94615555 C477.77372615 1293.0782726 481.25411277 1293.21687816 484.734375 1293.359375 C485.42957685 1293.38778599 486.12477871 1293.41619698 486.84104729 1293.4454689 C496.27887983 1293.84214088 505.66994834 1294.49094115 515.07917786 1295.3190155 C540.60086928 1297.56212161 566.08513446 1298.23497605 591.69921875 1298.390625 C592.96307026 1298.40015198 594.22692177 1298.40967896 595.52907181 1298.41949463 C694.07407392 1299.09025494 792.6752707 1289.00491946 890.82421875 1281.203125 C882.11531144 1290.12801858 869.99637638 1293.05896469 858.38671875 1296.890625 C857.21896408 1297.27788757 857.21896408 1297.27788757 856.02761841 1297.67297363 C777.63576301 1323.58753814 696.1603596 1334.98441634 602.82421875 1340.203125 C602.09338074 1340.24179688 601.36254272 1340.28046875 600.60955811 1340.3203125 C535.87325377 1343.70000173 470.39832129 1341.12662622 405.82421875 1336.203125 C404.7679126 1336.12276001 403.71160645 1336.04239502 402.62329102 1335.95959473 C305.67054788 1328.51752383 209.24643972 1314.41534718 -19.2611084 1265.93829346 C-22.92955283 1265.01300106 -26.60114399 1264.10065751 -30.27296448 1263.18887329 C-106.38625776 1244.26682723 -181.93302973 1221.7642673 -256.171875 1196.48046875 C-257.0214679 1196.1922525 -257.87106079 1195.90403625 -258.74639893 1195.60708618 C-262.62856439 1194.28934829 -266.50592199 1192.96060683 -270.37451172 1191.60351562 C-278.77560281 1188.69973248 -285.36698672 1187.00092637 -294.17578125 1189.203125 C-291.30455332 1191.48422077 -288.44175164 1193.17908431 -285.14453125 1194.77734375 C-284.12560791 1195.27153809 -283.10668457 1195.76573242 -282.05688477 1196.27490234 C-280.94112061 1196.80809082 -279.82535645 1197.3412793 -278.67578125 1197.890625 C-276.90062134 1198.74068115 -276.90062134 1198.74068115 -275.08959961 1199.60791016 C-195.28429298 1237.62363858 -111.46026137 1268.74662142 135.82421875 1334.203125 C136.84529724 1334.41219482 137.86637573 1334.62126465 138.918396 1334.83666992 C224.619191 1352.35245809 311.52119056 1364.16589269 510.93920898 1380.00457764 C514.52675889 1380.18792301 518.11396107 1380.37705656 521.70117188 1380.56689453 C593.06844356 1384.25792967 665.42978267 1384.13581902 736.78979492 1380.36132812 C739.92397648 1380.19792402 743.05853369 1380.0450448 746.19335938 1379.89453125 C840.00386773 1375.35482801 933.53643084 1364.67686542 1025.82421875 1347.203125 C1026.78086426 1347.02219299 1027.73750977 1346.84126099 1028.72314453 1346.65484619 C1113.04602936 1330.61694234 1197.63582162 1306.99975305 1388.58984375 1201.25390625 C1390.67588761 1199.33926809 1392.80103921 1197.48489542 1394.94921875 1195.640625 C1402.74728145 1188.81145987 1409.41978084 1181.34825629 1415.82421875 1173.203125 C1416.56800781 1172.2646875 1417.31179688 1171.32625 1418.078125 1170.359375 C1441.06495263 1140.6164189 1452.5367113 1106.10121116 1448.35546875 1068.375 C1443.26873899 1030.97185656 1423.49814297 997.2357058 1397.82421875 970.203125 C1396.75530558 968.95860466 1395.69247052 967.70882976 1394.63671875 966.453125 C1391.06278813 962.34310478 1387.22853822 958.49797553 1383.38671875 954.640625 C1382.76579346 954.01510742 1382.14486816 953.38958984 1381.50512695 952.74511719 C1377.10887114 948.36325268 1372.54603394 944.23074184 1367.82421875 940.203125 C1366.86672729 939.38557739 1366.86672729 939.38557739 1365.88989258 938.55151367 C1336.41850212 913.58440292 1303.64643419 892.86305799 1269.62304688 874.69873047 C1267.77295967 873.71010222 1265.92525015 872.71701013 1264.08007812 871.71923828 C1228.51496325 852.49810617 1191.01284216 837.88399642 1152.63671875 825.37109375 C1151.62050194 825.03933136 1151.62050194 825.03933136 1150.58375549 824.7008667 C1147.76089884 823.64694844 1147.76089884 823.64694844 1144.82421875 823.203125 Z " fill="#000000" transform="translate(922.17578125,187.796875)"/>
</svg>
