<?xml version="1.0" encoding="UTF-8"?>
<svg version="1.1" xmlns="http://www.w3.org/2000/svg" width="2734" height="2612">
<path d="M0 0 C1.14065918 0.53947266 2.28131836 1.07894531 3.45654297 1.63476562 C28.79210192 13.64949534 53.76621113 26.29178354 78.06201172 40.30810547 C81.2139533 42.12320894 84.37412106 43.92344047 87.53515625 45.72265625 C99.73796742 52.68795016 111.77189226 59.83820453 123.58251953 67.44921875 C126.2119647 69.13597251 128.85286007 70.80369197 131.49609375 72.46875 C141.78488639 78.95785525 151.95984853 85.56138877 161.92041016 92.54443359 C164.19588668 94.13710688 166.47852341 95.71919519 168.76171875 97.30078125 C197.86599784 117.50664763 226.17209688 138.95193672 253.16210938 161.9140625 C256.59040745 164.82587913 260.05974315 167.67763477 263.5625 170.5 C268.63751471 174.62807319 273.44015416 179.00345591 278.234375 183.44921875 C280.44055947 185.48401883 282.66632261 187.47646238 284.9375 189.4375 C290.14404882 193.95982064 295.18283223 198.66416671 300.23144531 203.36083984 C301.91546521 204.92165011 303.6089208 206.47150559 305.3046875 208.01953125 C315.14681829 217.06458321 324.6038726 226.4954561 334.0625 235.9375 C334.74689148 236.61930328 335.43128296 237.30110657 336.13641357 238.00357056 C349.69159509 251.51833794 349.69159509 251.51833794 354.65209961 257.43774414 C356.18661178 259.21628849 357.82330856 260.85559464 359.5 262.5 C362.49234375 265.44600215 365.25324172 268.52983007 367.9921875 271.7109375 C369.94328675 273.93534248 371.94108908 276.11097598 373.95361328 278.27978516 C378.68862998 283.38566541 383.19516191 288.60327266 387.5625 294.03125 C390.42926103 297.52281792 393.39775274 300.91526217 396.375 304.3125 C401.03207241 309.64353368 405.50808844 315.07419488 409.84204102 320.67041016 C412.73173447 324.399617 415.682788 328.06793057 418.68334961 331.70849609 C425.86361277 340.43069199 432.58650629 349.44117899 439.22949219 358.57666016 C440.9864848 360.9815014 442.75956314 363.37349501 444.5390625 365.76171875 C452.6471875 376.65368194 460.41729397 387.73673965 468 399 C468.82413372 400.21620345 469.64834655 401.43235331 470.47265625 402.6484375 C473.01315514 406.4118457 475.51318976 410.20093979 478 414 C478.55461914 414.84643066 479.10923828 415.69286133 479.68066406 416.56494141 C500.47581358 448.41341865 519.59485236 481.3333057 536.984375 515.16015625 C538.81837873 518.72698129 540.67395053 522.27874147 542.578125 525.80859375 C549.68564284 538.99750908 555.96390998 552.54855885 562.16931152 566.17974854 C562.98318933 567.96316352 563.80257316 569.74406251 564.62207031 571.52490234 C573.7754743 591.41670328 582.10503861 611.578901 590 632 C590.27521484 632.71178406 590.55042969 633.42356812 590.83398438 634.15692139 C624.30731044 720.93363701 647.56553577 811.50435407 668.77996826 974.46246338 C668.99626283 976.95690071 669.2255004 979.44985232 669.45751953 981.94287109 C672.17708689 1011.71025202 672.31779352 1041.51514548 672.36836243 1071.3827095 C672.37485923 1074.49506217 672.38629903 1077.60736235 672.39880371 1080.71969604 C672.53227549 1119.07580439 670.84957073 1157.34985672 666.75 1195.5 C666.64706635 1196.48020111 666.54413269 1197.46040222 666.43807983 1198.4703064 C660.61074 1253.64920888 650.72103857 1308.24098711 637 1362 C636.79846313 1362.79198792 636.59692627 1363.58397583 636.38928223 1364.39996338 C630.14408774 1388.88280858 622.89031579 1412.99995503 615 1437 C614.7451886 1437.7777478 614.4903772 1438.55549561 614.22784424 1439.35681152 C602.0989232 1476.34612859 588.05486763 1512.53872745 572 1548 C571.49500977 1549.12422363 570.99001953 1550.24844727 570.46972656 1551.40673828 C557.10947457 1581.07628416 542.80587717 1610.56694104 526.35839844 1638.65478516 C524.5792803 1641.72635395 522.87090698 1644.83421642 521.1652832 1647.94702148 C515.39748271 1658.4721965 509.27001647 1668.76725035 503 1679 C502.5659082 1679.71043457 502.13181641 1680.42086914 501.68457031 1681.15283203 C494.41371308 1692.99801413 486.69794636 1704.55524933 479 1716.125 C478.49738647 1716.88159912 477.99477295 1717.63819824 477.47692871 1718.41772461 C467.93973248 1732.7620036 458.12973497 1746.90759353 447.875 1760.75 C447.28936279 1761.54237061 446.70372559 1762.33474121 446.1003418 1763.15112305 C441.14922052 1769.83279911 436.11645728 1776.444025 431 1783 C430.5555957 1783.57057129 430.11119141 1784.14114258 429.65332031 1784.72900391 C421.3461049 1795.38770191 412.84387688 1805.86589678 404.08813477 1816.15991211 C401.15716339 1819.61139859 398.28285249 1823.10218263 395.4375 1826.625 C391.56187067 1831.38807218 387.48765711 1835.93364249 383.33203125 1840.453125 C381.37594748 1842.58941749 379.45812303 1844.74780657 377.5625 1846.9375 C373.8013392 1851.26107737 369.92813359 1855.47959017 366.04223633 1859.69067383 C364.22445797 1861.6632682 362.41958008 1863.64473205 360.62475586 1865.63842773 C351.06136876 1876.18366696 340.95550089 1886.19716922 330.88085938 1896.24951172 C328.25985869 1898.86477852 325.64342706 1901.48456349 323.02827072 1904.10567284 C320.98472746 1906.15285261 318.93878037 1908.19761674 316.89212799 1910.24168777 C315.46407596 1911.66876533 314.03800703 1913.09782649 312.61199951 1914.52694702 C308.10972017 1919.01312879 303.56446167 1923.38039115 298.73150635 1927.51004028 C295.73956732 1930.08460123 292.87892548 1932.80060027 290 1935.5 C285.07483793 1940.09201226 280.11653757 1944.62098136 275 1949 C273.95430999 1949.8996035 272.90874931 1950.79935733 271.86328125 1951.69921875 C268.84697474 1954.29283657 265.82448107 1956.87912466 262.79931641 1959.46240234 C261.6391774 1960.45379386 260.47992905 1961.44622904 259.32177734 1962.43994141 C252.21069337 1968.5409647 244.97619432 1974.44079976 237.58203125 1980.1953125 C235.18535382 1982.0632438 232.80941491 1983.95337486 230.44921875 1985.8671875 C221.32037201 1993.26785337 211.94677466 2000.28032221 202.45263672 2007.20458984 C200.00368401 2008.99730318 197.56480332 2010.80287674 195.12890625 2012.61328125 C185.23001405 2019.9661147 175.23071656 2027.11665076 165 2034 C164.11715332 2034.59538574 163.23430664 2035.19077148 162.32470703 2035.80419922 C121.29335313 2063.43869447 78.99102362 2088.6184065 34.88140869 2111.04302979 C32.91014147 2112.04570614 30.94016112 2113.0508835 28.97021484 2114.05615234 C-14.10102895 2136.0081724 -58.4871898 2154.72182449 -104 2171 C-104.73077759 2171.26256592 -105.46155518 2171.52513184 -106.21447754 2171.7956543 C-178.97358461 2197.92371236 -254.51027199 2216.02277048 -331 2227 C-331.8267926 2227.11903687 -332.65358521 2227.23807373 -333.50543213 2227.36071777 C-353.17998392 2230.17853397 -372.89378846 2232.39491146 -392.6875 2234.1875 C-393.97368729 2234.30585709 -393.97368729 2234.30585709 -395.28585815 2234.42660522 C-401.85230652 2235.0235407 -408.42315274 2235.53216547 -415 2236 C-416.2255661 2236.08827057 -417.4511322 2236.17654114 -418.71383667 2236.26748657 C-444.46233519 2238.08289692 -470.1720654 2238.36262804 -495.97713089 2238.31785583 C-499.23417527 2238.31242213 -502.4912124 2238.31005041 -505.7482605 2238.3079834 C-535.74786542 2238.27830462 -565.61017863 2237.99897447 -595.503479 2235.22784424 C-598.06442554 2234.99412022 -600.62629618 2234.77598188 -603.18896484 2234.56201172 C-691.4371081 2227.16134212 -778.16233899 2209.52641969 -961 2143 C-962.03253906 2142.53819336 -963.06507813 2142.07638672 -964.12890625 2141.60058594 C-998.87709025 2126.0087395 -1033.0481951 2109.11392742 -1066 2090 C-1067.16726815 2089.32494684 -1068.33458801 2088.6499831 -1069.50195312 2087.97509766 C-1072.63654695 2086.1614814 -1075.76755621 2084.34179677 -1078.89624023 2082.51800537 C-1080.65988358 2081.49002637 -1082.42463883 2080.46395571 -1084.18945312 2079.43798828 C-1100.6403605 2069.79621576 -1116.59299845 2059.38333042 -1132.44384766 2048.79101562 C-1135.12824033 2046.99783545 -1137.81590613 2045.20964175 -1140.50390625 2043.421875 C-1154.69915395 2033.96237795 -1168.71854301 2024.2656528 -1182.4375 2014.125 C-1183.21697998 2013.54967529 -1183.99645996 2012.97435059 -1184.79956055 2012.3815918 C-1192.61102921 2006.58958541 -1200.28787339 2000.62943661 -1207.93359375 1994.62109375 C-1209.87821476 1993.09554041 -1211.82850454 1991.57763232 -1213.78125 1990.0625 C-1220.63488371 1984.73303817 -1227.32449793 1979.24795023 -1233.92578125 1973.609375 C-1236.70733088 1971.23730965 -1239.53348661 1968.92507288 -1242.375 1966.625 C-1252.16757697 1958.64269563 -1261.66372072 1950.31138776 -1270.93994141 1941.73608398 C-1273.52900484 1939.34284311 -1276.14007644 1936.98716062 -1278.8125 1934.6875 C-1287.7909992 1926.89235948 -1296.5117887 1918.70649448 -1304.77734375 1910.16015625 C-1306.71778689 1908.27427742 -1308.70267422 1906.50934503 -1310.75 1904.7421875 C-1315.03382123 1901.02021144 -1319.06264222 1897.08563533 -1323.0625 1893.0625 C-1324.06506836 1892.06573242 -1324.06506836 1892.06573242 -1325.08789062 1891.04882812 C-1329.00864157 1887.12045667 -1332.72010856 1883.07406187 -1336.34545898 1878.87280273 C-1338.77598257 1876.12165231 -1341.37280202 1873.5615289 -1344 1871 C-1347.84270631 1867.20401891 -1351.53423643 1863.36331241 -1355.03515625 1859.24609375 C-1357.190171 1856.7826077 -1359.41867875 1854.39995234 -1361.65917969 1852.0144043 C-1366.9477002 1846.38349949 -1372.00218327 1840.66792309 -1376.83203125 1834.6328125 C-1379.09032463 1831.89030846 -1381.45781334 1829.2906241 -1383.875 1826.6875 C-1388.11620981 1822.07919939 -1391.99478028 1817.28429105 -1395.8215332 1812.33496094 C-1398.96790157 1808.27691422 -1402.21864945 1804.333946 -1405.5625 1800.4375 C-1410.4065616 1794.77025344 -1414.99275144 1788.93141594 -1419.49072266 1782.98632812 C-1421.23815096 1780.68657454 -1422.99964192 1778.39792332 -1424.76171875 1776.109375 C-1432.57099955 1765.94764105 -1440.18566761 1755.69215183 -1447.49169922 1745.16308594 C-1449.0666672 1742.90439116 -1450.65845409 1740.65832873 -1452.25390625 1738.4140625 C-1472.67649184 1709.61343189 -1491.52135039 1679.67090297 -1509 1649 C-1509.59248535 1647.96069336 -1510.1849707 1646.92138672 -1510.79541016 1645.85058594 C-1521.39846243 1627.17349306 -1531.34153437 1608.17939373 -1541 1589 C-1541.56396484 1587.88286621 -1542.12792969 1586.76573242 -1542.70898438 1585.61474609 C-1559.20632509 1552.7265973 -1573.44218163 1518.57424077 -1586 1484 C-1586.42155365 1482.84331818 -1586.42155365 1482.84331818 -1586.85162354 1481.66326904 C-1628 1368.64334918 -1628 1368.64334918 -1628 1335 C-1594.93078145 1331.09150242 -1561.83968043 1327.38291617 -1528.74224472 1323.72256279 C-1520.18149641 1322.7757764 -1511.62114715 1321.82553841 -1503.0612992 1320.87064475 C-1496.93673153 1320.18769048 -1490.81175279 1319.50850743 -1484.68645394 1318.83214265 C-1481.06533311 1318.43220176 -1477.44440306 1318.03069819 -1473.82390976 1317.62511253 C-1469.8244386 1317.17717318 -1465.82414358 1316.73705499 -1461.82373047 1316.29760742 C-1460.65194244 1316.16520157 -1459.48015442 1316.03279572 -1458.27285767 1315.89637756 C-1452.13762569 1315.22943089 -1446.17137461 1314.86467512 -1440 1315 C-1437.89931112 1320.9896224 -1436.14904678 1327.02091142 -1434.50727844 1333.15171814 C-1418.44818367 1393.07034025 -1396.38863497 1450.38135119 -1369 1506 C-1368.17701416 1507.68464355 -1368.17701416 1507.68464355 -1367.33740234 1509.40332031 C-1359.89577199 1524.62226211 -1352.07826675 1539.54125998 -1343.60009766 1554.20996094 C-1341.98504636 1557.02607419 -1340.40033145 1559.85724305 -1338.82421875 1562.6953125 C-1331.00214557 1576.75877067 -1322.66100658 1590.43846318 -1314 1604 C-1313.48131348 1604.81259277 -1312.96262695 1605.62518555 -1312.42822266 1606.46240234 C-1309.31512569 1611.32784331 -1306.16940695 1616.1710806 -1303 1621 C-1302.41653809 1621.89162842 -1302.41653809 1621.89162842 -1301.82128906 1622.80126953 C-1289.48271324 1641.62150228 -1276.46314669 1659.97063544 -1263 1678 C-1262.13637723 1679.16380915 -1261.27306749 1680.32785069 -1260.41015625 1681.4921875 C-1255.73748552 1687.77033997 -1250.92462166 1693.91789807 -1246 1700 C-1231.08420621 1686.27318697 -1216.80660954 1671.9234434 -1202.50054812 1657.5690105 C-1199.09790414 1654.15624514 -1195.69189641 1650.74684038 -1192.28614807 1647.33717346 C-1183.66692405 1638.70694943 -1175.05199604 1630.072443 -1166.4375 1621.4375 C-1157.10094872 1612.07884608 -1147.76360981 1602.7209851 -1138.4213987 1593.36798054 C-1134.38457942 1589.32620692 -1130.35020302 1585.28201595 -1126.31774223 1581.23589408 C-1123.80929715 1578.71995808 -1121.29875342 1576.20612414 -1118.78765297 1573.69283867 C-1117.63067769 1572.53400195 -1116.47456176 1571.37430646 -1115.3194046 1570.21365738 C-1105.51659244 1560.36573083 -1105.51659244 1560.36573083 -1101.020401 1556.520401 C-1095.25918508 1551.58908549 -1089.99867103 1546.12101204 -1084.65234375 1540.75 C-1083.42300417 1539.51873809 -1082.19343437 1538.28770598 -1080.96365356 1537.05688477 C-1078.32899235 1534.41907754 -1075.69588919 1531.77972854 -1073.06399536 1529.13916016 C-1068.89691839 1524.95849059 -1064.72596711 1520.78170062 -1060.55444336 1516.60546875 C-1051.69999005 1507.73994419 -1042.84977417 1498.87019502 -1034 1490 C-1024.44395561 1480.42190504 -1014.88717658 1470.84455005 -1005.32549763 1461.27207947 C-1001.18415236 1457.1257707 -997.04525331 1452.97704046 -992.9082489 1448.82640076 C-990.32878316 1446.23944316 -987.74721805 1443.65458826 -985.16509628 1441.07028198 C-983.97426529 1439.87758888 -982.78429402 1438.68403664 -981.59527969 1437.48953247 C-971.49701068 1427.34613405 -971.49701068 1427.34613405 -967.0057373 1423.5057373 C-961.21539436 1418.55335985 -955.9322273 1413.05448292 -950.56054688 1407.65820312 C-949.32135518 1406.41708914 -948.0819333 1405.17620494 -946.84230042 1403.93553162 C-944.18635841 1401.2764434 -941.53197445 1398.61581327 -938.87879944 1395.95396423 C-934.67811699 1391.73969026 -930.47356116 1387.5292949 -926.26843262 1383.31945801 C-917.3426498 1374.3826035 -908.42110416 1365.44152455 -899.5 1356.5 C-889.8669663 1346.84491631 -880.23319828 1337.19057222 -870.59453058 1327.54111242 C-866.41973396 1323.36135198 -862.24738355 1319.17916989 -858.07692719 1314.99507904 C-855.47670222 1312.38736277 -852.87437837 1309.78174868 -850.27149773 1307.17668343 C-849.07099148 1305.9743149 -847.87134504 1304.77108716 -846.67265511 1303.56690788 C-841.28998458 1298.1603782 -835.90446797 1292.83779989 -830.10250092 1287.87665558 C-825.07882407 1283.39260941 -820.40152533 1278.52110923 -815.65234375 1273.75 C-814.42300417 1272.51873809 -813.19343437 1271.28770598 -811.96365356 1270.05688477 C-809.32899235 1267.41907754 -806.69588919 1264.77972854 -804.06399536 1262.13916016 C-799.89691839 1257.95849059 -795.72596711 1253.78170062 -791.55444336 1249.60546875 C-782.69999005 1240.73994419 -773.84977417 1231.87019502 -765 1223 C-755.44395561 1213.42190504 -745.88717658 1203.84455005 -736.32549763 1194.27207947 C-732.18415236 1190.1257707 -728.04525331 1185.97704046 -723.9082489 1181.82640076 C-721.32878316 1179.23944316 -718.74721805 1176.65458826 -716.16509628 1174.07028198 C-714.97426529 1172.87758888 -713.78429402 1171.68403664 -712.59527969 1170.48953247 C-702.49701068 1160.34613405 -702.49701068 1160.34613405 -698.0057373 1156.5057373 C-692.21539436 1151.55335985 -686.9322273 1146.05448292 -681.56054688 1140.65820312 C-680.32135518 1139.41708914 -679.0819333 1138.17620494 -677.84230042 1136.93553162 C-675.18635841 1134.2764434 -672.53197445 1131.61581327 -669.87879944 1128.95396423 C-665.67811699 1124.73969026 -661.47356116 1120.5292949 -657.26843262 1116.31945801 C-648.3426498 1107.3826035 -639.42110416 1098.44152455 -630.5 1089.5 C-620.8669663 1079.84491631 -611.23319828 1070.19057222 -601.59453058 1060.54111242 C-597.41973396 1056.36135198 -593.24738355 1052.17916989 -589.07692719 1047.99507904 C-586.47670222 1045.38736277 -583.87437837 1042.78174868 -581.27149773 1040.17668343 C-580.07099148 1038.9743149 -578.87134504 1037.77108716 -577.67265511 1036.56690788 C-572.28998458 1031.1603782 -566.90446797 1025.83779989 -561.10250092 1020.87665558 C-556.07882407 1016.39260941 -551.40152533 1011.52110923 -546.65234375 1006.75 C-545.42300417 1005.51873809 -544.19343437 1004.28770598 -542.96365356 1003.05688477 C-540.32899235 1000.41907754 -537.69588919 997.77972854 -535.06399536 995.13916016 C-530.89691839 990.95849059 -526.72596711 986.78170062 -522.55444336 982.60546875 C-513.69999005 973.73994419 -504.84977417 964.87019502 -496 956 C-486.44395561 946.42190504 -476.88717658 936.84455005 -467.32549763 927.27207947 C-463.18415236 923.1257707 -459.04525331 918.97704046 -454.9082489 914.82640076 C-452.32878316 912.23944316 -449.74721805 909.65458826 -447.16509628 907.07028198 C-445.97426529 905.87758888 -444.78429402 904.68403664 -443.59527969 903.48953247 C-433.49701068 893.34613405 -433.49701068 893.34613405 -429.0057373 889.5057373 C-423.21539436 884.55335985 -417.9322273 879.05448292 -412.56054688 873.65820312 C-411.32135518 872.41708914 -410.0819333 871.17620494 -408.84230042 869.93553162 C-406.18635841 867.2764434 -403.53197445 864.61581327 -400.87879944 861.95396423 C-396.67811699 857.73969026 -392.47356116 853.5292949 -388.26843262 849.31945801 C-379.3426498 840.3826035 -370.42110416 831.44152455 -361.5 822.5 C-351.8669663 812.84491631 -342.23319828 803.19057222 -332.59453058 793.54111242 C-328.41973396 789.36135198 -324.24738355 785.17916989 -320.07692719 780.99507904 C-317.47670222 778.38736277 -314.87437837 775.78174868 -312.27149773 773.17668343 C-311.07099148 771.9743149 -309.87134504 770.77108716 -308.67265511 769.56690788 C-303.28998458 764.1603782 -297.90446797 758.83779989 -292.10250092 753.87665558 C-287.07882407 749.39260941 -282.40152533 744.52110923 -277.65234375 739.75 C-276.42300417 738.51873809 -275.19343437 737.28770598 -273.96365356 736.05688477 C-271.32899235 733.41907754 -268.69588919 730.77972854 -266.06399536 728.13916016 C-261.89691839 723.95849059 -257.72596711 719.78170062 -253.55444336 715.60546875 C-244.69999005 706.73994419 -235.84977417 697.87019502 -227 689 C-217.44395561 679.42190504 -207.88717658 669.84455005 -198.32549763 660.27207947 C-194.18415236 656.1257707 -190.04525331 651.97704046 -185.9082489 647.82640076 C-183.32878316 645.23944316 -180.74721805 642.65458826 -178.16509628 640.07028198 C-176.97426529 638.87758888 -175.78429402 637.68403664 -174.59527969 636.48953247 C-164.49701068 626.34613405 -164.49701068 626.34613405 -160.0057373 622.5057373 C-154.21539436 617.55335985 -148.9322273 612.05448292 -143.56054688 606.65820312 C-142.32135518 605.41708914 -141.0819333 604.17620494 -139.84230042 602.93553162 C-137.18635841 600.2764434 -134.53197445 597.61581327 -131.87879944 594.95396423 C-127.67811699 590.73969026 -123.47356116 586.5292949 -119.26843262 582.31945801 C-110.3426498 573.3826035 -101.42110416 564.44152455 -92.5 555.5 C-82.8669663 545.84491631 -73.23319828 536.19057222 -63.59453058 526.54111242 C-59.41973396 522.36135198 -55.24738355 518.17916989 -51.07692719 513.99507904 C-48.47670222 511.38736277 -45.87437837 508.78174868 -43.27149773 506.17668343 C-42.07099148 504.9743149 -40.87134504 503.77108716 -39.67265511 502.56690788 C-34.28998458 497.1603782 -28.90446797 491.83779989 -23.10250092 486.87665558 C-18.07882407 482.39260941 -13.40152533 477.52110923 -8.65234375 472.75 C-7.42300417 471.51873809 -6.19343437 470.28770598 -4.96365356 469.05688477 C-2.32899235 466.41907754 0.30411081 463.77972854 2.93600464 461.13916016 C7.10308161 456.95849059 11.27403289 452.78170062 15.44555664 448.60546875 C24.30000995 439.73994419 33.15022583 430.87019502 42 422 C51.55604439 412.42190504 61.11282342 402.84455005 70.67450237 393.27207947 C74.81584764 389.1257707 78.95474669 384.97704046 83.0917511 380.82640076 C85.67121684 378.23944316 88.25278195 375.65458826 90.83490372 373.07028198 C92.02573471 371.87758888 93.21570598 370.68403664 94.40472031 369.48953247 C99.91241853 363.95722021 105.40696475 358.45793589 111.3638773 353.40197086 C116.01604646 349.4155916 120.30489191 345.00054416 124.65698242 340.69311523 C125.85125578 339.515545 127.05088757 338.34338632 128.25561523 337.17651367 C130.01471585 335.47213958 131.7568229 333.75192128 133.49609375 332.02734375 C134.03455429 331.51155258 134.57301483 330.99576141 135.12779236 330.46434021 C138.44997788 327.12301288 139.81422501 324.7308203 140 320 C136.40822403 308.06482776 126.39405574 300.35549796 117 293 C115.89031548 292.1240899 114.78094982 291.24777572 113.671875 290.37109375 C111.31457995 288.51087903 108.95208851 286.65752883 106.5859375 284.80859375 C104.27035255 282.99848862 101.96302864 281.1788174 99.6640625 279.34765625 C50.61799186 240.35660508 -3.14381311 206.37906802 -58.80078125 177.6953125 C-61.81754939 176.13963096 -64.82052933 174.56847562 -67.79296875 172.9296875 C-80.52176669 165.92811625 -93.76755181 159.97605574 -107 154 C-108.19077148 153.46181641 -109.38154297 152.92363281 -110.60839844 152.36914062 C-131.40864737 143.02978904 -152.56949846 134.77332619 -174 127 C-174.76399109 126.72242859 -175.52798218 126.44485718 -176.31512451 126.15887451 C-246.93024848 100.56861951 -320.80498162 84.3375971 -395.5 76.75 C-396.24649811 76.67286774 -396.99299622 76.59573547 -397.76211548 76.51626587 C-426.54442928 73.58537345 -455.28638429 72.61785773 -484.1986351 72.68194199 C-486.79670016 72.68760173 -489.39475863 72.69041018 -491.99282837 72.69302368 C-517.89870772 72.73085788 -543.67262698 73.19410136 -569.47186279 75.75 C-572.08493205 76.00839868 -574.69885297 76.25654363 -577.31298828 76.50390625 C-667.1654773 85.1294497 -756.17607521 106.43869852 -919.77490234 175.41894531 C-922.66549873 176.83601588 -925.56067491 178.24319431 -928.45703125 179.6484375 C-940.25778278 185.41528935 -951.66972418 191.78586362 -963.05908203 198.32226562 C-965.99715596 199.99837753 -968.94711516 201.65122213 -971.90234375 203.296875 C-983.34250291 209.67601137 -994.53178484 216.32163101 -1005.53857422 223.42138672 C-1008.17321671 225.11109098 -1010.82133472 226.77800491 -1013.47265625 228.44140625 C-1024.19920681 235.18404831 -1034.69413265 242.14377786 -1044.97314453 249.54980469 C-1047.00077448 251.00055413 -1049.0421772 252.42926043 -1051.08984375 253.8515625 C-1080.97199768 274.63807613 -1109.8202097 297.52982504 -1136.78125 321.99609375 C-1138.79308393 323.81311982 -1140.82660434 325.59944392 -1142.875 327.375 C-1148.34344159 332.14765579 -1153.67775228 337.06575658 -1159 342 C-1159.94625244 342.87640137 -1159.94625244 342.87640137 -1160.91162109 343.77050781 C-1169.28593729 351.5436015 -1177.5316581 359.434289 -1185.625 367.5 C-1186.3586377 368.22904541 -1187.09227539 368.95809082 -1187.84814453 369.70922852 C-1191.89324581 373.76592965 -1195.74542926 377.92882983 -1199.48583984 382.26757812 C-1201.23868231 384.27308766 -1203.08416415 386.15022745 -1205 388 C-1208.19261312 391.1498003 -1211.17161279 394.41219489 -1214.09375 397.8125 C-1216.30945648 400.35511399 -1218.59098592 402.83110198 -1220.875 405.3125 C-1224.92521292 409.75250784 -1228.75534122 414.31934281 -1232.52734375 418.99609375 C-1235.40884197 422.49668164 -1238.3875972 425.90243373 -1241.375 429.3125 C-1247.51265922 436.35098636 -1253.31739544 443.59159356 -1259 451 C-1259.60215332 451.78149414 -1260.20430664 452.56298828 -1260.82470703 453.36816406 C-1274.06277882 470.55952305 -1286.8369866 488.03149383 -1299 506 C-1299.6197168 506.91313965 -1299.6197168 506.91313965 -1300.25195312 507.84472656 C-1344.86741005 573.70732264 -1381.08443454 645.17328829 -1408 720 C-1408.43699219 721.21462921 -1408.43699219 721.21462921 -1408.8828125 722.45379639 C-1420.61554527 755.1666687 -1430.24562277 788.37959213 -1439 822 C-1466.96509705 819.44745932 -1494.92834675 816.87516776 -1522.89022827 814.28764343 C-1525.97928411 814.00191615 -1529.06837283 813.71654686 -1532.1574707 813.43127441 C-1542.98808736 812.43077139 -1553.81823291 811.42550089 -1564.64728165 810.40815353 C-1569.27468682 809.97346803 -1573.90226815 809.54094784 -1578.53039551 809.11401367 C-1582.88041022 808.71260704 -1587.22978265 808.30484637 -1591.57874298 807.89217758 C-1593.16964704 807.74229295 -1594.76076454 807.59465364 -1596.35210419 807.44946671 C-1598.52703778 807.25065526 -1600.70103546 807.0435789 -1602.875 806.83447266 C-1604.69644531 806.66415024 -1604.69644531 806.66415024 -1606.5546875 806.49038696 C-1615.82977888 805.17022112 -1615.82977888 805.17022112 -1619 802 C-1620.82148814 794.27991038 -1619.21623265 786.83782207 -1617.9375 779.125 C-1617.82329712 778.41925842 -1617.70909424 777.71351685 -1617.59143066 776.98638916 C-1608.6403406 721.84488199 -1588.46411654 668.90970439 -1566 618 C-1565.72601379 617.37683899 -1565.45202759 616.75367798 -1565.16973877 616.1116333 C-1556.25958678 595.858349 -1546.63430981 575.98224898 -1536.75 556.1875 C-1536.20664001 555.09719482 -1535.66328003 554.00688965 -1535.10345459 552.88354492 C-1528.10871415 538.86922532 -1520.86570988 525.02166023 -1513.28161621 511.31723022 C-1512.15293841 509.27652077 -1511.02999255 507.23287078 -1509.91113281 505.18676758 C-1501.20317245 489.27527089 -1492.1521132 473.60716739 -1482.82666016 458.05224609 C-1481.17117979 455.28603178 -1479.52646017 452.51384356 -1477.88671875 449.73828125 C-1454.0630237 409.52158659 -1427.50562097 370.82461828 -1398.62988281 334.07519531 C-1397.08040732 332.102376 -1395.53555489 330.12603699 -1393.9921875 328.1484375 C-1386.22549489 318.20856327 -1378.26104249 308.44887219 -1370.08813477 298.84008789 C-1367.15716339 295.38860141 -1364.28285249 291.89781737 -1361.4375 288.375 C-1357.56420728 283.61479947 -1353.49240008 279.07195216 -1349.33984375 274.5546875 C-1347.34165152 272.37302185 -1345.37851111 270.16988691 -1343.4375 267.9375 C-1333.41056852 256.41818803 -1323.20836497 244.92027347 -1312.23046875 234.29296875 C-1310.36612544 232.37638465 -1308.63045075 230.42563032 -1306.890625 228.3984375 C-1302.35302588 223.17459092 -1297.46368287 218.3177823 -1292.5625 213.4375 C-1291.65951172 212.53064453 -1290.75652344 211.62378906 -1289.82617188 210.68945312 C-1285.26501274 206.13489958 -1280.6451911 201.73264785 -1275.75366211 197.53540039 C-1273.20636046 195.30513726 -1270.86561021 192.92261287 -1268.5 190.5 C-1264.86440864 186.81511037 -1261.15387033 183.29264096 -1257.21484375 179.93359375 C-1254.8865496 177.900956 -1252.62823267 175.80584597 -1250.36987305 173.69628906 C-1244.94187947 168.62669587 -1239.40728756 163.79818321 -1233.61328125 159.14453125 C-1231.00152377 157.00125044 -1228.49634698 154.7761967 -1226 152.5 C-1220.82495823 147.79541657 -1215.43932438 143.3938261 -1210 139 C-1208.73378497 137.96556556 -1207.46819657 136.93036378 -1206.203125 135.89453125 C-1197.9116351 129.11314075 -1189.54678204 122.45820781 -1181 116 C-1180.26797363 115.44586426 -1179.53594727 114.89172852 -1178.78173828 114.32080078 C-1172.87423675 109.85386048 -1166.94302537 105.41953553 -1161 101 C-1160.29875 100.47599609 -1159.5975 99.95199219 -1158.875 99.41210938 C-1143.5965857 88.02790028 -1127.62660633 77.62879017 -1111.7277832 67.14056396 C-1110.2503299 66.16525063 -1108.7744204 65.18759935 -1107.29882812 64.20947266 C-1086.1378754 50.19057412 -1064.2254732 37.24846928 -1042 25 C-1040.5776001 24.21157715 -1040.5776001 24.21157715 -1039.12646484 23.40722656 C-1009.17942284 6.85268157 -978.47923882 -8.57471969 -947 -22 C-946.36652649 -22.27054199 -945.73305298 -22.54108398 -945.0803833 -22.81982422 C-863.11279235 -57.77506015 -777.5806397 -83.28434818 0 0 Z M284 466 C283.25492943 466.74599236 282.50985886 467.49198473 281.74221039 468.26058292 C263.59987493 486.42513328 245.45464489 504.58678817 227.30638885 522.74542332 C218.530045 531.52692004 209.75463869 540.30934982 200.98144531 549.09399414 C193.33335066 556.75206646 185.68349062 564.40837015 178.03151941 572.06256908 C173.98120329 576.11418706 169.93176725 580.16667581 165.88444519 584.22128487 C162.07162728 588.04091162 158.2564456 591.85816148 154.4394722 595.67363548 C153.04225319 597.07112863 151.64588497 598.46947303 150.25045395 599.86875153 C148.33754678 601.78667202 146.42153311 603.70143723 144.50476074 605.61549377 C143.95998502 606.16318234 143.4152093 606.7108709 142.85392523 607.27515608 C140.04242031 610.07598836 137.16744634 612.74875758 134.16035461 615.33922482 C129.54186449 619.34147886 125.23978405 623.6275086 120.92956543 627.95690918 C120.0504108 628.83591495 119.17125617 629.71492072 118.26546049 630.62056303 C115.84582402 633.04077063 113.4284412 635.46318889 111.01200461 637.88658881 C108.39758742 640.50741619 105.78023251 643.12530689 103.16322327 645.74354553 C98.63442794 650.27521972 94.10741053 654.80866362 89.58155823 659.34327698 C83.02983202 665.90759191 76.474838 672.46863602 69.91896218 679.02880639 C59.27022469 689.6846024 48.62335724 700.34226463 37.97802734 711.00146484 C37.34166766 711.63865234 36.70530798 712.27583983 36.04966468 712.93233603 C31.53305987 717.45484084 27.01652214 721.97741263 22.5 726.5 C17.34070382 731.66622459 12.18137729 736.83241888 7.02197266 741.99853516 C6.0686041 742.9531459 6.0686041 742.9531459 5.09597558 743.92704171 C-5.51109009 754.54780519 -16.12012845 765.16659604 -26.73056936 775.78398752 C-33.26800839 782.32590007 -39.80366641 788.86958226 -46.33701599 795.41557896 C-50.81456011 799.90156533 -55.29388503 804.38576829 -59.77459967 808.86858785 C-62.35712843 811.45245794 -64.93882824 814.03714229 -67.51830864 816.62405586 C-70.31933829 819.43312633 -73.12427484 822.23827523 -75.92956543 825.04309082 C-77.14125672 826.26017455 -77.14125672 826.26017455 -78.37742662 827.50184584 C-82.45459006 831.57163559 -86.61933076 835.44879315 -90.98232508 839.20859098 C-94.82183605 842.61753189 -98.41116253 846.28144307 -102.0324707 849.91894531 C-102.90754178 850.79386753 -103.78261286 851.66878975 -104.68420124 852.57022476 C-107.0924362 854.97903081 -109.4984175 857.39004731 -111.9034524 859.80204582 C-114.50559937 862.4106033 -117.11068438 865.0162238 -119.71542358 867.62219238 C-124.22293803 872.13258562 -128.72867457 876.64474853 -133.23324585 881.15808105 C-139.7542028 887.69162706 -146.27842785 894.22190194 -152.80353463 900.7513032 C-163.40235786 911.35718487 -173.99931104 921.96493277 -184.59472656 932.57421875 C-185.22809563 933.20841563 -185.86146469 933.8426125 -186.51402676 934.49602747 C-191.00940109 938.9973018 -195.50470835 943.49864311 -200 948 C-205.13504488 953.14197329 -210.2701201 958.28391628 -215.40527344 963.42578125 C-216.03786548 964.05920142 -216.67045752 964.69262158 -217.32221901 965.3452363 C-227.87956405 975.91627931 -238.43888191 986.48534957 -248.99960232 997.05302048 C-255.50633194 1003.56422353 -262.01128058 1010.07719614 -268.51392055 1016.59248352 C-272.97043978 1021.05744521 -277.42873999 1025.5206233 -281.88842988 1029.98241806 C-284.45880708 1032.55413654 -287.02835542 1035.12666912 -289.59568405 1037.70143127 C-292.38357625 1040.49736484 -295.17537588 1043.28937624 -297.9675293 1046.08105469 C-298.77143254 1046.88855289 -299.57533579 1047.6960511 -300.40359974 1048.52801895 C-304.47157395 1052.58860222 -308.62800718 1056.45577015 -312.98099041 1060.20725632 C-316.82083693 1063.61677979 -320.41071045 1067.28098897 -324.0324707 1070.91894531 C-324.90754178 1071.79386753 -325.78261286 1072.66878975 -326.68420124 1073.57022476 C-329.0924362 1075.97903081 -331.4984175 1078.39004731 -333.9034524 1080.80204582 C-336.50559937 1083.4106033 -339.11068438 1086.0162238 -341.71542358 1088.62219238 C-346.22293803 1093.13258562 -350.72867457 1097.64474853 -355.23324585 1102.15808105 C-361.7542028 1108.69162706 -368.27842785 1115.22190194 -374.80353463 1121.7513032 C-385.40235786 1132.35718487 -395.99931104 1142.96493277 -406.59472656 1153.57421875 C-407.22809563 1154.20841563 -407.86146469 1154.8426125 -408.51402676 1155.49602747 C-413.00940109 1159.9973018 -417.50470835 1164.49864311 -422 1169 C-427.13504488 1174.14197329 -432.2701201 1179.28391628 -437.40527344 1184.42578125 C-438.3541615 1185.3759115 -438.3541615 1185.3759115 -439.32221901 1186.3452363 C-449.87956405 1196.91627931 -460.43888191 1207.48534957 -470.99960232 1218.05302048 C-477.50633194 1224.56422353 -484.01128058 1231.07719614 -490.51392055 1237.59248352 C-494.97043978 1242.05744521 -499.42873999 1246.5206233 -503.88842988 1250.98241806 C-506.45880708 1253.55413654 -509.02835542 1256.12666912 -511.59568405 1258.70143127 C-514.38357625 1261.49736484 -517.17537588 1264.28937624 -519.9675293 1267.08105469 C-520.77143254 1267.88855289 -521.57533579 1268.6960511 -522.40359974 1269.52801895 C-525.84720822 1272.96537087 -529.31114019 1276.32080761 -532.99762726 1279.49762726 C-537.57067913 1283.43879266 -541.81274581 1287.68027224 -546.07043457 1291.95690918 C-546.9495892 1292.83591495 -547.82874383 1293.71492072 -548.73453951 1294.62056303 C-551.15417598 1297.04077063 -553.5715588 1299.46318889 -555.98799539 1301.88658881 C-558.60241258 1304.50741619 -561.21976749 1307.12530689 -563.83677673 1309.74354553 C-568.36557206 1314.27521972 -572.89258947 1318.80866362 -577.41844177 1323.34327698 C-583.97016798 1329.90759191 -590.525162 1336.46863602 -597.08103782 1343.02880639 C-607.72977531 1353.6846024 -618.37664276 1364.34226463 -629.02197266 1375.00146484 C-629.65833234 1375.63865234 -630.29469202 1376.27583983 -630.95033532 1376.93233603 C-635.46694013 1381.45484084 -639.98347786 1385.97741263 -644.5 1390.5 C-649.65929618 1395.66622459 -654.81862271 1400.83241888 -659.97802734 1405.99853516 C-660.61360638 1406.63494232 -661.24918542 1407.27134948 -661.90402442 1407.92704171 C-672.51109009 1418.54780519 -683.12012845 1429.16659604 -693.73056936 1439.78398752 C-700.26800839 1446.32590007 -706.80366641 1452.86958226 -713.33701599 1459.41557896 C-717.81456011 1463.90156533 -722.29388503 1468.38576829 -726.77459967 1472.86858785 C-729.35712843 1475.45245794 -731.93882824 1478.03714229 -734.51830864 1480.62405586 C-737.31933829 1483.43312633 -740.12427484 1486.23827523 -742.92956543 1489.04309082 C-744.14125672 1490.26017455 -744.14125672 1490.26017455 -745.37742662 1491.50184584 C-749.45459006 1495.57163559 -753.61933076 1499.44879315 -757.98232508 1503.20859098 C-761.82183605 1506.61753189 -765.41116253 1510.28144307 -769.0324707 1513.91894531 C-769.90754178 1514.79386753 -770.78261286 1515.66878975 -771.68420124 1516.57022476 C-774.0924362 1518.97903081 -776.4984175 1521.39004731 -778.9034524 1523.80204582 C-781.50559937 1526.4106033 -784.11068438 1529.0162238 -786.71542358 1531.62219238 C-791.22293803 1536.13258562 -795.72867457 1540.64474853 -800.23324585 1545.15808105 C-806.7542028 1551.69162706 -813.27842785 1558.22190194 -819.80353463 1564.7513032 C-830.40235786 1575.35718487 -840.99931104 1585.96493277 -851.59472656 1596.57421875 C-852.22809563 1597.20841563 -852.86146469 1597.8426125 -853.51402676 1598.49602747 C-858.00940109 1602.9973018 -862.50470835 1607.49864311 -867 1612 C-872.13504488 1617.14197329 -877.2701201 1622.28391628 -882.40527344 1627.42578125 C-883.03786548 1628.05920142 -883.67045752 1628.69262158 -884.32221901 1629.3452363 C-894.87956405 1639.91627931 -905.43888191 1650.48534957 -915.99960232 1661.05302048 C-922.50633194 1667.56422353 -929.01128058 1674.07719614 -935.51392055 1680.59248352 C-939.97043978 1685.05744521 -944.42873999 1689.5206233 -948.88842988 1693.98241806 C-951.45880708 1696.55413654 -954.02835542 1699.12666912 -956.59568405 1701.70143127 C-959.38357625 1704.49736484 -962.17537588 1707.28937624 -964.9675293 1710.08105469 C-965.77143254 1710.88855289 -966.57533579 1711.6960511 -967.40359974 1712.52801895 C-971.54329634 1716.6601943 -975.77041059 1720.61215158 -980.20184422 1724.42934358 C-982.70184231 1726.61304651 -985.05476389 1728.92565309 -987.40380859 1731.27009583 C-987.88841962 1731.75244129 -988.37303064 1732.23478676 -988.87232685 1732.73174876 C-990.46670938 1734.3198909 -992.0575883 1735.91149299 -993.6484375 1737.50317383 C-994.8021149 1738.65385387 -995.9559953 1739.80433041 -997.11006165 1740.95462036 C-1000.22141307 1744.05719552 -1003.3295689 1747.16295247 -1006.43685532 1750.26959825 C-1008.37878218 1752.21081204 -1010.32142026 1754.15131115 -1012.26431274 1756.09155846 C-1019.0425006 1762.86052061 -1025.81812663 1769.63203478 -1032.59130859 1776.40600586 C-1038.90801055 1782.72331088 -1045.23029457 1789.03499146 -1051.55516434 1795.34411794 C-1056.98983625 1800.76574283 -1062.42067496 1806.19118699 -1067.84850693 1811.6196596 C-1071.08888788 1814.86029598 -1074.33081605 1818.09934729 -1077.57659912 1821.33457375 C-1080.62127465 1824.36961378 -1083.66117328 1827.4093562 -1086.69737816 1830.45286942 C-1087.81474807 1831.57129022 -1088.93384445 1832.68798909 -1090.05474281 1833.80287361 C-1091.57849061 1835.3189707 -1093.0960176 1836.8410266 -1094.61206055 1838.36482239 C-1095.89067207 1839.64261676 -1095.89067207 1839.64261676 -1097.19511414 1840.94622517 C-1099.22004188 1842.79469255 -1099.22004188 1842.79469255 -1099 1845 C-1097.32878043 1846.44487629 -1095.58175591 1847.80198228 -1093.8125 1849.125 C-1092.61305402 1850.02704168 -1091.41385248 1850.92940846 -1090.21484375 1851.83203125 C-1089.54565918 1852.33299316 -1088.87647461 1852.83395508 -1088.18701172 1853.35009766 C-1085.81993249 1855.13584463 -1083.47341661 1856.9464515 -1081.12890625 1858.76171875 C-1071.12554823 1866.4873456 -1060.99199594 1873.90089852 -1050.4921875 1880.9375 C-1047.14357051 1883.19049862 -1043.87770917 1885.53648816 -1040.625 1887.92578125 C-1035.23905067 1891.86450795 -1029.72514946 1895.56169019 -1024.125 1899.1875 C-1023.13105225 1899.83259521 -1022.13710449 1900.47769043 -1021.11303711 1901.14233398 C-957.62325166 1942.20144565 -890.142693 1976.36747984 -819 2002 C-818.19967346 2002.28897156 -817.39934692 2002.57794312 -816.57476807 2002.87567139 C-729.33119298 2034.30529061 -637.90501447 2052.40487886 -518.7578125 2058.203125 C-516.95248388 2058.21014511 -515.14715551 2058.21723194 -513.34182739 2058.22438049 C-507.60288132 2058.24378897 -501.86397558 2058.24881445 -496.125 2058.25 C-495.14802658 2058.25044186 -494.17105316 2058.25088371 -493.16447449 2058.25133896 C-465.17515708 2058.25798144 -437.29901895 2058.19902029 -409.43371582 2055.25646973 C-406.85336279 2054.98454708 -404.27201776 2054.72378837 -401.69042969 2054.46386719 C-312.89887654 2045.42043865 -225.45471455 2025.06691847 -94 1972 C-92.89140625 1971.49645996 -91.7828125 1970.99291992 -90.640625 1970.47412109 C-67.42489009 1959.89755801 -44.55454229 1948.8299929 -22.43359375 1936.10546875 C-18.19264074 1933.66675209 -13.91401445 1931.31256131 -9.60693359 1928.99316406 C23.98268092 1910.86629641 55.99044715 1889.18312415 86.75830078 1866.64013672 C89.09319641 1864.93181295 91.43502205 1863.23328027 93.77734375 1861.53515625 C102.80896556 1854.96290054 111.61076228 1848.18917398 120.23046875 1841.0859375 C123.81212446 1838.13720325 127.46013462 1835.28162829 131.125 1832.4375 C137.67946613 1827.32877665 143.98074818 1821.95498421 150.25439453 1816.50732422 C151.98187975 1815.01564678 153.72090215 1813.53879474 155.46484375 1812.06640625 C162.37869277 1806.21832073 169.09890078 1800.2090898 175.67553711 1793.98291016 C178.57867408 1791.23775879 181.50692925 1788.55300215 184.54711914 1785.95996094 C189.86809574 1781.3140615 194.82968147 1776.31486358 199.81640625 1771.31640625 C200.84180924 1770.29167892 201.86736046 1769.26709989 202.89305115 1768.24266052 C205.03018063 1766.1069957 207.16551609 1763.96955792 209.29956055 1761.83081055 C212.01475875 1759.10991584 214.73442333 1756.3935369 217.45546055 1753.67848301 C219.57042075 1751.56716186 221.68296207 1749.45343325 223.79481316 1747.33900261 C224.79586663 1746.33728909 225.79764385 1745.33629823 226.80020332 1744.336092 C231.89528262 1739.25035426 236.895565 1734.13932862 241.57350159 1728.66461182 C243.76829753 1726.10345701 246.07609019 1723.65554882 248.375 1721.1875 C252.62485297 1716.58821468 256.63576503 1711.8491206 260.5625 1706.96875 C263.42926803 1703.47717355 266.39793318 1700.08490453 269.375 1696.6875 C274.98520685 1690.25915488 280.31468082 1683.66118789 285.52392578 1676.90576172 C287.11871479 1674.84672715 288.72812291 1672.7997111 290.33984375 1670.75390625 C297.95872925 1661.06235278 305.31305493 1651.21465622 312.45605469 1641.16748047 C313.92370333 1639.10710972 315.40189863 1637.05475373 316.8828125 1635.00390625 C356.89759846 1579.30589476 390.53116595 1518.24600285 417 1455 C417.45218903 1453.92026917 417.45218903 1453.92026917 417.91351318 1452.81872559 C434.83658896 1412.27505455 448.9393221 1370.51628256 460 1328 C460.19833435 1327.24128601 460.3966687 1326.48257202 460.60101318 1325.7008667 C474.03067372 1274.21435033 483.21467262 1221.45666646 487.78710938 1168.43963623 C488.00129222 1165.98519166 488.22651335 1163.53193866 488.453125 1161.07861328 C493.53931053 1104.97382278 493.16527882 1047.07856941 488 991 C487.87271515 989.58107452 487.87271515 989.58107452 487.74285889 988.13348389 C479.99204592 901.83438103 462.37651512 817.27866571 363.64111328 587.88378906 C361.99459366 584.9904999 360.36746208 582.08713668 358.74609375 579.1796875 C351.51122177 566.2237382 343.92685397 553.54354237 336 541 C335.42604492 540.08831055 334.85208984 539.17662109 334.26074219 538.23730469 C326.36155118 525.69717539 318.30456317 513.27538258 310 501 C309.47019531 500.21496094 308.94039062 499.42992187 308.39453125 498.62109375 C302.65103141 490.12180538 296.84505317 481.67240294 290.8125 473.375 C290.35480225 472.74118408 289.89710449 472.10736816 289.42553711 471.4543457 C287.16050479 468.23117958 287.16050479 468.23117958 284 466 Z " fill="#FFFFFF" transform="translate(1952,266)"/>
<path d="M0 0 C1.53297995 1.26747608 3.08740785 2.50887483 4.64257812 3.74902344 C18.84857826 15.32294741 32.69229804 28.55472502 43.59570312 43.31933594 C44.32297607 44.2885498 44.32297607 44.2885498 45.06494141 45.27734375 C52.54827086 55.27157145 59.49843015 65.42248392 65.59570312 76.31933594 C65.98822266 77.0101123 66.38074219 77.70088867 66.78515625 78.41259766 C79.60690923 101.13514166 89.74902474 126.62175229 94.59570312 152.31933594 C97.18620174 149.09589804 99.04331586 145.72008432 100.92382812 142.04199219 C101.23592224 141.43479843 101.54801636 140.82760468 101.86956787 140.20201111 C102.86512821 138.26373133 103.8556799 136.32294889 104.84570312 134.38183594 C119.12807158 106.46953872 119.12807158 106.46953872 124.72070312 98.50683594 C125.1824292 97.84433838 125.64415527 97.18184082 126.11987305 96.49926758 C163.45134981 43.70482795 217.51294257 8.10541307 280.78320312 -5.43066406 C281.70818604 -5.62958252 282.63316895 -5.82850098 283.58618164 -6.03344727 C299.28590798 -9.22153526 314.74182915 -10.05720167 330.72070312 -9.99316406 C331.66691528 -9.99134125 332.61312744 -9.98951843 333.5880127 -9.98764038 C347.79669678 -9.94160177 361.61371874 -9.39250117 375.59570312 -6.68066406 C376.49417969 -6.51969238 377.39265625 -6.3587207 378.31835938 -6.19287109 C423.42211315 1.9700301 467.16625801 22.74708222 500.59570312 54.31933594 C501.86232179 55.40759401 503.13311159 56.49101778 504.40820312 57.56933594 C514.02286791 65.9773019 522.8279994 75.18043844 530.59570312 85.31933594 C531.0046582 85.8465625 531.41361328 86.37378906 531.83496094 86.91699219 C542.93244407 101.29119273 554.2939113 117.17846216 560.59570312 134.31933594 C560.87671875 135.07214844 561.15773438 135.82496094 561.44726562 136.60058594 C561.97070312 138.63183594 561.97070312 138.63183594 561.59570312 142.31933594 C559.93504667 144.52340092 558.15380451 146.26927936 556.06445312 148.06933594 C553.28906181 150.59880651 550.91484648 153.33741617 548.46533203 156.17822266 C545.41684573 159.66937242 542.22196565 163.01921276 539.03320312 166.38183594 C537.61757834 167.88028808 536.20221867 169.37899072 534.78710938 170.87792969 C534.08344238 171.62284668 533.37977539 172.36776367 532.65478516 173.13525391 C529.58213369 176.39443579 526.52495862 179.66792122 523.47070312 182.94433594 C522.90295166 183.5533374 522.3352002 184.16233887 521.75024414 184.78979492 C520.60751076 186.0157189 519.464851 187.24171151 518.32226562 188.46777344 C516.56055825 190.35702524 514.79713444 192.24466052 513.03320312 194.13183594 C512.44369873 194.76275146 511.85419434 195.39366699 511.24682617 196.04370117 C510.07156121 197.30135585 508.89594797 198.55868516 507.7199707 199.81567383 C504.89333059 202.84099662 502.08032821 205.87706526 499.29492188 208.94042969 C498.76592285 209.52034668 498.23692383 210.10026367 497.69189453 210.69775391 C496.71271853 211.77294589 495.73678817 212.85110875 494.76513672 213.93310547 C491.30625949 217.72651142 487.55107973 221.05078218 483.59570312 224.31933594 C483.34046875 223.38589355 483.34046875 223.38589355 483.08007812 222.43359375 C473.87381879 189.07314604 461.04928292 159.35341615 436.59570312 134.31933594 C435.41621094 133.04703125 435.41621094 133.04703125 434.21289062 131.74902344 C411.20179843 107.52282406 377.31901502 93.2373297 344.04492188 92.11621094 C303.31334199 91.44296168 264.70629639 106.21536353 235.1940918 134.31860352 C207.76572162 161.20703038 192.72843289 198.76159902 192.28320312 237.00683594 C192.41190979 270.38047378 203.61631263 302.07769824 225.59570312 327.31933594 C226.40394531 328.27195312 227.2121875 329.22457031 228.04492188 330.20605469 C245.42463877 350.24517487 268.08682931 362.17598029 293.22070312 369.63183594 C295.35184246 370.27485629 297.48199299 370.92102704 299.61166382 371.56889343 C301.5156755 372.14649027 303.42207164 372.71621013 305.32861328 373.28540039 C308.15395225 374.17953509 310.85333724 375.20395986 313.59570312 376.31933594 C315.92319006 377.00613536 318.25556968 377.67694637 320.59570312 378.31933594 C321.15689623 382.48033442 320.86287864 383.96682051 318.28433228 387.36899376 C317.19736079 388.48115284 316.09349947 389.5769503 314.97705078 390.65951538 C314.37268503 391.26900768 313.76831928 391.87849998 313.14563942 392.50646174 C311.11434362 394.54765031 309.06232669 396.56663884 307.00976562 398.58642578 C305.55036767 400.04413155 304.09228914 401.50315931 302.63543701 402.96340942 C298.67368164 406.92688894 294.69367572 410.87157499 290.71019745 414.81320524 C286.55147722 418.93446244 282.4096996 423.07267418 278.26611328 427.20913696 C270.41572704 435.0408615 262.55016907 442.85716385 254.67907906 450.66807425 C245.71944587 459.56068406 236.77680826 468.47030129 227.8355751 477.38140559 C209.44116601 495.71306955 191.02546003 514.02321418 172.59570312 532.31933594 C169.75363331 531.16145564 168.45984806 530.15913456 166.43383271 527.77004099 C162.8884717 524.70864655 160.33821806 524.65431102 155.87312984 524.79555511 C155.10597939 524.79980564 154.33882893 524.80405617 153.54843149 524.8084355 C150.98693392 524.82911541 148.42760102 524.88626434 145.86668396 524.94372559 C144.02787767 524.96688652 142.18904487 524.98801847 140.35019344 525.00726461 C135.42896124 525.0661148 130.50889865 525.15790091 125.58837709 525.25924277 C122.66590709 525.31792624 119.74341288 525.3693754 116.8207581 525.41790962 C103.44199215 525.64085446 90.06536414 525.93556676 76.6884557 526.24930882 C70.74088345 526.38773104 64.79318698 526.52062262 58.84550476 526.65422058 C48.58284453 526.88542588 38.32026225 527.11985372 28.05772591 527.35649109 C13.17497006 527.69957297 -1.70792017 528.03651891 -16.59085197 528.37187105 C-23.5704305 528.52914743 -30.55000236 528.68671936 -37.52957249 528.84436798 C-38.22772419 528.86013688 -38.9258759 528.87590578 -39.64518371 528.89215253 C-56.18008877 529.26568864 -72.71492793 529.64211032 -89.24975586 530.01904297 C-89.97111793 530.03548624 -90.69248 530.05192951 -91.43570153 530.06887106 C-103.86917057 530.35229343 -116.30263498 530.63591926 -128.73609829 530.91959286 C-138.96688613 531.15301094 -149.19767529 531.38637136 -159.4284668 531.61962891 C-160.14924918 531.63606352 -160.87003157 531.65249814 -161.61265585 531.66943077 C-178.12248014 532.04585637 -194.63232355 532.42141478 -211.14222813 532.79430389 C-211.8392758 532.81004759 -212.53632347 532.82579128 -213.25449381 532.84201206 C-220.22041637 532.99932647 -227.1863423 533.15649067 -234.15227326 533.31343304 C-249.66308738 533.66292497 -265.17381995 534.01564786 -280.68444622 534.37338579 C-290.85794603 534.60780988 -301.03152055 534.83878627 -311.20515697 535.06720364 C-317.04549762 535.19844898 -322.8857943 535.3311511 -328.72600174 535.46820641 C-356.95744629 536.12958554 -385.16493726 536.46670954 -413.40429688 536.31933594 C-413.40132756 537.01140117 -413.39835825 537.7034664 -413.39529896 538.41650331 C-413.33000884 554.35247798 -413.5432754 570.26463153 -413.95988464 586.19511986 C-414.06381288 590.17487084 -414.16364124 594.15471441 -414.2623291 598.13459778 C-414.50804863 608.01363941 -414.76032603 617.89251208 -415.01361084 627.7713623 C-415.21105052 635.47561075 -415.40659609 643.17989907 -415.59719801 650.88432008 C-415.70973104 655.42414512 -415.82775905 659.96380631 -415.94689941 664.50346375 C-416.38410886 681.780305 -416.48297369 699.03813997 -416.40429688 716.31933594 C-414.61476502 717.15724383 -412.82259992 717.9895299 -411.02929688 718.81933594 C-410.0315625 719.28339844 -409.03382813 719.74746094 -408.00585938 720.22558594 C-405.56737061 721.44852324 -405.56737061 721.44852324 -403.40429688 721.31933594 C-396.83398887 713.84144634 -397.33988838 704.88469931 -396.92773438 695.44042969 C-396.83287377 693.6496177 -396.73597586 691.85891261 -396.63717651 690.0683136 C-396.37877037 685.28627167 -396.1478366 680.50326816 -395.92207336 675.71958923 C-395.68379489 670.77507542 -395.41945979 665.83196297 -395.15722656 660.88867188 C-394.74273296 653.02160658 -394.34161298 645.15398752 -393.95214844 637.28564453 C-393.29522745 624.02629489 -392.5739477 610.77083881 -391.84259033 597.51541138 C-391.65892055 594.15395673 -391.48062644 590.79226174 -391.30419922 587.43041992 C-391.24942413 586.39870163 -391.19464905 585.36698334 -391.13821411 584.30400085 C-391.03968038 582.44594034 -390.9425544 580.58780418 -390.84738159 578.72956848 C-390.61091173 574.31374388 -390.29255926 569.91561514 -389.88494873 565.51202393 C-389.74992006 564.04716993 -389.74992006 564.04716993 -389.61216354 562.55272293 C-389.50926954 561.44719637 -389.50926954 561.44719637 -389.40429688 560.31933594 C-340.86346389 559.3644359 -292.32261881 558.41015285 -243.78170776 557.45922852 C-242.70229895 557.43808245 -242.70229895 557.43808245 -241.6010839 557.4165092 C-225.95822177 557.11006287 -210.31535742 556.8037298 -194.67249078 556.49751323 C-187.00008459 556.34732154 -179.32767888 556.19710484 -171.65527344 556.046875 C-170.89181887 556.03192657 -170.12836431 556.01697815 -169.34177475 556.00157674 C-144.64205346 555.51794493 -119.94236487 555.03266561 -95.24269288 554.54652245 C-69.83865305 554.04652459 -44.43458078 553.54820773 -19.03046712 553.05197493 C-15.43380265 552.98171849 -11.83713856 552.91144304 -8.2404747 552.84115601 C-7.5326715 552.8273245 -6.8248683 552.813493 -6.09561652 552.79924235 C5.25067904 552.57747049 16.59693953 552.35395169 27.94318756 552.1297625 C39.37867891 551.90384788 50.81420633 551.67985508 62.24977021 551.45763803 C68.43413118 551.33740811 74.61847362 551.216379 80.80277443 551.09309006 C128.39977117 550.14519783 128.39977117 550.14519783 149.59570312 550.31933594 C143.36959804 557.67012604 143.36959804 557.67012604 140.00479126 561.03723145 C139.36021469 561.68462784 138.71563812 562.33202423 138.05152893 562.9990387 C137.36566208 563.68288132 136.67979523 564.36672394 135.97314453 565.07128906 C135.23409378 565.81209213 134.49504303 566.5528952 133.7335968 567.31614685 C131.30731664 569.74680229 128.87742737 572.17381175 126.44726562 574.60058594 C124.748501 576.30002491 123.04988478 577.99961225 121.35140991 579.69934082 C117.79742005 583.25480186 114.24163597 586.80845607 110.68457031 590.36083984 C106.13978046 594.89993714 101.59948917 599.44350342 97.06054115 603.98844147 C93.55522825 607.49737934 90.04752288 611.0039178 86.53910446 614.50975037 C84.86473698 616.1834537 83.19110388 617.85789206 81.51823807 619.53309631 C79.17359631 621.88029595 76.82574102 624.22423513 74.47705078 626.56738281 C73.79523239 627.25122543 73.113414 627.93506805 72.41093445 628.63963318 C69.33065026 631.70655895 66.22182992 634.67607541 62.91500854 637.49804688 C56.84242014 642.7479961 51.26581653 648.52685519 45.60546875 654.21191406 C44.30716438 655.51214049 43.00863002 656.81213729 41.70988464 658.11192322 C38.92625784 660.89869739 36.14418901 663.68701415 33.36332703 666.47654724 C28.96101188 670.89244786 24.55482866 675.3044754 20.14807129 679.71594238 C10.79431137 689.08077648 1.44478716 698.44983416 -7.90429688 707.81933594 C-17.99926634 717.93635212 -28.0949683 728.05263077 -38.19556856 738.16402578 C-42.57107335 742.5444962 -46.94413203 746.92738934 -51.31529999 751.31218719 C-54.04008018 754.04445562 -56.76695656 756.77462471 -59.49439049 759.50424385 C-60.75294828 760.76466485 -62.01064579 762.02594558 -63.2673893 763.28817558 C-68.79786459 768.8420219 -74.31807633 774.32973823 -80.28195953 779.42284393 C-85.53506496 784.11694805 -90.42528425 789.22097308 -95.39453125 794.21191406 C-96.69283562 795.51214049 -97.99136998 796.81213729 -99.29011536 798.11192322 C-102.07374216 800.89869739 -104.85581099 803.68701415 -107.63667297 806.47654724 C-112.03898812 810.89244786 -116.44517134 815.3044754 -120.85192871 819.71594238 C-130.20568863 829.08077648 -139.55521284 838.44983416 -148.90429688 847.81933594 C-158.99926634 857.93635212 -169.0949683 868.05263077 -179.19556856 878.16402578 C-183.57107335 882.5444962 -187.94413203 886.92738934 -192.31529999 891.31218719 C-195.04008018 894.04445562 -197.76695656 896.77462471 -200.49439049 899.50424385 C-201.75294828 900.76466485 -203.01064579 902.02594558 -204.2673893 903.28817558 C-209.79786459 908.8420219 -215.31807633 914.32973823 -221.28195953 919.42284393 C-226.53506496 924.11694805 -231.42528425 929.22097308 -236.39453125 934.21191406 C-237.69283562 935.51214049 -238.99136998 936.81213729 -240.29011536 938.11192322 C-243.07374216 940.89869739 -245.85581099 943.68701415 -248.63667297 946.47654724 C-253.03898812 950.89244786 -257.44517134 955.3044754 -261.85192871 959.71594238 C-271.20568863 969.08077648 -280.55521284 978.44983416 -289.90429688 987.81933594 C-299.99926634 997.93635212 -310.0949683 1008.05263077 -320.19556856 1018.16402578 C-324.57107335 1022.5444962 -328.94413203 1026.92738934 -333.31529999 1031.31218719 C-336.04008018 1034.04445562 -338.76695656 1036.77462471 -341.49439049 1039.50424385 C-342.75294828 1040.76466485 -344.01064579 1042.02594558 -345.2673893 1043.28817558 C-350.92060406 1048.96528005 -356.56315874 1054.58668547 -362.66205025 1059.79119301 C-365.66193242 1062.42242136 -368.40390194 1065.2949577 -371.16479492 1068.17260742 C-372.45628626 1069.50701404 -373.7480197 1070.84118637 -375.03996277 1072.17515564 C-376.04766252 1073.21823033 -376.04766252 1073.21823033 -377.07571983 1074.28237724 C-381.4308606 1078.7786893 -385.82072768 1083.24117734 -390.20378399 1087.7102499 C-394.04068736 1091.62637616 -397.86493808 1095.553508 -401.66479492 1099.50561523 C-405.36081972 1103.34834584 -409.08810915 1107.15812183 -412.83838844 1110.94789314 C-414.25458606 1112.39050019 -415.65919595 1113.84458353 -417.05139732 1115.31036186 C-427.86155887 1126.67254485 -427.86155887 1126.67254485 -434.07754517 1128.25369263 C-446.91446109 1128.49685059 -455.9071426 1121.14010064 -464.89404297 1112.79101562 C-475.49084411 1102.46487316 -482.55972531 1090.02680892 -487.77929688 1076.31933594 C-488.43478516 1074.64291016 -488.43478516 1074.64291016 -489.10351562 1072.93261719 C-491.72992311 1066.19177569 -493.55279948 1060.82891549 -493.52455139 1053.55561829 C-493.52583303 1052.35733431 -493.52583303 1052.35733431 -493.52714056 1051.13484257 C-493.52879193 1048.44932885 -493.52327955 1045.76387714 -493.51782227 1043.07836914 C-493.51754029 1041.15676881 -493.51769832 1039.23516838 -493.51826477 1037.31356812 C-493.51855236 1032.08869639 -493.51266187 1026.86384751 -493.50569081 1021.6389811 C-493.49945084 1016.18170044 -493.49885296 1010.7244193 -493.49766541 1005.26713562 C-493.49455399 994.92930961 -493.48634315 984.59149414 -493.47631592 974.25367278 C-493.46514889 962.48599297 -493.45964284 950.71831266 -493.45462048 938.95062888 C-493.4441604 914.74019205 -493.42656461 890.52976458 -493.40429688 866.31933594 C-494.66421511 866.48135026 -495.92413334 866.64336458 -497.22223091 866.81028843 C-500.50836731 867.23285646 -503.72390379 867.45781463 -507.04052734 867.49291992 C-508.07716522 867.50640976 -509.1138031 867.5198996 -510.18185425 867.53379822 C-511.28393219 867.5442366 -512.38601013 867.55467499 -513.52148438 867.56542969 C-515.92903923 867.59843132 -518.33659123 867.63164167 -520.74414062 867.66503906 C-524.48158332 867.7118602 -528.21902036 867.75619163 -531.95654297 867.79614258 C-545.17171909 867.9438822 -558.35124501 868.23036329 -571.53710938 869.16699219 C-572.57245819 869.23494492 -573.60780701 869.30289764 -574.67453003 869.37290955 C-588.51576787 870.46343944 -597.95779902 874.05790285 -607.40429688 884.31933594 C-609.92382682 887.45402028 -612.28954668 890.69198947 -614.65429688 893.94433594 C-632.50500776 918.0990697 -650.28728847 937.62163049 -681.40429688 942.31933594 C-691.04524125 943.58134198 -700.71831266 944.48524876 -710.40429688 945.31933594 C-711.61569336 945.42955078 -711.61569336 945.42955078 -712.8515625 945.54199219 C-722.34707717 946.3848424 -731.87435291 946.4366849 -741.40072632 946.49356079 C-742.79090421 946.50223084 -744.18106844 946.51364501 -745.57119751 946.52816772 C-771.99296111 946.7718032 -771.99296111 946.7718032 -779.40429688 941.31933594 C-780.4292265 940.61266092 -781.45415613 939.90598591 -782.51014423 939.1778965 C-787.47400953 934.08372011 -786.22394525 926.4160461 -786.1594696 919.78085327 C-786.1656675 918.165717 -786.1744847 916.55058902 -786.18569499 914.93547976 C-786.20882124 910.49847453 -786.19447949 906.06225858 -786.17398584 901.62526941 C-786.1583684 896.83993295 -786.17727144 892.05471653 -786.19178772 887.26939392 C-786.21463007 877.89605201 -786.20512652 868.52300803 -786.18428686 859.14967202 C-786.16801391 851.53397997 -786.16380057 843.91836932 -786.16825294 836.3026619 C-786.16888362 835.21946348 -786.1695143 834.13626507 -786.17016408 833.02024246 C-786.17151011 830.81988757 -786.17288968 828.6195327 -786.17430244 826.41917785 C-786.18624311 805.78046469 -786.16216216 785.14191504 -786.12528435 764.50323911 C-786.09438213 746.78367702 -786.09202421 729.06430314 -786.11108398 711.34472656 C-786.1331811 690.7776354 -786.13935465 670.21064978 -786.11876136 649.64355338 C-786.11659837 647.45182841 -786.11444927 645.26010344 -786.11231422 643.06837845 C-786.11124786 641.98994411 -786.11018149 640.91150977 -786.10908281 639.8003956 C-786.10260567 632.1904011 -786.10738748 624.58046081 -786.11633873 616.97047043 C-786.12685907 607.70151763 -786.11942234 598.43278578 -786.08888295 589.1638739 C-786.07372382 584.43220108 -786.06663009 579.70087749 -786.08107376 574.96919441 C-786.09404666 570.64144421 -786.08410118 566.31438732 -786.05551503 561.98671766 C-786.04921238 560.4175334 -786.05141784 558.84828827 -786.06278547 557.27913253 C-786.07693788 555.15230132 -786.06056876 553.02784777 -786.03629589 550.90115929 C-786.03494206 549.71816541 -786.03358822 548.53517154 -786.03219336 547.31632936 C-785.40429688 544.31933594 -785.40429688 544.31933594 -782.98979694 541.96900713 C-757.68042554 525.82043238 -705.46572648 532.25992406 -677.40429688 538.31933594 C-651.38543534 544.49369948 -633.54522991 560.90886578 -617.40429688 581.31933594 C-615.18230118 584.07516959 -612.9492603 586.82198041 -610.71679688 589.56933594 C-610.1819165 590.23094727 -609.64703613 590.89255859 -609.09594727 591.57421875 C-605.98048983 595.41974857 -602.80248927 599.18287936 -599.49487305 602.86523438 C-598.40429688 604.31933594 -598.40429688 604.31933594 -598.40429688 606.31933594 C-565.07429688 606.31933594 -531.74429688 606.31933594 -497.40429688 606.31933594 C-497.73429687 604.66933594 -498.06429688 603.01933594 -498.40429688 601.31933594 C-500.16929362 567.04873523 -497.57994153 528.03442485 -473.96679688 501.00683594 C-472.46234266 499.4285591 -470.94210136 497.86513594 -469.40429688 496.31933594 C-468.75332031 495.63355469 -468.10234375 494.94777344 -467.43164062 494.24121094 C-453.78776609 480.88651293 -434.1901957 475.64189702 -416.40429688 470.31933594 C-415.81204945 470.14116364 -415.21980202 469.96299135 -414.6096077 469.7794199 C-411.85460344 469.2046559 -409.27192168 469.17828487 -406.45648193 469.16111755 C-405.23934509 469.15132874 -404.02220825 469.14153992 -402.76818848 469.13145447 C-401.42260781 469.12555073 -400.07702674 469.11974026 -398.73144531 469.11401367 C-397.31215125 469.10443175 -395.89286003 469.09442148 -394.47357178 469.08401489 C-390.62270994 469.05699378 -386.77183588 469.0359691 -382.92093182 469.01601291 C-378.89569055 468.99413612 -374.87048684 468.96675571 -370.84527588 468.93995667 C-363.22391348 468.89005268 -355.60253021 468.84510534 -347.98112702 468.8019343 C-339.30402828 468.75254233 -330.62696721 468.69763146 -321.94990492 468.64225471 C-304.10140389 468.52846987 -286.25286731 468.42162321 -268.40429688 468.31933594 C-272.31001343 466.16424132 -276.21575617 464.00919415 -280.121521 461.85418701 C-281.44436311 461.1243003 -282.76719863 460.39440163 -284.09002686 459.66448975 C-285.37489505 458.95552545 -286.65977249 458.24657792 -287.94465923 457.53764725 C-289.22611329 456.83060958 -290.50754697 456.12353499 -291.78896046 455.4164238 C-296.84562371 452.62642799 -301.90519545 449.8417366 -306.96617126 447.05957031 C-333.59470433 432.29733034 -358.78634792 412.72557849 -378.40429688 389.31933594 C-378.88962891 388.74634766 -379.37496094 388.17335938 -379.875 387.58300781 C-387.75233427 378.25080743 -394.91597134 368.66470134 -401.40429688 358.31933594 C-401.79069336 357.70735352 -402.17708984 357.09537109 -402.57519531 356.46484375 C-408.48412162 347.04919504 -413.6374196 337.35686815 -418.40429688 327.31933594 C-418.88914551 326.31773437 -418.88914551 326.31773437 -419.38378906 325.29589844 C-434.79751996 293.27214709 -444.41420796 256.46383271 -444.60742188 220.78027344 C-444.61448151 219.90488922 -444.62154114 219.029505 -444.6288147 218.12759399 C-444.85801986 181.34199817 -444.85801986 181.34199817 -441.40429688 163.31933594 C-441.10628174 161.72992187 -441.10628174 161.72992187 -440.80224609 160.10839844 C-436.23670432 136.41545957 -429.00959886 113.99161902 -418.40429688 92.31933594 C-418.0257959 91.5378418 -417.64729492 90.75634766 -417.25732422 89.95117188 C-408.38950047 71.82523505 -397.1538997 54.94722748 -384.40429688 39.31933594 C-383.98067871 38.7942041 -383.55706055 38.26907227 -383.12060547 37.72802734 C-370.79744785 22.53565124 -356.94542853 8.12379027 -341.11669922 -3.42578125 C-339.3063438 -4.75244604 -337.52092736 -6.1086472 -335.73632812 -7.46972656 C-327.30874644 -13.84688179 -318.62720265 -19.52431766 -309.40429688 -24.68066406 C-308.63375977 -25.11378906 -307.86322266 -25.54691406 -307.06933594 -25.99316406 C-274.2563298 -44.26153601 -237.82625149 -55.38661279 -200.40429688 -58.68066406 C-199.21707031 -58.79152344 -198.02984375 -58.90238281 -196.80664062 -59.01660156 C-127.86605689 -64.5678564 -53.681207 -44.56371952 0 0 Z M-206.40429688 60.31933594 C-207.23155273 60.51269531 -208.05880859 60.70605469 -208.91113281 60.90527344 C-233.30749586 66.81954327 -255.52815832 77.6931396 -274.40429688 94.31933594 C-275.27828125 95.08375 -276.15226562 95.84816406 -277.05273438 96.63574219 C-279.5312297 98.83512768 -281.9749425 101.06590033 -284.40429688 103.31933594 C-285.00757813 103.86847656 -285.61085938 104.41761719 -286.23242188 104.98339844 C-313.4880521 130.83803832 -329.24551471 171.23830652 -330.40429688 208.31933594 C-330.44425781 209.22683594 -330.48421875 210.13433594 -330.52539062 211.06933594 C-331.53412453 253.79218351 -314.38288857 291.93176279 -286.40429688 323.31933594 C-285.71207031 324.09664062 -285.01984375 324.87394531 -284.30664062 325.67480469 C-262.37527851 348.8738756 -232.30102904 362.98831587 -201.40429688 369.31933594 C-199.61958984 369.68865234 -199.61958984 369.68865234 -197.79882812 370.06542969 C-157.85332856 376.73067415 -115.33960609 366.67143036 -82.40429688 343.31933594 C-78.60123782 340.46101652 -74.97364828 337.46323833 -71.40429688 334.31933594 C-70.5303125 333.55492187 -69.65632813 332.79050781 -68.75585938 332.00292969 C-53.55090963 318.51024905 -41.65151045 303.44479696 -32.40429688 285.31933594 C-32.0876709 284.71444336 -31.77104492 284.10955078 -31.44482422 283.48632812 C-12.34085462 246.71492763 -11.41474645 204.28952579 -23.04394531 165.16748047 C-30.35910503 142.07795093 -43.74808455 121.70903284 -60.40429688 104.31933594 C-61.09652344 103.57554687 -61.78875 102.83175781 -62.50195312 102.06542969 C-83.17877365 80.4879854 -110.68537446 67.25847592 -139.40429688 60.31933594 C-140.49266846 60.05032471 -140.49266846 60.05032471 -141.60302734 59.77587891 C-162.27192492 54.8866189 -185.77846655 55.45998539 -206.40429688 60.31933594 Z M19.97070312 402.94433594 C5.09636864 417.9766679 5.09636864 417.9766679 -2.40429688 424.31933594 C-3.78044844 425.60977564 -5.15568824 426.90118973 -6.52929688 428.19433594 C-23.29631869 443.06969375 -45.52119039 452.53965668 -65.40429688 462.31933594 C-65.40429688 462.64933594 -65.40429688 462.97933594 -65.40429688 463.31933594 C28.31570313 463.97933594 122.03570313 464.63933594 218.59570312 465.31933594 C218.92570312 464.65933594 219.25570313 463.99933594 219.59570312 463.31933594 C212.71003139 454.35544327 203.74706248 448.0205887 194.38867188 441.87402344 C182.46357672 434.02162152 172.15744601 425.94423531 162.59570312 415.31933594 C161.90863281 414.56136719 161.2215625 413.80339844 160.51367188 413.02246094 C159.43888438 411.80420064 158.37420057 410.5769137 157.32226562 409.33886719 C136.26704284 384.7109256 114.78185559 377.09782718 82.97070312 373.63183594 C52.81525243 371.40497189 40.29754135 382.40037482 19.97070312 402.94433594 Z M-706.84033203 602.34130859 C-710.21729618 602.36710697 -713.59077674 602.42598306 -716.96679688 602.50683594 C-717.89008789 602.51247559 -718.81337891 602.51811523 -719.76464844 602.52392578 C-724.13029966 602.67712137 -725.88564743 602.91445475 -729.43164062 605.68261719 C-733.41053185 611.00093715 -732.89400502 616.92780033 -732.40429688 623.31933594 C-731.07505656 626.82369676 -730.02088847 628.70274434 -727.40429688 631.31933594 C-724.24144347 631.64855394 -724.24144347 631.64855394 -720.46362305 631.62573242 C-719.74959824 631.63405594 -719.03557343 631.64237946 -718.2999115 631.6509552 C-715.93230785 631.67510924 -713.56497954 631.68383457 -711.19726562 631.69042969 C-709.55300309 631.69939332 -707.90874141 631.70851511 -706.26448059 631.7177887 C-702.81358863 631.73429689 -699.36279387 631.74198187 -695.91186523 631.74487305 C-691.4930304 631.75025283 -687.07511152 631.78790728 -682.65653515 631.83361721 C-679.25841453 631.86338696 -675.86051424 631.8705966 -672.46227455 631.8715992 C-670.83357876 631.87580324 -669.20488241 631.88824506 -667.57631493 631.90911674 C-665.29458127 631.9360261 -663.0149665 631.93120885 -660.7331543 631.91870117 C-659.43568771 631.92377182 -658.13822113 631.92884247 -656.80143738 631.93406677 C-652.52013333 631.15934179 -651.12038883 629.6409462 -648.40429688 626.31933594 C-645.22233505 621.5463932 -645.0981533 617.12558304 -646.02929688 611.63183594 C-647.59842348 607.85166731 -649.23416682 605.88563169 -652.40429688 603.31933594 C-655.20667955 602.39575066 -657.76167627 602.19311823 -660.70019531 602.18994141 C-661.54414352 602.18685471 -662.38809174 602.18376801 -663.25761414 602.18058777 C-664.16711319 602.18254654 -665.07661224 602.18450531 -666.01367188 602.18652344 C-667.44106438 602.18420464 -667.44106438 602.18420464 -668.89729309 602.18183899 C-671.98300664 602.17937605 -675.06859565 602.18559001 -678.15429688 602.19433594 C-679.19641327 602.19688385 -680.23852966 602.19943176 -681.31222534 602.20205688 C-687.45045071 602.21979142 -693.5884293 602.25315955 -699.72650146 602.29974365 C-702.09777736 602.31709327 -704.46902251 602.32983108 -706.84033203 602.34130859 Z " fill="#FFFFFF" transform="translate(1413.404296875,502.6806640625)"/>
<path d="M0 0 C4.12441286 1.84741586 6.20568921 4.48657589 8.75 8.125 C9.18538086 8.74536133 9.62076172 9.36572266 10.06933594 10.00488281 C28.24349408 36.59570732 33.21226835 67.97198947 33.3125 99.5625 C33.31842163 100.93633347 33.31842163 100.93633347 33.32446289 102.33792114 C33.35739466 119.10860229 32.30518058 135.7241283 31 152.4375 C29.61357362 170.24665631 28.59726441 187.94480825 28.625 205.8125 C28.6235498 206.71652557 28.62209961 207.62055115 28.62060547 208.55197144 C27.62040207 224.88488606 27.62040207 224.88488606 33 239 C42.01380165 240.18759823 51.88514304 238.49851398 60.90039062 237.62060547 C62.64669497 237.45561841 64.39418777 237.30279748 66.14257812 237.16162109 C68.69210928 236.95517172 71.23580272 236.71229805 73.78125 236.4609375 C74.56246216 236.4044101 75.34367432 236.34788269 76.14855957 236.28964233 C78.62142333 236.08075483 78.62142333 236.08075483 82 235 C84.38412086 231.60975212 85.11603512 229.99939927 84.63671875 225.87109375 C84.32347656 224.73800781 84.01023437 223.60492187 83.6875 222.4375 C80.66698677 209.85443691 79.21625183 193.55749689 86 182 C88.17651665 178.55524322 89.25058663 177.19146129 93.26245117 176.16650391 C94.62477758 176.03801621 95.98965275 175.93516269 97.35546875 175.8515625 C98.12553757 175.78522614 98.89560638 175.71888977 99.68901062 175.65054321 C101.45462115 175.50058821 103.22113189 175.36101404 104.98822021 175.22961426 C108.30188808 174.97698444 111.61055894 174.68418576 114.92041016 174.38574219 C122.04312142 173.74697532 129.16840467 173.14240682 136.29467773 172.54486084 C139.01131828 172.31617328 141.72766893 172.08413717 144.4440279 171.8521328 C147.70860346 171.57382088 150.97345199 171.29875483 154.23828125 171.0234375 C155.44656082 170.92034271 156.65484039 170.81724792 157.8997345 170.71102905 C159.02248276 170.61738068 160.14523102 170.5237323 161.30200195 170.42724609 C162.28473587 170.34445404 163.26746979 170.26166199 164.27998352 170.17636108 C166.86276476 170.00889809 169.41272332 169.96777436 172 170 C172.34224609 169.19175781 172.34224609 169.19175781 172.69140625 168.3671875 C174.39641422 165.28290443 176.63015396 162.76430666 178.9375 160.125 C182.93029309 155.49380894 186.76778599 150.78063609 190.5 145.9375 C195.66271108 139.2850148 201.19854131 133.09831695 207 127 C208.19882813 125.68708984 208.19882813 125.68708984 209.421875 124.34765625 C225.14677681 107.67206593 246.16579478 99.64752052 268.87913513 98.90600586 C271.88210924 98.86921112 274.88352714 98.8612881 277.88671875 98.8671875 C278.98740189 98.86623077 280.08808502 98.86527405 281.22212219 98.86428833 C283.53732358 98.86361207 285.85252693 98.86542739 288.16772461 98.86962891 C291.66068925 98.87495909 295.1535238 98.86967816 298.64648438 98.86328125 C310.46947564 98.85975412 322.21467363 98.9969327 334 100 C334.81887695 100.05067627 335.63775391 100.10135254 336.48144531 100.15356445 C339.89982099 100.61996179 341.74635024 101.70904881 343.9921875 104.28515625 C348.21378697 110.17674587 350.15015762 113.88815122 350.12304783 121.10212135 C350.12420167 121.84562509 350.12535552 122.58912883 350.12654433 123.35516298 C350.12921297 125.87234617 350.1246868 128.38946672 350.12025452 130.90664673 C350.12069017 132.71916035 350.12156496 134.53167392 350.12284368 136.34418714 C350.12508984 141.34496732 350.12106571 146.34572626 350.11606562 151.34650373 C350.11176304 156.73165863 350.11320741 162.11681225 350.1139679 167.50196838 C350.11449325 176.83880524 350.11134523 186.17563514 350.10573006 195.51247025 C350.09761665 209.0121091 350.095 222.51174457 350.09374207 236.0113856 C350.0915513 257.91156367 350.08489053 279.81173802 350.07543945 301.71191406 C350.06626598 322.99088523 350.05918483 344.26985538 350.05493164 365.54882812 C350.05466892 366.85959374 350.05440619 368.17035935 350.05413551 369.52084513 C350.05283051 376.09631114 350.05156679 382.67177715 350.05032361 389.24724317 C350.03995021 443.83149801 350.02233122 498.41574883 350 553 C348.58175837 553.64927207 347.16142241 554.29397049 345.74023438 554.93676758 C344.94951538 555.29628006 344.15879639 555.65579254 343.34411621 556.02619934 C340.12414917 557.3638489 336.92302997 558.05482459 333.5 558.6875 C332.2934375 558.91824219 331.086875 559.14898438 329.84375 559.38671875 C321.97304376 560.64251233 314.29334465 561.15854197 306.32421875 561.16796875 C305.31897659 561.17129715 304.31373444 561.17462555 303.2780304 561.17805481 C301.15597995 561.18309399 299.03392166 561.18546407 296.91186523 561.18530273 C293.7347225 561.18746782 290.55793988 561.20559677 287.38085938 561.22460938 C277.54051387 561.25247239 267.78350694 561.08189303 257.984375 560.125 C257.19637009 560.04883957 256.40836517 559.97267914 255.59648132 559.89421082 C230.93007071 557.17565062 210.65812333 542.66394937 195.28515625 523.71484375 C194.65221397 522.90928291 194.65221397 522.90928291 194.00648499 522.08744812 C193.08897415 520.91993005 192.16526983 519.75723248 191.23335266 518.60118103 C188.80453256 515.53574633 186.71130108 512.57160241 184.94580078 509.07666016 C182.36919023 504.44088219 179.62938073 500.73117355 175 498 C165.5181871 495.39563915 155.26047707 495.9567347 145.4989624 496.10119629 C141.88500295 496.14054096 138.27207951 496.10144513 134.65820312 496.06640625 C129.30917901 496.01870049 123.96379002 496.02267032 118.61450195 496.05908203 C110.40232387 495.99536254 102.1982537 495.48225022 94 495 C92.68 482.13 91.36 469.26 90 456 C68.55 455.67 47.1 455.34 25 455 C25.04640625 464.02859375 25.0928125 473.0571875 25.140625 482.359375 C25.16107248 488.09245253 25.18049499 493.82550347 25.1953125 499.55859375 C25.21900088 508.65064572 25.24677261 517.74254887 25.30175781 526.83447266 C25.34179298 533.45756724 25.36747223 540.08054051 25.37635398 546.70375276 C25.38154075 550.20644046 25.39361583 553.70878128 25.42292023 557.21135712 C25.45546997 561.13413187 25.45594879 565.05657612 25.45410156 568.97949219 C25.46848267 570.12389267 25.48286377 571.26829315 25.49768066 572.44737244 C25.40187276 591.35390472 15.25285799 605.56264122 3 619 C2.195625 619.88816406 1.39125 620.77632812 0.5625 621.69140625 C-16.06012038 639.16156155 -38.32381644 649.07194846 -62.52612305 650.1081543 C-65.39339939 650.17093763 -68.25703585 650.1895929 -71.125 650.1875 C-72.18630127 650.18741943 -73.24760254 650.18733887 -74.34106445 650.18725586 C-81.85638814 650.13411438 -89.21140457 649.58799835 -96.6786499 648.79942322 C-105.31178845 647.95097856 -113.93898294 647.64183037 -122.60546875 647.41796875 C-123.40235485 647.39679237 -124.19924095 647.375616 -125.02027512 647.35379791 C-144.07348253 646.86285015 -163.11268611 646.9866336 -182.16885757 647.21538162 C-185.20413322 647.2509267 -188.23942939 647.28318419 -191.27474976 647.31466675 C-217.50944424 647.59005757 -243.73737994 648.05111129 -269.96570015 648.68785977 C-273.45690191 648.77260161 -276.94811771 648.85676198 -280.43933105 648.94102478 C-281.13861623 648.95791365 -281.8379014 648.97480252 -282.55837703 648.99220318 C-339.61178734 650.37004336 -396.63325436 651.30717192 -453.70528793 651.31141281 C-457.64859042 651.31185893 -461.59188268 651.31537989 -465.5351823 651.31994247 C-503.06424999 651.36211281 -540.50866326 650.88641494 -578 649 C-578.85528542 648.95744835 -579.71057083 648.9148967 -580.59177399 648.8710556 C-583.05946455 648.747936 -585.527071 648.62330729 -587.99462891 648.49755859 C-589.06948327 648.44279578 -589.06948327 648.44279578 -590.16605186 648.38692665 C-627.56248864 646.43751136 -627.56248864 646.43751136 -635 639 C-634.7812014 634.49082303 -632.92635732 632.42710561 -629.81057495 629.31378096 C-628.89954115 628.39375799 -627.98850735 627.47373502 -627.04986647 626.52583256 C-626.02526529 625.51149464 -625.00048279 624.49733984 -623.97553921 623.48334789 C-622.89227868 622.39712977 -621.80989691 621.3100347 -620.72831872 620.22214141 C-617.73660021 617.21810601 -614.73247077 614.22675131 -611.72627648 611.23721171 C-608.46450963 607.98914613 -605.21432795 604.72952359 -601.96269423 601.4713195 C-596.25662161 595.75693817 -590.54313014 590.05005891 -584.82478333 584.34796143 C-576.32179153 575.86906499 -567.83024774 567.37877323 -559.3410543 558.88606445 C-545.0620222 544.6017709 -530.77368103 530.32682336 -516.48005486 516.05713463 C-502.32269 501.92341843 -488.16945156 487.78559119 -474.02173042 473.64222145 C-473.1428553 472.76362129 -472.26398019 471.88502113 -471.35847249 470.97979672 C-466.89533425 466.51801177 -462.43226988 462.05615295 -457.96923394 457.59426568 C-426.33766144 425.9711002 -394.69682108 394.35722113 -363.05053711 362.7487793 C-355.37796478 355.08537352 -347.70542499 347.42193515 -340.03302002 339.75836182 C-339.55718345 339.28307304 -339.08134687 338.80778426 -338.59109101 338.3180928 C-316.47500352 316.22737675 -294.36414806 294.13142695 -272.25464256 272.03412354 C-270.81946071 270.59973394 -269.3842766 269.16534661 -267.94909203 267.73095973 C-258.43813582 258.2252826 -248.92726983 248.7195152 -239.41646424 239.21368737 C-220.04096135 219.84832684 -200.66488575 200.4835394 -181.28846741 181.11909485 C-179.95205338 179.78350456 -179.95205338 179.78350456 -178.58864108 178.42093264 C-119.06863248 118.93774163 -59.53534699 59.46783867 0 0 Z M238.81732273 165.60634422 C236.68446934 169.58921975 236.43671764 172.77042469 236.4853363 177.17349243 C236.47839078 177.98025653 236.47144525 178.78702063 236.46428925 179.61823213 C236.44603895 182.31299195 236.45627772 185.00686946 236.46655273 187.70166016 C236.45949342 189.63692381 236.45074835 191.57218193 236.44044495 193.50743103 C236.41794704 198.75726739 236.42089101 204.00680236 236.42976642 209.25666857 C236.43487542 213.63824715 236.42758475 218.01976905 236.42029434 222.4013418 C236.4032953 232.73440847 236.40686276 243.06732744 236.42358398 253.40039062 C236.44052172 264.06719048 236.42464796 274.73358161 236.3923611 285.40033686 C236.36569526 294.55631404 236.35838059 303.71216375 236.36687618 312.86817586 C236.37181216 318.33783441 236.36955292 323.80724676 236.34908867 329.27687454 C236.33077772 334.41687217 236.33663403 339.55627958 236.36128807 344.69624519 C236.36630977 346.58448426 236.36277113 348.47276796 236.35013962 350.36097145 C236.33428056 352.93482415 236.34909035 355.50671593 236.37181091 358.08047485 C236.35997518 358.83124758 236.34813946 359.58202031 236.33594507 360.35554373 C236.40457972 364.17067764 236.68954533 365.6849416 239.41328526 368.44907188 C244.6356268 371.58025454 250.03214949 371.52631268 256 371 C260.89329571 369.74835396 260.89329571 369.74835396 265 367 C265.10886012 364.43168315 265.15224331 361.88984844 265.15390015 359.32061768 C265.1582824 358.50658061 265.16266465 357.69254354 265.1671797 356.85383868 C265.18061793 354.10470532 265.1867578 351.35560405 265.19287109 348.60644531 C265.20076814 346.64399061 265.20903684 344.68153738 265.21765137 342.71908569 C265.24391858 336.25544633 265.25918417 329.79180033 265.2734375 323.328125 C265.27879534 321.10655462 265.28417284 318.88498429 265.28956985 316.663414 C265.31120591 307.42449633 265.3299438 298.18558044 265.34119225 288.94664383 C265.35743781 275.68853901 265.3906222 262.430727 265.44759309 249.17273259 C265.48624895 239.86060935 265.50581981 230.54856456 265.51111281 221.23636317 C265.51477238 215.6698658 265.52685785 210.10368038 265.55921555 204.53726959 C265.58921927 199.30054616 265.59563546 194.06432469 265.58383179 188.82753372 C265.5836104 186.90422066 265.5919688 184.98088483 265.60948563 183.05765152 C265.63208657 180.43359792 265.62392531 177.81137841 265.60800171 175.18731689 C265.6218838 174.42437356 265.63576588 173.66143023 265.65006864 172.8753674 C265.59131235 168.95149242 265.14561328 167.18393865 262.68074989 164.07032394 C255.25092554 158.33232381 245.09681879 158.10797124 238.81732273 165.60634422 Z " fill="#FFFFFF" transform="translate(2017,1001)"/>
<path d="M0 0 C27.3698573 1.12021995 54.91904657 1.1115305 82.27734375 -0.26953125 C112.13068698 -1.73128775 146.96954003 -2.12992752 171.00390625 18.328125 C185.74991631 31.83517869 193.59777704 48.91292463 194.53515625 68.91796875 C194.84288183 82.47127357 193.0686391 95.41364054 188.625 108.25 C188.40956543 108.87382568 188.19413086 109.49765137 187.97216797 110.14038086 C187.73900879 110.76952393 187.50584961 111.39866699 187.265625 112.046875 C187.01409668 112.73128662 186.76256836 113.41569824 186.50341797 114.12084961 C185.375 116.5 185.375 116.5 183.28173828 119.41235352 C179.13142975 125.59081968 179.13142975 125.59081968 178.79052734 132.78521729 C180.96109844 139.22097366 184.41341614 145.05134748 187.75 150.9375 C188.76930075 152.83120391 189.78278999 154.72804708 190.79052734 156.62792969 C192.75799626 160.32572952 194.74893576 164.00890284 196.76367188 167.68115234 C199.7283961 173.11066125 202.41585698 178.62897384 205 184.25 C210.18364681 195.27507905 215.6795292 206.14293024 221.14508057 217.02990723 C226.23227511 227.16688865 231.25224354 237.32486532 236.09375 247.58203125 C240.54481521 256.9591229 245.21818786 266.22398844 249.875 275.5 C255.38707232 286.47962405 260.84937355 297.47134909 266.09375 308.58203125 C270.54481521 317.9591229 275.21818786 327.22398844 279.875 336.5 C285.38707232 347.47962405 290.84937355 358.47134909 296.09375 369.58203125 C300.54481526 378.959123 305.2181911 388.22398675 309.875 397.5 C314.93844806 407.58603145 319.99702357 417.6674367 324.8125 427.875 C330.25119379 439.401522 335.99500636 450.773605 341.7119751 462.16369629 C347.04670267 472.79587138 352.33519866 483.4408931 357.40161133 494.2043457 C359.97573566 499.64915717 362.64237122 505.03967966 365.3671875 510.41015625 C365.88731667 511.43801239 365.88731667 511.43801239 366.41795349 512.4866333 C368.13627698 515.88124041 369.86253754 519.27136395 371.6027832 522.65478516 C372.22901339 523.88817632 372.85492414 525.12172974 373.48046875 526.35546875 C374.03887451 527.44496826 374.59728027 528.53446777 375.17260742 529.65698242 C376.375 532.5 376.375 532.5 376.375 536.5 C363.894386 542.11935969 351.41266405 547.73625238 338.92987061 553.35076904 C336.57310899 554.41088669 334.21646707 555.47126986 331.85986328 556.53173828 C327.99061152 558.27272524 324.12038996 560.01154484 320.25 561.75 C319.14116455 562.24910889 318.0323291 562.74821777 316.88989258 563.26245117 C309.08835318 566.76362115 301.24341806 570.15242607 293.375 573.5 C291.22923413 570.77335914 289.53917021 568.07457963 287.99351501 564.97080994 C287.31483871 563.61541359 287.31483871 563.61541359 286.62245178 562.2326355 C286.13465744 561.24828522 285.6468631 560.26393494 285.14428711 559.24975586 C284.62346558 558.20679855 284.10264404 557.16384125 283.56604004 556.08927917 C281.84112845 552.63295546 280.1218168 549.17387582 278.40234375 545.71484375 C277.19837262 543.2994019 275.99306622 540.88462726 274.78773499 538.46986389 C271.93155994 532.74613049 269.07912037 527.02054507 266.22831875 521.29413372 C261.15339772 511.10015885 256.07429553 500.90827018 250.99068648 490.71862513 C248.92993533 486.58753226 246.87285048 482.45462682 244.81663513 478.3212738 C239.71143932 468.07279642 234.55255141 457.86502881 229.1820364 447.7529974 C223.6628324 437.32289103 218.44147208 426.74117102 213.18041801 416.1792984 C211.64274408 413.09375423 210.10232541 410.00958095 208.56213379 406.92529297 C204.33471987 398.45857099 200.11137806 389.98981957 195.88811493 381.52102661 C192.00847358 373.74139724 188.12790318 365.96223465 184.24406004 358.18470192 C182.72238451 355.13725006 181.20153838 352.08939088 179.68281555 349.04046631 C171.67539492 332.96554791 171.67539492 332.96554791 163.38598633 317.03515625 C157.67594401 306.28982249 152.30446837 295.37886386 146.91435814 284.4704895 C145.0642877 280.72731833 143.20801415 276.98724384 141.35041809 273.24780273 C141.03391003 272.61059831 140.71740198 271.97339388 140.39130276 271.31688023 C139.74570304 270.01718321 139.10008639 268.7174946 138.45445311 267.41781425 C134.14659897 258.74554287 129.84255872 250.07144707 125.5559082 241.38867188 C122.63892378 235.48032515 119.71206059 229.5769915 116.77361757 223.679286 C115.22632136 220.572745 113.68416349 217.46388711 112.15416527 214.3487854 C110.45668641 210.89289624 108.73751017 207.44807134 107.01635742 204.00390625 C106.51705215 202.97855774 106.01774689 201.95320923 105.50331116 200.89678955 C105.03128265 199.96091003 104.55925415 199.02503052 104.07292175 198.06079102 C103.6701813 197.24755875 103.26744085 196.43432648 102.85249615 195.59645081 C101.01822331 192.99376195 99.21875948 191.89293146 96.375 190.5 C88.14238617 189.40821967 81.36927511 189.97429257 74.375 194.5 C72.51079093 196.36420907 73.24168302 199.49239673 73.2363348 201.97931767 C73.23207147 203.01180057 73.23207147 203.01180057 73.22772202 204.06514171 C73.21931702 206.40062236 73.2181023 208.73605379 73.21678162 211.07154846 C73.21222021 212.75120648 73.20722081 214.43086335 73.20181805 216.11051887 C73.18817954 220.74869757 73.18080215 225.38686889 73.17439139 230.02506244 C73.16641241 235.01828371 73.15270609 240.01148952 73.13967896 245.00469971 C73.11788055 253.66328512 73.09974843 262.32187207 73.08407402 270.98047066 C73.06140593 283.49950475 73.03325893 296.01852175 73.00375474 308.53754138 C72.9560412 328.84655326 72.91278725 349.15557211 72.87231445 369.46459961 C72.83297864 389.19832909 72.79155704 408.93205237 72.74731445 428.66577148 C72.74322804 430.4889382 72.74322804 430.4889382 72.73905908 432.34893657 C72.72537992 438.44618301 72.71165959 444.54342936 72.69791877 450.64067566 C72.58389491 501.26043751 72.47709867 551.88021279 72.375 602.5 C40.00678077 601.82573971 7.72370737 600.04041464 -24.625 598.5 C-24.625 463.53 -24.625 328.56 -24.625 189.5 C-39.73818454 189.36372943 -39.73818454 189.36372943 -51.2902832 196.16943359 C-55.56798502 200.9976089 -59.02357416 205.94734907 -62.1875 211.5625 C-62.69579346 212.46258789 -63.20408691 213.36267578 -63.7277832 214.29003906 C-75.32663492 235.32891569 -84.18611785 257.90660585 -93.23706055 280.12207031 C-104.21120822 307.00612265 -116.65584862 333.00170891 -129.67638445 358.93988228 C-131.9993976 363.57058572 -134.31569992 368.20464468 -136.63290405 372.83825684 C-140.51686932 380.60252531 -144.40528823 388.36454896 -148.296875 396.125 C-153.26285641 406.02802238 -158.22137457 415.93476201 -163.17756081 425.84268951 C-167.48217798 434.44791884 -171.79018713 443.05144916 -176.09874296 451.65470695 C-177.46375548 454.38067404 -178.82832314 457.10686345 -180.19282913 459.83308411 C-196.87148456 493.15052892 -196.87148456 493.15052892 -204.58914185 507.65042114 C-207.97118191 514.01320669 -211.17132947 520.46797761 -214.3828125 526.91796875 C-215.06336937 528.28095762 -215.74410887 529.64385532 -216.42501831 531.00666809 C-218.17916799 534.51870663 -219.93090911 538.03194059 -221.68206787 541.54547119 C-223.48444465 545.16062883 -225.28921192 548.77459272 -227.09375 552.38867188 C-230.60644479 559.42464614 -234.11658395 566.46189103 -237.625 573.5 C-240.88692497 572.92143717 -243.78575029 572.14662531 -246.83154297 570.84863281 C-247.63306793 570.50983093 -248.4345929 570.17102905 -249.26040649 569.82196045 C-250.55076309 569.2681369 -250.55076309 569.2681369 -251.8671875 568.703125 C-252.77616791 568.31763489 -253.68514832 567.93214478 -254.62167358 567.53497314 C-257.58310415 566.27793433 -260.54165097 565.01427209 -263.5 563.75 C-267.57489647 562.0141566 -271.6507274 560.28051309 -275.7265625 558.546875 C-277.24618591 557.89960449 -277.24618591 557.89960449 -278.79650879 557.23925781 C-285.00073596 554.60062958 -291.22057123 552.00501285 -297.4609375 549.453125 C-298.91296803 548.85655447 -300.3649554 548.25987887 -301.81689453 547.66308594 C-303.83171022 546.83524662 -305.84759951 546.01101791 -307.86859131 545.19836426 C-309.69231072 544.46471921 -311.5104096 543.71714713 -313.328125 542.96875 C-314.83874512 542.35676758 -314.83874512 542.35676758 -316.37988281 541.73242188 C-318.625 540.5 -318.625 540.5 -319.625 537.5 C-318.73261526 535.22769947 -317.78187313 533.14089521 -316.6796875 530.97265625 C-316.19858521 529.99597237 -316.19858521 529.99597237 -315.70776367 528.9995575 C-315.01236078 527.59009218 -314.31253076 526.1828045 -313.60882568 524.77746582 C-311.71946481 521.00332007 -309.86214203 517.21340894 -308 513.42578125 C-307.62229462 512.65982635 -307.24458923 511.89387146 -306.85543823 511.10470581 C-303.62344422 504.53752335 -300.54211662 497.9071652 -297.5 491.25 C-290.33046048 475.63957819 -282.71763894 460.24623738 -275.15283203 444.82473755 C-274.68989746 443.8809726 -274.22696289 442.93720764 -273.75 441.96484375 C-273.2947998 441.03695038 -272.83959961 440.10905701 -272.37060547 439.15304565 C-267.80286642 429.83539978 -263.31767278 420.47993733 -258.86572266 411.10644531 C-256.48566945 406.10655392 -254.08514944 401.1164702 -251.6875 396.125 C-251.18492676 395.07787842 -250.68235352 394.03075684 -250.16455078 392.9519043 C-247.70076456 387.81895039 -245.23410271 382.68741221 -242.76171875 377.55859375 C-238.47557734 368.65935854 -234.20328391 359.75464756 -230.015625 350.80859375 C-229.70209579 350.13895599 -229.38856659 349.46931824 -229.0655365 348.77938843 C-228.74669998 348.09841095 -228.42786346 347.41743347 -228.09936523 346.71582031 C-220.05142266 329.52866328 -211.78673749 312.45473888 -203.44473267 295.40853882 C-203.03371307 294.56860382 -202.62269348 293.72866882 -202.19921875 292.86328125 C-201.7960141 292.03937897 -201.39280945 291.21547668 -200.97738647 290.36660767 C-196.55177041 281.31663232 -192.20747656 272.22878939 -187.88037109 263.13134766 C-186.54785586 260.33830036 -185.20667404 257.54954982 -183.86328125 254.76171875 C-179.54200726 245.79215545 -175.23255844 236.81810509 -171.01171875 227.80078125 C-170.69843628 227.13163696 -170.38515381 226.46249268 -170.06237793 225.77307129 C-169.584599 224.75255676 -169.584599 224.75255676 -169.09716797 223.71142578 C-162.71427928 210.07910124 -156.22819728 196.50289813 -149.61654663 182.9798584 C-148.32422264 180.33647804 -147.03363591 177.69225564 -145.7434082 175.04785156 C-142.1441113 167.67492426 -138.53495093 160.30787167 -134.875 152.96484375 C-133.85405753 150.89328295 -132.83321329 148.82167373 -131.8125 146.75 C-131.12837036 145.4038562 -131.12837036 145.4038562 -130.43041992 144.03051758 C-128.25150324 139.65769145 -128.25150324 139.65769145 -127.62890625 134.8984375 C-128.74803361 132.20375437 -129.98153088 129.58085193 -131.30444336 126.98022461 C-142.49039781 104.98330666 -146.67394625 78.49125414 -139.625 54.5 C-133.10106283 34.58005441 -120.00000524 19.95416379 -101.40820312 10.37988281 C-70.96206737 -4.64310093 -33.0583486 -1.35506737 0 0 Z " fill="#FFFFFF" transform="translate(1431.625,1674.5)"/>
<path d="M0 0 C3.52064864 4.40253618 2.95521344 9.18407311 2.73147583 14.59396362 C2.71237404 16.34369225 2.71237404 16.34369225 2.69288635 18.12876892 C2.64266936 21.83937108 2.52978441 25.54500693 2.41506958 29.25411987 C2.36990849 31.77553341 2.32884678 34.29702393 2.29202271 36.818573 C2.20069295 42.98637579 2.03190517 49.1508703 1.85256958 55.31661987 C-15.71727682 55.41809986 -33.24566534 55.21141223 -50.80368042 54.56271362 C-51.98029739 54.52035521 -53.15691437 54.47799679 -54.3691864 54.43435478 C-82.71663065 53.39800068 -111.01596853 51.60961538 -139.3209669 49.78614962 C-153.05250115 48.9017345 -166.7850004 48.03286142 -180.51852417 47.17990112 C-181.22436229 47.13597024 -181.9302004 47.09203937 -182.65742755 47.04677725 C-199.59663993 45.99387697 -216.52838776 45.02592859 -233.49508667 44.54708862 C-234.25516399 44.52521358 -235.01524132 44.50333855 -235.79835129 44.48080063 C-239.40902063 44.37759268 -243.01978502 44.27806128 -246.63058472 44.17953491 C-247.99037085 44.14204974 -249.35015281 44.10441307 -250.70993042 44.06661987 C-251.37484497 44.0481752 -252.03975952 44.02973053 -252.724823 44.01072693 C-293.47975384 42.8408106 -333.87350019 36.2964711 -374.14743042 30.31661987 C-371.51034467 27.67953412 -370.00147169 27.89301767 -366.31145859 27.55515099 C-365.06063767 27.43621683 -363.80981676 27.31728268 -362.52109218 27.19474447 C-361.12016498 27.07076954 -359.71922297 26.94696185 -358.31826782 26.82330322 C-356.83994313 26.68622668 -355.36169144 26.54836079 -353.88350797 26.40976965 C-349.80716217 26.02991213 -345.72985997 25.66135664 -341.65232015 25.29456997 C-337.26032755 24.89753606 -332.86929373 24.49015498 -328.47813416 24.08403015 C-319.86902875 23.28945458 -311.25907367 22.50447524 -302.64880458 21.72262214 C-292.6270488 20.81221102 -282.60618928 19.8921176 -272.58536401 18.97153039 C-254.70583478 17.32929409 -236.82554328 15.69551064 -218.9447937 14.06661987 C-201.58652965 12.4853154 -184.22876091 10.89871793 -166.87155151 9.30587769 C-165.26893119 9.15880957 -165.26893119 9.15880957 -163.63393471 9.00877039 C-161.48165784 8.81125755 -159.32938106 8.61374381 -157.17710437 8.41622917 C-156.11544578 8.31880112 -155.05378719 8.22137307 -153.95995712 8.12099266 C-152.90101423 8.02381145 -151.84207133 7.92663023 -150.75103925 7.82650413 C-134.22413585 6.30997851 -117.69684237 4.79771206 -101.16948657 3.28612583 C-96.17378769 2.82919898 -91.17810926 2.37205061 -86.18247509 1.91441679 C-75.67336784 0.9517191 -65.16413756 -0.0095857 -54.65445724 -0.96600963 C-50.30735444 -1.36163892 -45.96033258 -1.75810525 -41.61351967 -2.15690804 C-37.63508889 -2.52187525 -33.65643616 -2.88431366 -29.67758945 -3.24471729 C-28.23735826 -3.37561076 -26.79720985 -3.50741886 -25.3571541 -3.64022847 C-23.40058811 -3.82052785 -21.44368442 -3.99715134 -19.48676682 -4.17359352 C-17.85597533 -4.32233655 -17.85597533 -4.32233655 -16.19223857 -4.4740845 C-9.09581993 -4.96188187 -5.53229551 -4.63697811 0 0 Z " fill="#FFFFFF" transform="translate(556.1474304199219,1163.6833801269531)"/>
<path d="M0 0 C4.34400006 10.09378134 3.11224555 21.93581581 2.63818359 32.66674805 C2.57975923 34.19730419 2.52246094 35.72790374 2.46630859 37.25854492 C2.33026313 40.95778111 2.17286164 44.65595941 2.01318359 48.35424805 C-23.18988251 46.83776446 -48.35792285 44.91247661 -73.52983212 42.95352626 C-78.04659896 42.60225425 -82.56346339 42.25224568 -87.0803265 41.90221411 C-97.72320839 41.07742437 -108.36592924 40.25058044 -119.00854492 39.42236328 C-129.96572235 38.56970149 -140.9231641 37.72049888 -151.88073784 36.87294668 C-161.34140071 36.14106338 -170.80190282 35.40712782 -180.26227707 34.67152315 C-185.89129521 34.2338478 -191.52036969 33.79693312 -197.14959908 33.36198235 C-202.41877516 32.95475806 -207.6877456 32.54496943 -212.95656776 32.13319206 C-214.887458 31.9827157 -216.81841897 31.8331438 -218.7494545 31.68454361 C-221.38427967 31.48163914 -224.01882938 31.27546526 -226.65333557 31.06846619 C-227.41624816 31.01048809 -228.17916075 30.95251 -228.9651919 30.892775 C-233.01758464 30.57052687 -236.9882412 30.08868977 -240.98681641 29.35424805 C-240.98681641 29.02424805 -240.98681641 28.69424805 -240.98681641 28.35424805 C-214.8330974 24.66044329 -188.65401123 21.18479687 -162.45877481 17.79905105 C-159.30527068 17.39142237 -156.15181582 16.98341456 -152.99837303 16.57531166 C-143.08296279 15.29225243 -133.16737177 14.0106036 -123.25151187 12.73102397 C-111.88466142 11.26418149 -100.51846784 9.79237303 -89.15278846 8.31648463 C-80.28966859 7.16587258 -71.42598931 6.01963882 -62.56187409 4.87672025 C-57.29623538 4.19768146 -52.03084902 3.51681453 -46.76604652 2.83131981 C-41.84070293 2.19013909 -36.91468667 1.5544035 -31.98810387 0.92281723 C-30.18714366 0.69099104 -28.38643163 0.45722701 -26.58599854 0.22134209 C-24.12193183 -0.10118227 -21.65705017 -0.41658482 -19.19184875 -0.7303009 C-18.48777667 -0.82416401 -17.78370458 -0.91802712 -17.05829698 -1.01473457 C-3.30244276 -2.73553289 -3.30244276 -2.73553289 0 0 Z " fill="#FFFFFF" transform="translate(547.98681640625,1299.645751953125)"/>
<path d="M0 0 C0 15.51 0 31.02 0 47 C-26.61815162 45.84268906 -26.61815162 45.84268906 -39.77871704 44.94587708 C-41.22994146 44.84747245 -41.22994146 44.84747245 -42.71048355 44.74707985 C-43.71118755 44.67915922 -44.71189156 44.61123859 -45.74291992 44.54125977 C-47.90726856 44.39636742 -50.07163162 44.25169026 -52.23600769 44.10720825 C-58.03244025 43.71944174 -63.82862458 43.32808775 -69.62473464 42.93553281 C-73.25194464 42.68995222 -76.87919778 42.44501837 -80.506464 42.2002697 C-91.87620202 41.43291308 -103.24578621 40.6633332 -114.61515063 39.89046055 C-127.70849564 39.00041262 -140.80232056 38.11790023 -153.89660186 37.24173695 C-164.05541904 36.56154282 -174.21377932 35.87478814 -184.3718136 35.18300098 C-190.42659916 34.77079996 -196.48154299 34.36139496 -202.53697777 33.95883369 C-208.21184837 33.58139134 -213.88610914 33.19583812 -219.55999947 32.80394363 C-221.64317145 32.66147618 -223.72654781 32.52196258 -225.81012726 32.38558388 C-228.64792714 32.19938831 -231.48480557 32.00267459 -234.32170105 31.80323792 C-235.15036956 31.75138149 -235.97903806 31.69952507 -236.83281773 31.64609724 C-240.61981017 31.36901383 -243.76866713 31.10558384 -247 29 C-201.37800232 23.33465428 -155.73132578 17.87849899 -110.0809989 12.44693816 C-99.40297898 11.17643945 -88.72527342 9.90333932 -78.04782319 8.62806183 C-69.67323792 7.62798434 -61.29838808 6.63014343 -52.92333007 5.63403267 C-47.96461028 5.04420697 -43.00600493 4.45345743 -38.04767609 3.86035347 C-33.43444801 3.30859189 -28.82089867 2.75960164 -24.20708275 2.21277809 C-22.51905222 2.0122297 -20.83114051 1.81067827 -19.14335823 1.6080513 C-16.84289381 1.33202414 -14.54202936 1.05960904 -12.24102783 0.7881012 C-10.95541584 0.63495736 -9.66980385 0.48181353 -8.34523392 0.32402897 C-5 0 -5 0 0 0 Z " fill="#FFFFFF" transform="translate(467,1455)"/>
</svg>
